<?xml version="1.0" encoding="utf-8" standalone="no"?>
<!DOCTYPE svg PUBLIC "-//W3C//DTD SVG 1.1//EN"
  "http://www.w3.org/Graphics/SVG/1.1/DTD/svg11.dtd">
<svg xmlns:xlink="http://www.w3.org/1999/xlink" width="860.959329pt" height="710.448375pt" viewBox="0 0 860.959329 710.448375" xmlns="http://www.w3.org/2000/svg" version="1.1">
 <metadata>
  <rdf:RDF xmlns:dc="http://purl.org/dc/elements/1.1/" xmlns:cc="http://creativecommons.org/ns#" xmlns:rdf="http://www.w3.org/1999/02/22-rdf-syntax-ns#">
   <cc:Work>
    <dc:type rdf:resource="http://purl.org/dc/dcmitype/StillImage"/>
    <dc:date>2025-08-03T11:25:18.721445</dc:date>
    <dc:format>image/svg+xml</dc:format>
    <dc:creator>
     <cc:Agent>
      <dc:title>Matplotlib v3.10.3, https://matplotlib.org/</dc:title>
     </cc:Agent>
    </dc:creator>
   </cc:Work>
  </rdf:RDF>
 </metadata>
 <defs>
  <style type="text/css">*{stroke-linejoin: round; stroke-linecap: butt}</style>
 </defs>
 <g id="figure_1">
  <g id="patch_1">
   <path d="M 0 710.448375 
L 860.959329 710.448375 
L 860.959329 0 
L 0 0 
z
" style="fill: #f8f9fa"/>
  </g>
  <g id="axes_1">
   <g id="patch_2">
    <path d="M 307.915 382.896375 
L 826.047857 382.896375 
L 826.047857 73.344375 
L 307.915 73.344375 
z
" style="fill: #f8f9fa"/>
   </g>
   <g id="patch_3">
    <path d="M 307.915 368.82583 
L 617.81733 368.82583 
L 617.81733 345.85351 
L 307.915 345.85351 
z
" clip-path="url(#p72b50a1bc2)" style="fill: #5b8db8"/>
   </g>
   <g id="patch_4">
    <path d="M 307.915 340.110431 
L 617.81733 340.110431 
L 617.81733 317.138112 
L 307.915 317.138112 
z
" clip-path="url(#p72b50a1bc2)" style="fill: #5b8db8"/>
   </g>
   <g id="patch_5">
    <path d="M 307.915 311.395032 
L 624.235426 311.395032 
L 624.235426 288.422713 
L 307.915 288.422713 
z
" clip-path="url(#p72b50a1bc2)" style="fill: #5b8db8"/>
   </g>
   <g id="patch_6">
    <path d="M 307.915 282.679633 
L 636.888243 282.679633 
L 636.888243 259.707314 
L 307.915 259.707314 
z
" clip-path="url(#p72b50a1bc2)" style="fill: #5b8db8"/>
   </g>
   <g id="patch_7">
    <path d="M 307.915 253.964234 
L 636.888243 253.964234 
L 636.888243 230.991915 
L 307.915 230.991915 
z
" clip-path="url(#p72b50a1bc2)" style="fill: #5b8db8"/>
   </g>
   <g id="patch_8">
    <path d="M 307.915 225.248835 
L 659.066214 225.248835 
L 659.066214 202.276516 
L 307.915 202.276516 
z
" clip-path="url(#p72b50a1bc2)" style="fill: #5b8db8"/>
   </g>
   <g id="patch_9">
    <path d="M 307.915 196.533436 
L 673.440825 196.533436 
L 673.440825 173.561117 
L 307.915 173.561117 
z
" clip-path="url(#p72b50a1bc2)" style="fill: #5b8db8"/>
   </g>
   <g id="patch_10">
    <path d="M 307.915 167.818037 
L 681.74823 167.818037 
L 681.74823 144.845718 
L 307.915 144.845718 
z
" clip-path="url(#p72b50a1bc2)" style="fill: #5b8db8"/>
   </g>
   <g id="patch_11">
    <path d="M 307.915 139.102638 
L 691.717116 139.102638 
L 691.717116 116.130319 
L 307.915 116.130319 
z
" clip-path="url(#p72b50a1bc2)" style="fill: #5b8db8"/>
   </g>
   <g id="patch_12">
    <path d="M 307.915 110.38724 
L 801.374864 110.38724 
L 801.374864 87.41492 
L 307.915 87.41492 
z
" clip-path="url(#p72b50a1bc2)" style="fill: #5b8db8"/>
   </g>
   <g id="matplotlib.axis_1">
    <g id="xtick_1"/>
    <g id="xtick_2"/>
    <g id="xtick_3"/>
    <g id="xtick_4"/>
    <g id="xtick_5"/>
    <g id="xtick_6"/>
    <g id="xtick_7"/>
   </g>
   <g id="matplotlib.axis_2">
    <g id="ytick_1">
     <g id="line2d_1">
      <defs>
       <path id="mb4e508a317" d="M 0 0 
L -3.5 0 
" style="stroke: #333333; stroke-width: 0.8"/>
      </defs>
      <g>
       <use xlink:href="#mb4e508a317" x="307.915" y="357.33967" style="fill: #333333; stroke: #333333; stroke-width: 0.8"/>
      </g>
     </g>
     <g id="text_1">
      <!-- Mt. Holly, Michigan -->
      <g style="fill: #333333" transform="translate(148.58 363.41842) scale(0.16 -0.16)">
       <defs>
        <path id="DejaVuSans-4d" d="M 628 4666 
L 1569 4666 
L 2759 1491 
L 3956 4666 
L 4897 4666 
L 4897 0 
L 4281 0 
L 4281 4097 
L 3078 897 
L 2444 897 
L 1241 4097 
L 1241 0 
L 628 0 
L 628 4666 
z
" transform="scale(0.015625)"/>
        <path id="DejaVuSans-74" d="M 1172 4494 
L 1172 3500 
L 2356 3500 
L 2356 3053 
L 1172 3053 
L 1172 1153 
Q 1172 725 1289 603 
Q 1406 481 1766 481 
L 2356 481 
L 2356 0 
L 1766 0 
Q 1100 0 847 248 
Q 594 497 594 1153 
L 594 3053 
L 172 3053 
L 172 3500 
L 594 3500 
L 594 4494 
L 1172 4494 
z
" transform="scale(0.015625)"/>
        <path id="DejaVuSans-2e" d="M 684 794 
L 1344 794 
L 1344 0 
L 684 0 
L 684 794 
z
" transform="scale(0.015625)"/>
        <path id="DejaVuSans-20" transform="scale(0.015625)"/>
        <path id="DejaVuSans-48" d="M 628 4666 
L 1259 4666 
L 1259 2753 
L 3553 2753 
L 3553 4666 
L 4184 4666 
L 4184 0 
L 3553 0 
L 3553 2222 
L 1259 2222 
L 1259 0 
L 628 0 
L 628 4666 
z
" transform="scale(0.015625)"/>
        <path id="DejaVuSans-6f" d="M 1959 3097 
Q 1497 3097 1228 2736 
Q 959 2375 959 1747 
Q 959 1119 1226 758 
Q 1494 397 1959 397 
Q 2419 397 2687 759 
Q 2956 1122 2956 1747 
Q 2956 2369 2687 2733 
Q 2419 3097 1959 3097 
z
M 1959 3584 
Q 2709 3584 3137 3096 
Q 3566 2609 3566 1747 
Q 3566 888 3137 398 
Q 2709 -91 1959 -91 
Q 1206 -91 779 398 
Q 353 888 353 1747 
Q 353 2609 779 3096 
Q 1206 3584 1959 3584 
z
" transform="scale(0.015625)"/>
        <path id="DejaVuSans-6c" d="M 603 4863 
L 1178 4863 
L 1178 0 
L 603 0 
L 603 4863 
z
" transform="scale(0.015625)"/>
        <path id="DejaVuSans-79" d="M 2059 -325 
Q 1816 -950 1584 -1140 
Q 1353 -1331 966 -1331 
L 506 -1331 
L 506 -850 
L 844 -850 
Q 1081 -850 1212 -737 
Q 1344 -625 1503 -206 
L 1606 56 
L 191 3500 
L 800 3500 
L 1894 763 
L 2988 3500 
L 3597 3500 
L 2059 -325 
z
" transform="scale(0.015625)"/>
        <path id="DejaVuSans-2c" d="M 750 794 
L 1409 794 
L 1409 256 
L 897 -744 
L 494 -744 
L 750 256 
L 750 794 
z
" transform="scale(0.015625)"/>
        <path id="DejaVuSans-69" d="M 603 3500 
L 1178 3500 
L 1178 0 
L 603 0 
L 603 3500 
z
M 603 4863 
L 1178 4863 
L 1178 4134 
L 603 4134 
L 603 4863 
z
" transform="scale(0.015625)"/>
        <path id="DejaVuSans-63" d="M 3122 3366 
L 3122 2828 
Q 2878 2963 2633 3030 
Q 2388 3097 2138 3097 
Q 1578 3097 1268 2742 
Q 959 2388 959 1747 
Q 959 1106 1268 751 
Q 1578 397 2138 397 
Q 2388 397 2633 464 
Q 2878 531 3122 666 
L 3122 134 
Q 2881 22 2623 -34 
Q 2366 -91 2075 -91 
Q 1284 -91 818 406 
Q 353 903 353 1747 
Q 353 2603 823 3093 
Q 1294 3584 2113 3584 
Q 2378 3584 2631 3529 
Q 2884 3475 3122 3366 
z
" transform="scale(0.015625)"/>
        <path id="DejaVuSans-68" d="M 3513 2113 
L 3513 0 
L 2938 0 
L 2938 2094 
Q 2938 2591 2744 2837 
Q 2550 3084 2163 3084 
Q 1697 3084 1428 2787 
Q 1159 2491 1159 1978 
L 1159 0 
L 581 0 
L 581 4863 
L 1159 4863 
L 1159 2956 
Q 1366 3272 1645 3428 
Q 1925 3584 2291 3584 
Q 2894 3584 3203 3211 
Q 3513 2838 3513 2113 
z
" transform="scale(0.015625)"/>
        <path id="DejaVuSans-67" d="M 2906 1791 
Q 2906 2416 2648 2759 
Q 2391 3103 1925 3103 
Q 1463 3103 1205 2759 
Q 947 2416 947 1791 
Q 947 1169 1205 825 
Q 1463 481 1925 481 
Q 2391 481 2648 825 
Q 2906 1169 2906 1791 
z
M 3481 434 
Q 3481 -459 3084 -895 
Q 2688 -1331 1869 -1331 
Q 1566 -1331 1297 -1286 
Q 1028 -1241 775 -1147 
L 775 -588 
Q 1028 -725 1275 -790 
Q 1522 -856 1778 -856 
Q 2344 -856 2625 -561 
Q 2906 -266 2906 331 
L 2906 616 
Q 2728 306 2450 153 
Q 2172 0 1784 0 
Q 1141 0 747 490 
Q 353 981 353 1791 
Q 353 2603 747 3093 
Q 1141 3584 1784 3584 
Q 2172 3584 2450 3431 
Q 2728 3278 2906 2969 
L 2906 3500 
L 3481 3500 
L 3481 434 
z
" transform="scale(0.015625)"/>
        <path id="DejaVuSans-61" d="M 2194 1759 
Q 1497 1759 1228 1600 
Q 959 1441 959 1056 
Q 959 750 1161 570 
Q 1363 391 1709 391 
Q 2188 391 2477 730 
Q 2766 1069 2766 1631 
L 2766 1759 
L 2194 1759 
z
M 3341 1997 
L 3341 0 
L 2766 0 
L 2766 531 
Q 2569 213 2275 61 
Q 1981 -91 1556 -91 
Q 1019 -91 701 211 
Q 384 513 384 1019 
Q 384 1609 779 1909 
Q 1175 2209 1959 2209 
L 2766 2209 
L 2766 2266 
Q 2766 2663 2505 2880 
Q 2244 3097 1772 3097 
Q 1472 3097 1187 3025 
Q 903 2953 641 2809 
L 641 3341 
Q 956 3463 1253 3523 
Q 1550 3584 1831 3584 
Q 2591 3584 2966 3190 
Q 3341 2797 3341 1997 
z
" transform="scale(0.015625)"/>
        <path id="DejaVuSans-6e" d="M 3513 2113 
L 3513 0 
L 2938 0 
L 2938 2094 
Q 2938 2591 2744 2837 
Q 2550 3084 2163 3084 
Q 1697 3084 1428 2787 
Q 1159 2491 1159 1978 
L 1159 0 
L 581 0 
L 581 3500 
L 1159 3500 
L 1159 2956 
Q 1366 3272 1645 3428 
Q 1925 3584 2291 3584 
Q 2894 3584 3203 3211 
Q 3513 2838 3513 2113 
z
" transform="scale(0.015625)"/>
       </defs>
       <use xlink:href="#DejaVuSans-4d"/>
       <use xlink:href="#DejaVuSans-74" transform="translate(86.279297 0)"/>
       <use xlink:href="#DejaVuSans-2e" transform="translate(125.488281 0)"/>
       <use xlink:href="#DejaVuSans-20" transform="translate(157.275391 0)"/>
       <use xlink:href="#DejaVuSans-48" transform="translate(189.0625 0)"/>
       <use xlink:href="#DejaVuSans-6f" transform="translate(264.257812 0)"/>
       <use xlink:href="#DejaVuSans-6c" transform="translate(325.439453 0)"/>
       <use xlink:href="#DejaVuSans-6c" transform="translate(353.222656 0)"/>
       <use xlink:href="#DejaVuSans-79" transform="translate(381.005859 0)"/>
       <use xlink:href="#DejaVuSans-2c" transform="translate(440.185547 0)"/>
       <use xlink:href="#DejaVuSans-20" transform="translate(471.972656 0)"/>
       <use xlink:href="#DejaVuSans-4d" transform="translate(503.759766 0)"/>
       <use xlink:href="#DejaVuSans-69" transform="translate(590.039062 0)"/>
       <use xlink:href="#DejaVuSans-63" transform="translate(617.822266 0)"/>
       <use xlink:href="#DejaVuSans-68" transform="translate(672.802734 0)"/>
       <use xlink:href="#DejaVuSans-69" transform="translate(736.181641 0)"/>
       <use xlink:href="#DejaVuSans-67" transform="translate(763.964844 0)"/>
       <use xlink:href="#DejaVuSans-61" transform="translate(827.441406 0)"/>
       <use xlink:href="#DejaVuSans-6e" transform="translate(888.720703 0)"/>
      </g>
     </g>
    </g>
    <g id="ytick_2">
     <g id="line2d_2">
      <g>
       <use xlink:href="#mb4e508a317" x="307.915" y="328.624271" style="fill: #333333; stroke: #333333; stroke-width: 0.8"/>
      </g>
     </g>
     <g id="text_2">
      <!-- Pine Knob, Michigan -->
      <g style="fill: #333333" transform="translate(139.6275 334.703021) scale(0.16 -0.16)">
       <defs>
        <path id="DejaVuSans-50" d="M 1259 4147 
L 1259 2394 
L 2053 2394 
Q 2494 2394 2734 2622 
Q 2975 2850 2975 3272 
Q 2975 3691 2734 3919 
Q 2494 4147 2053 4147 
L 1259 4147 
z
M 628 4666 
L 2053 4666 
Q 2838 4666 3239 4311 
Q 3641 3956 3641 3272 
Q 3641 2581 3239 2228 
Q 2838 1875 2053 1875 
L 1259 1875 
L 1259 0 
L 628 0 
L 628 4666 
z
" transform="scale(0.015625)"/>
        <path id="DejaVuSans-65" d="M 3597 1894 
L 3597 1613 
L 953 1613 
Q 991 1019 1311 708 
Q 1631 397 2203 397 
Q 2534 397 2845 478 
Q 3156 559 3463 722 
L 3463 178 
Q 3153 47 2828 -22 
Q 2503 -91 2169 -91 
Q 1331 -91 842 396 
Q 353 884 353 1716 
Q 353 2575 817 3079 
Q 1281 3584 2069 3584 
Q 2775 3584 3186 3129 
Q 3597 2675 3597 1894 
z
M 3022 2063 
Q 3016 2534 2758 2815 
Q 2500 3097 2075 3097 
Q 1594 3097 1305 2825 
Q 1016 2553 972 2059 
L 3022 2063 
z
" transform="scale(0.015625)"/>
        <path id="DejaVuSans-4b" d="M 628 4666 
L 1259 4666 
L 1259 2694 
L 3353 4666 
L 4166 4666 
L 1850 2491 
L 4331 0 
L 3500 0 
L 1259 2247 
L 1259 0 
L 628 0 
L 628 4666 
z
" transform="scale(0.015625)"/>
        <path id="DejaVuSans-62" d="M 3116 1747 
Q 3116 2381 2855 2742 
Q 2594 3103 2138 3103 
Q 1681 3103 1420 2742 
Q 1159 2381 1159 1747 
Q 1159 1113 1420 752 
Q 1681 391 2138 391 
Q 2594 391 2855 752 
Q 3116 1113 3116 1747 
z
M 1159 2969 
Q 1341 3281 1617 3432 
Q 1894 3584 2278 3584 
Q 2916 3584 3314 3078 
Q 3713 2572 3713 1747 
Q 3713 922 3314 415 
Q 2916 -91 2278 -91 
Q 1894 -91 1617 61 
Q 1341 213 1159 525 
L 1159 0 
L 581 0 
L 581 4863 
L 1159 4863 
L 1159 2969 
z
" transform="scale(0.015625)"/>
       </defs>
       <use xlink:href="#DejaVuSans-50"/>
       <use xlink:href="#DejaVuSans-69" transform="translate(58.052734 0)"/>
       <use xlink:href="#DejaVuSans-6e" transform="translate(85.835938 0)"/>
       <use xlink:href="#DejaVuSans-65" transform="translate(149.214844 0)"/>
       <use xlink:href="#DejaVuSans-20" transform="translate(210.738281 0)"/>
       <use xlink:href="#DejaVuSans-4b" transform="translate(242.525391 0)"/>
       <use xlink:href="#DejaVuSans-6e" transform="translate(308.101562 0)"/>
       <use xlink:href="#DejaVuSans-6f" transform="translate(371.480469 0)"/>
       <use xlink:href="#DejaVuSans-62" transform="translate(432.662109 0)"/>
       <use xlink:href="#DejaVuSans-2c" transform="translate(496.138672 0)"/>
       <use xlink:href="#DejaVuSans-20" transform="translate(527.925781 0)"/>
       <use xlink:href="#DejaVuSans-4d" transform="translate(559.712891 0)"/>
       <use xlink:href="#DejaVuSans-69" transform="translate(645.992188 0)"/>
       <use xlink:href="#DejaVuSans-63" transform="translate(673.775391 0)"/>
       <use xlink:href="#DejaVuSans-68" transform="translate(728.755859 0)"/>
       <use xlink:href="#DejaVuSans-69" transform="translate(792.134766 0)"/>
       <use xlink:href="#DejaVuSans-67" transform="translate(819.917969 0)"/>
       <use xlink:href="#DejaVuSans-61" transform="translate(883.394531 0)"/>
       <use xlink:href="#DejaVuSans-6e" transform="translate(944.673828 0)"/>
      </g>
     </g>
    </g>
    <g id="ytick_3">
     <g id="line2d_3">
      <g>
       <use xlink:href="#mb4e508a317" x="307.915" y="299.908872" style="fill: #333333; stroke: #333333; stroke-width: 0.8"/>
      </g>
     </g>
     <g id="text_3">
      <!-- Alpine Valley (Wisconsin), Wisconsin -->
      <g style="fill: #333333" transform="translate(10.6225 305.987622) scale(0.16 -0.16)">
       <defs>
        <path id="DejaVuSans-41" d="M 2188 4044 
L 1331 1722 
L 3047 1722 
L 2188 4044 
z
M 1831 4666 
L 2547 4666 
L 4325 0 
L 3669 0 
L 3244 1197 
L 1141 1197 
L 716 0 
L 50 0 
L 1831 4666 
z
" transform="scale(0.015625)"/>
        <path id="DejaVuSans-70" d="M 1159 525 
L 1159 -1331 
L 581 -1331 
L 581 3500 
L 1159 3500 
L 1159 2969 
Q 1341 3281 1617 3432 
Q 1894 3584 2278 3584 
Q 2916 3584 3314 3078 
Q 3713 2572 3713 1747 
Q 3713 922 3314 415 
Q 2916 -91 2278 -91 
Q 1894 -91 1617 61 
Q 1341 213 1159 525 
z
M 3116 1747 
Q 3116 2381 2855 2742 
Q 2594 3103 2138 3103 
Q 1681 3103 1420 2742 
Q 1159 2381 1159 1747 
Q 1159 1113 1420 752 
Q 1681 391 2138 391 
Q 2594 391 2855 752 
Q 3116 1113 3116 1747 
z
" transform="scale(0.015625)"/>
        <path id="DejaVuSans-56" d="M 1831 0 
L 50 4666 
L 709 4666 
L 2188 738 
L 3669 4666 
L 4325 4666 
L 2547 0 
L 1831 0 
z
" transform="scale(0.015625)"/>
        <path id="DejaVuSans-28" d="M 1984 4856 
Q 1566 4138 1362 3434 
Q 1159 2731 1159 2009 
Q 1159 1288 1364 580 
Q 1569 -128 1984 -844 
L 1484 -844 
Q 1016 -109 783 600 
Q 550 1309 550 2009 
Q 550 2706 781 3412 
Q 1013 4119 1484 4856 
L 1984 4856 
z
" transform="scale(0.015625)"/>
        <path id="DejaVuSans-57" d="M 213 4666 
L 850 4666 
L 1831 722 
L 2809 4666 
L 3519 4666 
L 4500 722 
L 5478 4666 
L 6119 4666 
L 4947 0 
L 4153 0 
L 3169 4050 
L 2175 0 
L 1381 0 
L 213 4666 
z
" transform="scale(0.015625)"/>
        <path id="DejaVuSans-73" d="M 2834 3397 
L 2834 2853 
Q 2591 2978 2328 3040 
Q 2066 3103 1784 3103 
Q 1356 3103 1142 2972 
Q 928 2841 928 2578 
Q 928 2378 1081 2264 
Q 1234 2150 1697 2047 
L 1894 2003 
Q 2506 1872 2764 1633 
Q 3022 1394 3022 966 
Q 3022 478 2636 193 
Q 2250 -91 1575 -91 
Q 1294 -91 989 -36 
Q 684 19 347 128 
L 347 722 
Q 666 556 975 473 
Q 1284 391 1588 391 
Q 1994 391 2212 530 
Q 2431 669 2431 922 
Q 2431 1156 2273 1281 
Q 2116 1406 1581 1522 
L 1381 1569 
Q 847 1681 609 1914 
Q 372 2147 372 2553 
Q 372 3047 722 3315 
Q 1072 3584 1716 3584 
Q 2034 3584 2315 3537 
Q 2597 3491 2834 3397 
z
" transform="scale(0.015625)"/>
        <path id="DejaVuSans-29" d="M 513 4856 
L 1013 4856 
Q 1481 4119 1714 3412 
Q 1947 2706 1947 2009 
Q 1947 1309 1714 600 
Q 1481 -109 1013 -844 
L 513 -844 
Q 928 -128 1133 580 
Q 1338 1288 1338 2009 
Q 1338 2731 1133 3434 
Q 928 4138 513 4856 
z
" transform="scale(0.015625)"/>
       </defs>
       <use xlink:href="#DejaVuSans-41"/>
       <use xlink:href="#DejaVuSans-6c" transform="translate(68.408203 0)"/>
       <use xlink:href="#DejaVuSans-70" transform="translate(96.191406 0)"/>
       <use xlink:href="#DejaVuSans-69" transform="translate(159.667969 0)"/>
       <use xlink:href="#DejaVuSans-6e" transform="translate(187.451172 0)"/>
       <use xlink:href="#DejaVuSans-65" transform="translate(250.830078 0)"/>
       <use xlink:href="#DejaVuSans-20" transform="translate(312.353516 0)"/>
       <use xlink:href="#DejaVuSans-56" transform="translate(344.140625 0)"/>
       <use xlink:href="#DejaVuSans-61" transform="translate(404.798828 0)"/>
       <use xlink:href="#DejaVuSans-6c" transform="translate(466.078125 0)"/>
       <use xlink:href="#DejaVuSans-6c" transform="translate(493.861328 0)"/>
       <use xlink:href="#DejaVuSans-65" transform="translate(521.644531 0)"/>
       <use xlink:href="#DejaVuSans-79" transform="translate(583.167969 0)"/>
       <use xlink:href="#DejaVuSans-20" transform="translate(642.347656 0)"/>
       <use xlink:href="#DejaVuSans-28" transform="translate(674.134766 0)"/>
       <use xlink:href="#DejaVuSans-57" transform="translate(713.148438 0)"/>
       <use xlink:href="#DejaVuSans-69" transform="translate(809.775391 0)"/>
       <use xlink:href="#DejaVuSans-73" transform="translate(837.558594 0)"/>
       <use xlink:href="#DejaVuSans-63" transform="translate(889.658203 0)"/>
       <use xlink:href="#DejaVuSans-6f" transform="translate(944.638672 0)"/>
       <use xlink:href="#DejaVuSans-6e" transform="translate(1005.820312 0)"/>
       <use xlink:href="#DejaVuSans-73" transform="translate(1069.199219 0)"/>
       <use xlink:href="#DejaVuSans-69" transform="translate(1121.298828 0)"/>
       <use xlink:href="#DejaVuSans-6e" transform="translate(1149.082031 0)"/>
       <use xlink:href="#DejaVuSans-29" transform="translate(1212.460938 0)"/>
       <use xlink:href="#DejaVuSans-2c" transform="translate(1251.474609 0)"/>
       <use xlink:href="#DejaVuSans-20" transform="translate(1283.261719 0)"/>
       <use xlink:href="#DejaVuSans-57" transform="translate(1315.048828 0)"/>
       <use xlink:href="#DejaVuSans-69" transform="translate(1411.675781 0)"/>
       <use xlink:href="#DejaVuSans-73" transform="translate(1439.458984 0)"/>
       <use xlink:href="#DejaVuSans-63" transform="translate(1491.558594 0)"/>
       <use xlink:href="#DejaVuSans-6f" transform="translate(1546.539062 0)"/>
       <use xlink:href="#DejaVuSans-6e" transform="translate(1607.720703 0)"/>
       <use xlink:href="#DejaVuSans-73" transform="translate(1671.099609 0)"/>
       <use xlink:href="#DejaVuSans-69" transform="translate(1723.199219 0)"/>
       <use xlink:href="#DejaVuSans-6e" transform="translate(1750.982422 0)"/>
      </g>
     </g>
    </g>
    <g id="ytick_4">
     <g id="line2d_4">
      <g>
       <use xlink:href="#mb4e508a317" x="307.915" y="271.193473" style="fill: #333333; stroke: #333333; stroke-width: 0.8"/>
      </g>
     </g>
     <g id="text_4">
      <!-- Keyes Peak, Wisconsin -->
      <g style="fill: #333333" transform="translate(120.6025 277.272223) scale(0.16 -0.16)">
       <defs>
        <path id="DejaVuSans-6b" d="M 581 4863 
L 1159 4863 
L 1159 1991 
L 2875 3500 
L 3609 3500 
L 1753 1863 
L 3688 0 
L 2938 0 
L 1159 1709 
L 1159 0 
L 581 0 
L 581 4863 
z
" transform="scale(0.015625)"/>
       </defs>
       <use xlink:href="#DejaVuSans-4b"/>
       <use xlink:href="#DejaVuSans-65" transform="translate(60.576172 0)"/>
       <use xlink:href="#DejaVuSans-79" transform="translate(122.099609 0)"/>
       <use xlink:href="#DejaVuSans-65" transform="translate(181.279297 0)"/>
       <use xlink:href="#DejaVuSans-73" transform="translate(242.802734 0)"/>
       <use xlink:href="#DejaVuSans-20" transform="translate(294.902344 0)"/>
       <use xlink:href="#DejaVuSans-50" transform="translate(326.689453 0)"/>
       <use xlink:href="#DejaVuSans-65" transform="translate(383.367188 0)"/>
       <use xlink:href="#DejaVuSans-61" transform="translate(444.890625 0)"/>
       <use xlink:href="#DejaVuSans-6b" transform="translate(506.169922 0)"/>
       <use xlink:href="#DejaVuSans-2c" transform="translate(564.080078 0)"/>
       <use xlink:href="#DejaVuSans-20" transform="translate(595.867188 0)"/>
       <use xlink:href="#DejaVuSans-57" transform="translate(627.654297 0)"/>
       <use xlink:href="#DejaVuSans-69" transform="translate(724.28125 0)"/>
       <use xlink:href="#DejaVuSans-73" transform="translate(752.064453 0)"/>
       <use xlink:href="#DejaVuSans-63" transform="translate(804.164062 0)"/>
       <use xlink:href="#DejaVuSans-6f" transform="translate(859.144531 0)"/>
       <use xlink:href="#DejaVuSans-6e" transform="translate(920.326172 0)"/>
       <use xlink:href="#DejaVuSans-73" transform="translate(983.705078 0)"/>
       <use xlink:href="#DejaVuSans-69" transform="translate(1035.804688 0)"/>
       <use xlink:href="#DejaVuSans-6e" transform="translate(1063.587891 0)"/>
      </g>
     </g>
    </g>
    <g id="ytick_5">
     <g id="line2d_5">
      <g>
       <use xlink:href="#mb4e508a317" x="307.915" y="242.478074" style="fill: #333333; stroke: #333333; stroke-width: 0.8"/>
      </g>
     </g>
     <g id="text_5">
      <!-- Missaukee Mountain, Michigan -->
      <g style="fill: #333333" transform="translate(56.1475 248.556824) scale(0.16 -0.16)">
       <defs>
        <path id="DejaVuSans-75" d="M 544 1381 
L 544 3500 
L 1119 3500 
L 1119 1403 
Q 1119 906 1312 657 
Q 1506 409 1894 409 
Q 2359 409 2629 706 
Q 2900 1003 2900 1516 
L 2900 3500 
L 3475 3500 
L 3475 0 
L 2900 0 
L 2900 538 
Q 2691 219 2414 64 
Q 2138 -91 1772 -91 
Q 1169 -91 856 284 
Q 544 659 544 1381 
z
M 1991 3584 
L 1991 3584 
z
" transform="scale(0.015625)"/>
       </defs>
       <use xlink:href="#DejaVuSans-4d"/>
       <use xlink:href="#DejaVuSans-69" transform="translate(86.279297 0)"/>
       <use xlink:href="#DejaVuSans-73" transform="translate(114.0625 0)"/>
       <use xlink:href="#DejaVuSans-73" transform="translate(166.162109 0)"/>
       <use xlink:href="#DejaVuSans-61" transform="translate(218.261719 0)"/>
       <use xlink:href="#DejaVuSans-75" transform="translate(279.541016 0)"/>
       <use xlink:href="#DejaVuSans-6b" transform="translate(342.919922 0)"/>
       <use xlink:href="#DejaVuSans-65" transform="translate(397.205078 0)"/>
       <use xlink:href="#DejaVuSans-65" transform="translate(458.728516 0)"/>
       <use xlink:href="#DejaVuSans-20" transform="translate(520.251953 0)"/>
       <use xlink:href="#DejaVuSans-4d" transform="translate(552.039062 0)"/>
       <use xlink:href="#DejaVuSans-6f" transform="translate(638.318359 0)"/>
       <use xlink:href="#DejaVuSans-75" transform="translate(699.5 0)"/>
       <use xlink:href="#DejaVuSans-6e" transform="translate(762.878906 0)"/>
       <use xlink:href="#DejaVuSans-74" transform="translate(826.257812 0)"/>
       <use xlink:href="#DejaVuSans-61" transform="translate(865.466797 0)"/>
       <use xlink:href="#DejaVuSans-69" transform="translate(926.746094 0)"/>
       <use xlink:href="#DejaVuSans-6e" transform="translate(954.529297 0)"/>
       <use xlink:href="#DejaVuSans-2c" transform="translate(1017.908203 0)"/>
       <use xlink:href="#DejaVuSans-20" transform="translate(1049.695312 0)"/>
       <use xlink:href="#DejaVuSans-4d" transform="translate(1081.482422 0)"/>
       <use xlink:href="#DejaVuSans-69" transform="translate(1167.761719 0)"/>
       <use xlink:href="#DejaVuSans-63" transform="translate(1195.544922 0)"/>
       <use xlink:href="#DejaVuSans-68" transform="translate(1250.525391 0)"/>
       <use xlink:href="#DejaVuSans-69" transform="translate(1313.904297 0)"/>
       <use xlink:href="#DejaVuSans-67" transform="translate(1341.6875 0)"/>
       <use xlink:href="#DejaVuSans-61" transform="translate(1405.164062 0)"/>
       <use xlink:href="#DejaVuSans-6e" transform="translate(1466.443359 0)"/>
      </g>
     </g>
    </g>
    <g id="ytick_6">
     <g id="line2d_6">
      <g>
       <use xlink:href="#mb4e508a317" x="307.915" y="213.762676" style="fill: #333333; stroke: #333333; stroke-width: 0.8"/>
      </g>
     </g>
     <g id="text_6">
      <!-- Afton Alps, Minnesota -->
      <g style="fill: #333333" transform="translate(127.28 219.841426) scale(0.16 -0.16)">
       <defs>
        <path id="DejaVuSans-66" d="M 2375 4863 
L 2375 4384 
L 1825 4384 
Q 1516 4384 1395 4259 
Q 1275 4134 1275 3809 
L 1275 3500 
L 2222 3500 
L 2222 3053 
L 1275 3053 
L 1275 0 
L 697 0 
L 697 3053 
L 147 3053 
L 147 3500 
L 697 3500 
L 697 3744 
Q 697 4328 969 4595 
Q 1241 4863 1831 4863 
L 2375 4863 
z
" transform="scale(0.015625)"/>
       </defs>
       <use xlink:href="#DejaVuSans-41"/>
       <use xlink:href="#DejaVuSans-66" transform="translate(64.783203 0)"/>
       <use xlink:href="#DejaVuSans-74" transform="translate(98.238281 0)"/>
       <use xlink:href="#DejaVuSans-6f" transform="translate(137.447266 0)"/>
       <use xlink:href="#DejaVuSans-6e" transform="translate(198.628906 0)"/>
       <use xlink:href="#DejaVuSans-20" transform="translate(262.007812 0)"/>
       <use xlink:href="#DejaVuSans-41" transform="translate(293.794922 0)"/>
       <use xlink:href="#DejaVuSans-6c" transform="translate(362.203125 0)"/>
       <use xlink:href="#DejaVuSans-70" transform="translate(389.986328 0)"/>
       <use xlink:href="#DejaVuSans-73" transform="translate(453.462891 0)"/>
       <use xlink:href="#DejaVuSans-2c" transform="translate(505.5625 0)"/>
       <use xlink:href="#DejaVuSans-20" transform="translate(537.349609 0)"/>
       <use xlink:href="#DejaVuSans-4d" transform="translate(569.136719 0)"/>
       <use xlink:href="#DejaVuSans-69" transform="translate(655.416016 0)"/>
       <use xlink:href="#DejaVuSans-6e" transform="translate(683.199219 0)"/>
       <use xlink:href="#DejaVuSans-6e" transform="translate(746.578125 0)"/>
       <use xlink:href="#DejaVuSans-65" transform="translate(809.957031 0)"/>
       <use xlink:href="#DejaVuSans-73" transform="translate(871.480469 0)"/>
       <use xlink:href="#DejaVuSans-6f" transform="translate(923.580078 0)"/>
       <use xlink:href="#DejaVuSans-74" transform="translate(984.761719 0)"/>
       <use xlink:href="#DejaVuSans-61" transform="translate(1023.970703 0)"/>
      </g>
     </g>
    </g>
    <g id="ytick_7">
     <g id="line2d_7">
      <g>
       <use xlink:href="#mb4e508a317" x="307.915" y="185.047277" style="fill: #333333; stroke: #333333; stroke-width: 0.8"/>
      </g>
     </g>
     <g id="text_7">
      <!-- Bruce Mound, Wisconsin -->
      <g style="fill: #333333" transform="translate(105.4025 191.126027) scale(0.16 -0.16)">
       <defs>
        <path id="DejaVuSans-42" d="M 1259 2228 
L 1259 519 
L 2272 519 
Q 2781 519 3026 730 
Q 3272 941 3272 1375 
Q 3272 1813 3026 2020 
Q 2781 2228 2272 2228 
L 1259 2228 
z
M 1259 4147 
L 1259 2741 
L 2194 2741 
Q 2656 2741 2882 2914 
Q 3109 3088 3109 3444 
Q 3109 3797 2882 3972 
Q 2656 4147 2194 4147 
L 1259 4147 
z
M 628 4666 
L 2241 4666 
Q 2963 4666 3353 4366 
Q 3744 4066 3744 3513 
Q 3744 3084 3544 2831 
Q 3344 2578 2956 2516 
Q 3422 2416 3680 2098 
Q 3938 1781 3938 1306 
Q 3938 681 3513 340 
Q 3088 0 2303 0 
L 628 0 
L 628 4666 
z
" transform="scale(0.015625)"/>
        <path id="DejaVuSans-72" d="M 2631 2963 
Q 2534 3019 2420 3045 
Q 2306 3072 2169 3072 
Q 1681 3072 1420 2755 
Q 1159 2438 1159 1844 
L 1159 0 
L 581 0 
L 581 3500 
L 1159 3500 
L 1159 2956 
Q 1341 3275 1631 3429 
Q 1922 3584 2338 3584 
Q 2397 3584 2469 3576 
Q 2541 3569 2628 3553 
L 2631 2963 
z
" transform="scale(0.015625)"/>
        <path id="DejaVuSans-64" d="M 2906 2969 
L 2906 4863 
L 3481 4863 
L 3481 0 
L 2906 0 
L 2906 525 
Q 2725 213 2448 61 
Q 2172 -91 1784 -91 
Q 1150 -91 751 415 
Q 353 922 353 1747 
Q 353 2572 751 3078 
Q 1150 3584 1784 3584 
Q 2172 3584 2448 3432 
Q 2725 3281 2906 2969 
z
M 947 1747 
Q 947 1113 1208 752 
Q 1469 391 1925 391 
Q 2381 391 2643 752 
Q 2906 1113 2906 1747 
Q 2906 2381 2643 2742 
Q 2381 3103 1925 3103 
Q 1469 3103 1208 2742 
Q 947 2381 947 1747 
z
" transform="scale(0.015625)"/>
       </defs>
       <use xlink:href="#DejaVuSans-42"/>
       <use xlink:href="#DejaVuSans-72" transform="translate(68.603516 0)"/>
       <use xlink:href="#DejaVuSans-75" transform="translate(109.716797 0)"/>
       <use xlink:href="#DejaVuSans-63" transform="translate(173.095703 0)"/>
       <use xlink:href="#DejaVuSans-65" transform="translate(228.076172 0)"/>
       <use xlink:href="#DejaVuSans-20" transform="translate(289.599609 0)"/>
       <use xlink:href="#DejaVuSans-4d" transform="translate(321.386719 0)"/>
       <use xlink:href="#DejaVuSans-6f" transform="translate(407.666016 0)"/>
       <use xlink:href="#DejaVuSans-75" transform="translate(468.847656 0)"/>
       <use xlink:href="#DejaVuSans-6e" transform="translate(532.226562 0)"/>
       <use xlink:href="#DejaVuSans-64" transform="translate(595.605469 0)"/>
       <use xlink:href="#DejaVuSans-2c" transform="translate(659.082031 0)"/>
       <use xlink:href="#DejaVuSans-20" transform="translate(690.869141 0)"/>
       <use xlink:href="#DejaVuSans-57" transform="translate(722.65625 0)"/>
       <use xlink:href="#DejaVuSans-69" transform="translate(819.283203 0)"/>
       <use xlink:href="#DejaVuSans-73" transform="translate(847.066406 0)"/>
       <use xlink:href="#DejaVuSans-63" transform="translate(899.166016 0)"/>
       <use xlink:href="#DejaVuSans-6f" transform="translate(954.146484 0)"/>
       <use xlink:href="#DejaVuSans-6e" transform="translate(1015.328125 0)"/>
       <use xlink:href="#DejaVuSans-73" transform="translate(1078.707031 0)"/>
       <use xlink:href="#DejaVuSans-69" transform="translate(1130.806641 0)"/>
       <use xlink:href="#DejaVuSans-6e" transform="translate(1158.589844 0)"/>
      </g>
     </g>
    </g>
    <g id="ytick_8">
     <g id="line2d_8">
      <g>
       <use xlink:href="#mb4e508a317" x="307.915" y="156.331878" style="fill: #333333; stroke: #333333; stroke-width: 0.8"/>
      </g>
     </g>
     <g id="text_8">
      <!-- Mulligan’s Hollow Ski Bowl, Michigan -->
      <g style="fill: #333333" transform="translate(7.2 162.410628) scale(0.16 -0.16)">
       <defs>
        <path id="DejaVuSans-2019" d="M 813 4666 
L 1472 4666 
L 1472 4191 
L 959 3194 
L 556 3194 
L 813 4191 
L 813 4666 
z
" transform="scale(0.015625)"/>
        <path id="DejaVuSans-77" d="M 269 3500 
L 844 3500 
L 1563 769 
L 2278 3500 
L 2956 3500 
L 3675 769 
L 4391 3500 
L 4966 3500 
L 4050 0 
L 3372 0 
L 2619 2869 
L 1863 0 
L 1184 0 
L 269 3500 
z
" transform="scale(0.015625)"/>
        <path id="DejaVuSans-53" d="M 3425 4513 
L 3425 3897 
Q 3066 4069 2747 4153 
Q 2428 4238 2131 4238 
Q 1616 4238 1336 4038 
Q 1056 3838 1056 3469 
Q 1056 3159 1242 3001 
Q 1428 2844 1947 2747 
L 2328 2669 
Q 3034 2534 3370 2195 
Q 3706 1856 3706 1288 
Q 3706 609 3251 259 
Q 2797 -91 1919 -91 
Q 1588 -91 1214 -16 
Q 841 59 441 206 
L 441 856 
Q 825 641 1194 531 
Q 1563 422 1919 422 
Q 2459 422 2753 634 
Q 3047 847 3047 1241 
Q 3047 1584 2836 1778 
Q 2625 1972 2144 2069 
L 1759 2144 
Q 1053 2284 737 2584 
Q 422 2884 422 3419 
Q 422 4038 858 4394 
Q 1294 4750 2059 4750 
Q 2388 4750 2728 4690 
Q 3069 4631 3425 4513 
z
" transform="scale(0.015625)"/>
       </defs>
       <use xlink:href="#DejaVuSans-4d"/>
       <use xlink:href="#DejaVuSans-75" transform="translate(86.279297 0)"/>
       <use xlink:href="#DejaVuSans-6c" transform="translate(149.658203 0)"/>
       <use xlink:href="#DejaVuSans-6c" transform="translate(177.441406 0)"/>
       <use xlink:href="#DejaVuSans-69" transform="translate(205.224609 0)"/>
       <use xlink:href="#DejaVuSans-67" transform="translate(233.007812 0)"/>
       <use xlink:href="#DejaVuSans-61" transform="translate(296.484375 0)"/>
       <use xlink:href="#DejaVuSans-6e" transform="translate(357.763672 0)"/>
       <use xlink:href="#DejaVuSans-2019" transform="translate(421.142578 0)"/>
       <use xlink:href="#DejaVuSans-73" transform="translate(452.929688 0)"/>
       <use xlink:href="#DejaVuSans-20" transform="translate(505.029297 0)"/>
       <use xlink:href="#DejaVuSans-48" transform="translate(536.816406 0)"/>
       <use xlink:href="#DejaVuSans-6f" transform="translate(612.011719 0)"/>
       <use xlink:href="#DejaVuSans-6c" transform="translate(673.193359 0)"/>
       <use xlink:href="#DejaVuSans-6c" transform="translate(700.976562 0)"/>
       <use xlink:href="#DejaVuSans-6f" transform="translate(728.759766 0)"/>
       <use xlink:href="#DejaVuSans-77" transform="translate(789.941406 0)"/>
       <use xlink:href="#DejaVuSans-20" transform="translate(871.728516 0)"/>
       <use xlink:href="#DejaVuSans-53" transform="translate(903.515625 0)"/>
       <use xlink:href="#DejaVuSans-6b" transform="translate(966.992188 0)"/>
       <use xlink:href="#DejaVuSans-69" transform="translate(1024.902344 0)"/>
       <use xlink:href="#DejaVuSans-20" transform="translate(1052.685547 0)"/>
       <use xlink:href="#DejaVuSans-42" transform="translate(1084.472656 0)"/>
       <use xlink:href="#DejaVuSans-6f" transform="translate(1153.076172 0)"/>
       <use xlink:href="#DejaVuSans-77" transform="translate(1214.257812 0)"/>
       <use xlink:href="#DejaVuSans-6c" transform="translate(1296.044922 0)"/>
       <use xlink:href="#DejaVuSans-2c" transform="translate(1323.828125 0)"/>
       <use xlink:href="#DejaVuSans-20" transform="translate(1355.615234 0)"/>
       <use xlink:href="#DejaVuSans-4d" transform="translate(1387.402344 0)"/>
       <use xlink:href="#DejaVuSans-69" transform="translate(1473.681641 0)"/>
       <use xlink:href="#DejaVuSans-63" transform="translate(1501.464844 0)"/>
       <use xlink:href="#DejaVuSans-68" transform="translate(1556.445312 0)"/>
       <use xlink:href="#DejaVuSans-69" transform="translate(1619.824219 0)"/>
       <use xlink:href="#DejaVuSans-67" transform="translate(1647.607422 0)"/>
       <use xlink:href="#DejaVuSans-61" transform="translate(1711.083984 0)"/>
       <use xlink:href="#DejaVuSans-6e" transform="translate(1772.363281 0)"/>
      </g>
     </g>
    </g>
    <g id="ytick_9">
     <g id="line2d_9">
      <g>
       <use xlink:href="#mb4e508a317" x="307.915" y="127.616479" style="fill: #333333; stroke: #333333; stroke-width: 0.8"/>
      </g>
     </g>
     <g id="text_9">
      <!-- Four Lakes, Illinois -->
      <g style="fill: #333333" transform="translate(154.18 133.695229) scale(0.16 -0.16)">
       <defs>
        <path id="DejaVuSans-46" d="M 628 4666 
L 3309 4666 
L 3309 4134 
L 1259 4134 
L 1259 2759 
L 3109 2759 
L 3109 2228 
L 1259 2228 
L 1259 0 
L 628 0 
L 628 4666 
z
" transform="scale(0.015625)"/>
        <path id="DejaVuSans-4c" d="M 628 4666 
L 1259 4666 
L 1259 531 
L 3531 531 
L 3531 0 
L 628 0 
L 628 4666 
z
" transform="scale(0.015625)"/>
        <path id="DejaVuSans-49" d="M 628 4666 
L 1259 4666 
L 1259 0 
L 628 0 
L 628 4666 
z
" transform="scale(0.015625)"/>
       </defs>
       <use xlink:href="#DejaVuSans-46"/>
       <use xlink:href="#DejaVuSans-6f" transform="translate(53.894531 0)"/>
       <use xlink:href="#DejaVuSans-75" transform="translate(115.076172 0)"/>
       <use xlink:href="#DejaVuSans-72" transform="translate(178.455078 0)"/>
       <use xlink:href="#DejaVuSans-20" transform="translate(219.568359 0)"/>
       <use xlink:href="#DejaVuSans-4c" transform="translate(251.355469 0)"/>
       <use xlink:href="#DejaVuSans-61" transform="translate(307.068359 0)"/>
       <use xlink:href="#DejaVuSans-6b" transform="translate(368.347656 0)"/>
       <use xlink:href="#DejaVuSans-65" transform="translate(422.632812 0)"/>
       <use xlink:href="#DejaVuSans-73" transform="translate(484.15625 0)"/>
       <use xlink:href="#DejaVuSans-2c" transform="translate(536.255859 0)"/>
       <use xlink:href="#DejaVuSans-20" transform="translate(568.042969 0)"/>
       <use xlink:href="#DejaVuSans-49" transform="translate(599.830078 0)"/>
       <use xlink:href="#DejaVuSans-6c" transform="translate(629.322266 0)"/>
       <use xlink:href="#DejaVuSans-6c" transform="translate(657.105469 0)"/>
       <use xlink:href="#DejaVuSans-69" transform="translate(684.888672 0)"/>
       <use xlink:href="#DejaVuSans-6e" transform="translate(712.671875 0)"/>
       <use xlink:href="#DejaVuSans-6f" transform="translate(776.050781 0)"/>
       <use xlink:href="#DejaVuSans-69" transform="translate(837.232422 0)"/>
       <use xlink:href="#DejaVuSans-73" transform="translate(865.015625 0)"/>
      </g>
     </g>
    </g>
    <g id="ytick_10">
     <g id="line2d_10">
      <g>
       <use xlink:href="#mb4e508a317" x="307.915" y="98.90108" style="fill: #333333; stroke: #333333; stroke-width: 0.8"/>
      </g>
     </g>
     <g id="text_10">
      <!-- Badger Mountain, Washington -->
      <g style="fill: #333333" transform="translate(59.5775 104.97983) scale(0.16 -0.16)">
       <use xlink:href="#DejaVuSans-42"/>
       <use xlink:href="#DejaVuSans-61" transform="translate(68.603516 0)"/>
       <use xlink:href="#DejaVuSans-64" transform="translate(129.882812 0)"/>
       <use xlink:href="#DejaVuSans-67" transform="translate(193.359375 0)"/>
       <use xlink:href="#DejaVuSans-65" transform="translate(256.835938 0)"/>
       <use xlink:href="#DejaVuSans-72" transform="translate(318.359375 0)"/>
       <use xlink:href="#DejaVuSans-20" transform="translate(359.472656 0)"/>
       <use xlink:href="#DejaVuSans-4d" transform="translate(391.259766 0)"/>
       <use xlink:href="#DejaVuSans-6f" transform="translate(477.539062 0)"/>
       <use xlink:href="#DejaVuSans-75" transform="translate(538.720703 0)"/>
       <use xlink:href="#DejaVuSans-6e" transform="translate(602.099609 0)"/>
       <use xlink:href="#DejaVuSans-74" transform="translate(665.478516 0)"/>
       <use xlink:href="#DejaVuSans-61" transform="translate(704.6875 0)"/>
       <use xlink:href="#DejaVuSans-69" transform="translate(765.966797 0)"/>
       <use xlink:href="#DejaVuSans-6e" transform="translate(793.75 0)"/>
       <use xlink:href="#DejaVuSans-2c" transform="translate(857.128906 0)"/>
       <use xlink:href="#DejaVuSans-20" transform="translate(888.916016 0)"/>
       <use xlink:href="#DejaVuSans-57" transform="translate(920.703125 0)"/>
       <use xlink:href="#DejaVuSans-61" transform="translate(1013.205078 0)"/>
       <use xlink:href="#DejaVuSans-73" transform="translate(1074.484375 0)"/>
       <use xlink:href="#DejaVuSans-68" transform="translate(1126.583984 0)"/>
       <use xlink:href="#DejaVuSans-69" transform="translate(1189.962891 0)"/>
       <use xlink:href="#DejaVuSans-6e" transform="translate(1217.746094 0)"/>
       <use xlink:href="#DejaVuSans-67" transform="translate(1281.125 0)"/>
       <use xlink:href="#DejaVuSans-74" transform="translate(1344.601562 0)"/>
       <use xlink:href="#DejaVuSans-6f" transform="translate(1383.810547 0)"/>
       <use xlink:href="#DejaVuSans-6e" transform="translate(1444.992188 0)"/>
      </g>
     </g>
    </g>
   </g>
   <g id="line2d_11">
    <path d="M 307.915 382.896375 
L 307.915 73.344375 
" clip-path="url(#p72b50a1bc2)" style="fill: none; stroke: #000000; stroke-width: 0.8; stroke-linecap: square"/>
   </g>
   <g id="text_11">
    <!-- 0.188 -->
    <g style="fill: #333333" transform="translate(624.396795 361.75467) scale(0.16 -0.16)">
     <defs>
      <path id="DejaVuSans-30" d="M 2034 4250 
Q 1547 4250 1301 3770 
Q 1056 3291 1056 2328 
Q 1056 1369 1301 889 
Q 1547 409 2034 409 
Q 2525 409 2770 889 
Q 3016 1369 3016 2328 
Q 3016 3291 2770 3770 
Q 2525 4250 2034 4250 
z
M 2034 4750 
Q 2819 4750 3233 4129 
Q 3647 3509 3647 2328 
Q 3647 1150 3233 529 
Q 2819 -91 2034 -91 
Q 1250 -91 836 529 
Q 422 1150 422 2328 
Q 422 3509 836 4129 
Q 1250 4750 2034 4750 
z
" transform="scale(0.015625)"/>
      <path id="DejaVuSans-31" d="M 794 531 
L 1825 531 
L 1825 4091 
L 703 3866 
L 703 4441 
L 1819 4666 
L 2450 4666 
L 2450 531 
L 3481 531 
L 3481 0 
L 794 0 
L 794 531 
z
" transform="scale(0.015625)"/>
      <path id="DejaVuSans-38" d="M 2034 2216 
Q 1584 2216 1326 1975 
Q 1069 1734 1069 1313 
Q 1069 891 1326 650 
Q 1584 409 2034 409 
Q 2484 409 2743 651 
Q 3003 894 3003 1313 
Q 3003 1734 2745 1975 
Q 2488 2216 2034 2216 
z
M 1403 2484 
Q 997 2584 770 2862 
Q 544 3141 544 3541 
Q 544 4100 942 4425 
Q 1341 4750 2034 4750 
Q 2731 4750 3128 4425 
Q 3525 4100 3525 3541 
Q 3525 3141 3298 2862 
Q 3072 2584 2669 2484 
Q 3125 2378 3379 2068 
Q 3634 1759 3634 1313 
Q 3634 634 3220 271 
Q 2806 -91 2034 -91 
Q 1263 -91 848 271 
Q 434 634 434 1313 
Q 434 1759 690 2068 
Q 947 2378 1403 2484 
z
M 1172 3481 
Q 1172 3119 1398 2916 
Q 1625 2713 2034 2713 
Q 2441 2713 2670 2916 
Q 2900 3119 2900 3481 
Q 2900 3844 2670 4047 
Q 2441 4250 2034 4250 
Q 1625 4250 1398 4047 
Q 1172 3844 1172 3481 
z
" transform="scale(0.015625)"/>
     </defs>
     <use xlink:href="#DejaVuSans-30"/>
     <use xlink:href="#DejaVuSans-2e" transform="translate(63.623047 0)"/>
     <use xlink:href="#DejaVuSans-31" transform="translate(95.410156 0)"/>
     <use xlink:href="#DejaVuSans-38" transform="translate(159.033203 0)"/>
     <use xlink:href="#DejaVuSans-38" transform="translate(222.65625 0)"/>
    </g>
   </g>
   <g id="text_12">
    <!-- 0.188 -->
    <g style="fill: #333333" transform="translate(624.396795 333.039271) scale(0.16 -0.16)">
     <use xlink:href="#DejaVuSans-30"/>
     <use xlink:href="#DejaVuSans-2e" transform="translate(63.623047 0)"/>
     <use xlink:href="#DejaVuSans-31" transform="translate(95.410156 0)"/>
     <use xlink:href="#DejaVuSans-38" transform="translate(159.033203 0)"/>
     <use xlink:href="#DejaVuSans-38" transform="translate(222.65625 0)"/>
    </g>
   </g>
   <g id="text_13">
    <!-- 0.192 -->
    <g style="fill: #333333" transform="translate(630.81489 304.323872) scale(0.16 -0.16)">
     <defs>
      <path id="DejaVuSans-39" d="M 703 97 
L 703 672 
Q 941 559 1184 500 
Q 1428 441 1663 441 
Q 2288 441 2617 861 
Q 2947 1281 2994 2138 
Q 2813 1869 2534 1725 
Q 2256 1581 1919 1581 
Q 1219 1581 811 2004 
Q 403 2428 403 3163 
Q 403 3881 828 4315 
Q 1253 4750 1959 4750 
Q 2769 4750 3195 4129 
Q 3622 3509 3622 2328 
Q 3622 1225 3098 567 
Q 2575 -91 1691 -91 
Q 1453 -91 1209 -44 
Q 966 3 703 97 
z
M 1959 2075 
Q 2384 2075 2632 2365 
Q 2881 2656 2881 3163 
Q 2881 3666 2632 3958 
Q 2384 4250 1959 4250 
Q 1534 4250 1286 3958 
Q 1038 3666 1038 3163 
Q 1038 2656 1286 2365 
Q 1534 2075 1959 2075 
z
" transform="scale(0.015625)"/>
      <path id="DejaVuSans-32" d="M 1228 531 
L 3431 531 
L 3431 0 
L 469 0 
L 469 531 
Q 828 903 1448 1529 
Q 2069 2156 2228 2338 
Q 2531 2678 2651 2914 
Q 2772 3150 2772 3378 
Q 2772 3750 2511 3984 
Q 2250 4219 1831 4219 
Q 1534 4219 1204 4116 
Q 875 4013 500 3803 
L 500 4441 
Q 881 4594 1212 4672 
Q 1544 4750 1819 4750 
Q 2544 4750 2975 4387 
Q 3406 4025 3406 3419 
Q 3406 3131 3298 2873 
Q 3191 2616 2906 2266 
Q 2828 2175 2409 1742 
Q 1991 1309 1228 531 
z
" transform="scale(0.015625)"/>
     </defs>
     <use xlink:href="#DejaVuSans-30"/>
     <use xlink:href="#DejaVuSans-2e" transform="translate(63.623047 0)"/>
     <use xlink:href="#DejaVuSans-31" transform="translate(95.410156 0)"/>
     <use xlink:href="#DejaVuSans-39" transform="translate(159.033203 0)"/>
     <use xlink:href="#DejaVuSans-32" transform="translate(222.65625 0)"/>
    </g>
   </g>
   <g id="text_14">
    <!-- 0.200 -->
    <g style="fill: #333333" transform="translate(643.467707 275.608473) scale(0.16 -0.16)">
     <use xlink:href="#DejaVuSans-30"/>
     <use xlink:href="#DejaVuSans-2e" transform="translate(63.623047 0)"/>
     <use xlink:href="#DejaVuSans-32" transform="translate(95.410156 0)"/>
     <use xlink:href="#DejaVuSans-30" transform="translate(159.033203 0)"/>
     <use xlink:href="#DejaVuSans-30" transform="translate(222.65625 0)"/>
    </g>
   </g>
   <g id="text_15">
    <!-- 0.200 -->
    <g style="fill: #333333" transform="translate(643.467707 246.893074) scale(0.16 -0.16)">
     <use xlink:href="#DejaVuSans-30"/>
     <use xlink:href="#DejaVuSans-2e" transform="translate(63.623047 0)"/>
     <use xlink:href="#DejaVuSans-32" transform="translate(95.410156 0)"/>
     <use xlink:href="#DejaVuSans-30" transform="translate(159.033203 0)"/>
     <use xlink:href="#DejaVuSans-30" transform="translate(222.65625 0)"/>
    </g>
   </g>
   <g id="text_16">
    <!-- 0.213 -->
    <g style="fill: #333333" transform="translate(665.645679 218.177676) scale(0.16 -0.16)">
     <defs>
      <path id="DejaVuSans-33" d="M 2597 2516 
Q 3050 2419 3304 2112 
Q 3559 1806 3559 1356 
Q 3559 666 3084 287 
Q 2609 -91 1734 -91 
Q 1441 -91 1130 -33 
Q 819 25 488 141 
L 488 750 
Q 750 597 1062 519 
Q 1375 441 1716 441 
Q 2309 441 2620 675 
Q 2931 909 2931 1356 
Q 2931 1769 2642 2001 
Q 2353 2234 1838 2234 
L 1294 2234 
L 1294 2753 
L 1863 2753 
Q 2328 2753 2575 2939 
Q 2822 3125 2822 3475 
Q 2822 3834 2567 4026 
Q 2313 4219 1838 4219 
Q 1578 4219 1281 4162 
Q 984 4106 628 3988 
L 628 4550 
Q 988 4650 1302 4700 
Q 1616 4750 1894 4750 
Q 2613 4750 3031 4423 
Q 3450 4097 3450 3541 
Q 3450 3153 3228 2886 
Q 3006 2619 2597 2516 
z
" transform="scale(0.015625)"/>
     </defs>
     <use xlink:href="#DejaVuSans-30"/>
     <use xlink:href="#DejaVuSans-2e" transform="translate(63.623047 0)"/>
     <use xlink:href="#DejaVuSans-32" transform="translate(95.410156 0)"/>
     <use xlink:href="#DejaVuSans-31" transform="translate(159.033203 0)"/>
     <use xlink:href="#DejaVuSans-33" transform="translate(222.65625 0)"/>
    </g>
   </g>
   <g id="text_17">
    <!-- 0.222 -->
    <g style="fill: #333333" transform="translate(680.02029 189.462277) scale(0.16 -0.16)">
     <use xlink:href="#DejaVuSans-30"/>
     <use xlink:href="#DejaVuSans-2e" transform="translate(63.623047 0)"/>
     <use xlink:href="#DejaVuSans-32" transform="translate(95.410156 0)"/>
     <use xlink:href="#DejaVuSans-32" transform="translate(159.033203 0)"/>
     <use xlink:href="#DejaVuSans-32" transform="translate(222.65625 0)"/>
    </g>
   </g>
   <g id="text_18">
    <!-- 0.227 -->
    <g style="fill: #333333" transform="translate(688.327695 160.746878) scale(0.16 -0.16)">
     <defs>
      <path id="DejaVuSans-37" d="M 525 4666 
L 3525 4666 
L 3525 4397 
L 1831 0 
L 1172 0 
L 2766 4134 
L 525 4134 
L 525 4666 
z
" transform="scale(0.015625)"/>
     </defs>
     <use xlink:href="#DejaVuSans-30"/>
     <use xlink:href="#DejaVuSans-2e" transform="translate(63.623047 0)"/>
     <use xlink:href="#DejaVuSans-32" transform="translate(95.410156 0)"/>
     <use xlink:href="#DejaVuSans-32" transform="translate(159.033203 0)"/>
     <use xlink:href="#DejaVuSans-37" transform="translate(222.65625 0)"/>
    </g>
   </g>
   <g id="text_19">
    <!-- 0.233 -->
    <g style="fill: #333333" transform="translate(698.296581 132.031479) scale(0.16 -0.16)">
     <use xlink:href="#DejaVuSans-30"/>
     <use xlink:href="#DejaVuSans-2e" transform="translate(63.623047 0)"/>
     <use xlink:href="#DejaVuSans-32" transform="translate(95.410156 0)"/>
     <use xlink:href="#DejaVuSans-33" transform="translate(159.033203 0)"/>
     <use xlink:href="#DejaVuSans-33" transform="translate(222.65625 0)"/>
    </g>
   </g>
   <g id="text_20">
    <!-- 0.300 -->
    <g style="fill: #333333" transform="translate(807.954329 103.31608) scale(0.16 -0.16)">
     <use xlink:href="#DejaVuSans-30"/>
     <use xlink:href="#DejaVuSans-2e" transform="translate(63.623047 0)"/>
     <use xlink:href="#DejaVuSans-33" transform="translate(95.410156 0)"/>
     <use xlink:href="#DejaVuSans-30" transform="translate(159.033203 0)"/>
     <use xlink:href="#DejaVuSans-30" transform="translate(222.65625 0)"/>
    </g>
   </g>
   <g id="text_21">
    <!-- Top &amp; Bottom 10 Resorts by Lifts per Dollar -->
    <g style="fill: #333333" transform="translate(307.915 22.396875) scale(0.2 -0.2)">
     <defs>
      <path id="DejaVuSans-Bold-54" d="M 31 4666 
L 4331 4666 
L 4331 3756 
L 2784 3756 
L 2784 0 
L 1581 0 
L 1581 3756 
L 31 3756 
L 31 4666 
z
" transform="scale(0.015625)"/>
      <path id="DejaVuSans-Bold-6f" d="M 2203 2784 
Q 1831 2784 1636 2517 
Q 1441 2250 1441 1747 
Q 1441 1244 1636 976 
Q 1831 709 2203 709 
Q 2569 709 2762 976 
Q 2956 1244 2956 1747 
Q 2956 2250 2762 2517 
Q 2569 2784 2203 2784 
z
M 2203 3584 
Q 3106 3584 3614 3096 
Q 4122 2609 4122 1747 
Q 4122 884 3614 396 
Q 3106 -91 2203 -91 
Q 1297 -91 786 396 
Q 275 884 275 1747 
Q 275 2609 786 3096 
Q 1297 3584 2203 3584 
z
" transform="scale(0.015625)"/>
      <path id="DejaVuSans-Bold-70" d="M 1656 506 
L 1656 -1331 
L 538 -1331 
L 538 3500 
L 1656 3500 
L 1656 2988 
Q 1888 3294 2169 3439 
Q 2450 3584 2816 3584 
Q 3463 3584 3878 3070 
Q 4294 2556 4294 1747 
Q 4294 938 3878 423 
Q 3463 -91 2816 -91 
Q 2450 -91 2169 54 
Q 1888 200 1656 506 
z
M 2400 2772 
Q 2041 2772 1848 2508 
Q 1656 2244 1656 1747 
Q 1656 1250 1848 986 
Q 2041 722 2400 722 
Q 2759 722 2948 984 
Q 3138 1247 3138 1747 
Q 3138 2247 2948 2509 
Q 2759 2772 2400 2772 
z
" transform="scale(0.015625)"/>
      <path id="DejaVuSans-Bold-20" transform="scale(0.015625)"/>
      <path id="DejaVuSans-Bold-26" d="M 2497 3097 
L 3775 1691 
Q 3941 1909 4027 2181 
Q 4113 2453 4128 2797 
L 5100 2797 
Q 5053 2228 4879 1784 
Q 4706 1341 4397 1006 
L 5313 0 
L 3988 0 
L 3681 341 
Q 3353 122 2990 15 
Q 2628 -91 2222 -91 
Q 1400 -91 892 342 
Q 384 775 384 1459 
Q 384 1916 607 2267 
Q 831 2619 1338 2950 
Q 1206 3116 1143 3281 
Q 1081 3447 1081 3628 
Q 1081 4138 1478 4444 
Q 1875 4750 2534 4750 
Q 2819 4750 3126 4704 
Q 3434 4659 3769 4569 
L 3769 3700 
Q 3475 3850 3212 3922 
Q 2950 3994 2700 3994 
Q 2459 3994 2326 3901 
Q 2194 3809 2194 3641 
Q 2194 3534 2270 3398 
Q 2347 3263 2497 3097 
z
M 1875 2322 
Q 1672 2175 1569 1989 
Q 1466 1803 1466 1581 
Q 1466 1222 1731 969 
Q 1997 716 2369 716 
Q 2578 716 2759 780 
Q 2941 844 3097 972 
L 1875 2322 
z
" transform="scale(0.015625)"/>
      <path id="DejaVuSans-Bold-42" d="M 2456 2859 
Q 2741 2859 2887 2984 
Q 3034 3109 3034 3353 
Q 3034 3594 2887 3720 
Q 2741 3847 2456 3847 
L 1791 3847 
L 1791 2859 
L 2456 2859 
z
M 2497 819 
Q 2859 819 3042 972 
Q 3225 1125 3225 1434 
Q 3225 1738 3044 1889 
Q 2863 2041 2497 2041 
L 1791 2041 
L 1791 819 
L 2497 819 
z
M 3616 2497 
Q 4003 2384 4215 2081 
Q 4428 1778 4428 1338 
Q 4428 663 3972 331 
Q 3516 0 2584 0 
L 588 0 
L 588 4666 
L 2394 4666 
Q 3366 4666 3802 4372 
Q 4238 4078 4238 3431 
Q 4238 3091 4078 2852 
Q 3919 2613 3616 2497 
z
" transform="scale(0.015625)"/>
      <path id="DejaVuSans-Bold-74" d="M 1759 4494 
L 1759 3500 
L 2913 3500 
L 2913 2700 
L 1759 2700 
L 1759 1216 
Q 1759 972 1856 886 
Q 1953 800 2241 800 
L 2816 800 
L 2816 0 
L 1856 0 
Q 1194 0 917 276 
Q 641 553 641 1216 
L 641 2700 
L 84 2700 
L 84 3500 
L 641 3500 
L 641 4494 
L 1759 4494 
z
" transform="scale(0.015625)"/>
      <path id="DejaVuSans-Bold-6d" d="M 3781 2919 
Q 3994 3244 4286 3414 
Q 4578 3584 4928 3584 
Q 5531 3584 5847 3212 
Q 6163 2841 6163 2131 
L 6163 0 
L 5038 0 
L 5038 1825 
Q 5041 1866 5042 1909 
Q 5044 1953 5044 2034 
Q 5044 2406 4934 2573 
Q 4825 2741 4581 2741 
Q 4263 2741 4089 2478 
Q 3916 2216 3909 1719 
L 3909 0 
L 2784 0 
L 2784 1825 
Q 2784 2406 2684 2573 
Q 2584 2741 2328 2741 
Q 2006 2741 1831 2477 
Q 1656 2213 1656 1722 
L 1656 0 
L 531 0 
L 531 3500 
L 1656 3500 
L 1656 2988 
Q 1863 3284 2130 3434 
Q 2397 3584 2719 3584 
Q 3081 3584 3359 3409 
Q 3638 3234 3781 2919 
z
" transform="scale(0.015625)"/>
      <path id="DejaVuSans-Bold-31" d="M 750 831 
L 1813 831 
L 1813 3847 
L 722 3622 
L 722 4441 
L 1806 4666 
L 2950 4666 
L 2950 831 
L 4013 831 
L 4013 0 
L 750 0 
L 750 831 
z
" transform="scale(0.015625)"/>
      <path id="DejaVuSans-Bold-30" d="M 2944 2338 
Q 2944 3213 2780 3570 
Q 2616 3928 2228 3928 
Q 1841 3928 1675 3570 
Q 1509 3213 1509 2338 
Q 1509 1453 1675 1090 
Q 1841 728 2228 728 
Q 2613 728 2778 1090 
Q 2944 1453 2944 2338 
z
M 4147 2328 
Q 4147 1169 3647 539 
Q 3147 -91 2228 -91 
Q 1306 -91 806 539 
Q 306 1169 306 2328 
Q 306 3491 806 4120 
Q 1306 4750 2228 4750 
Q 3147 4750 3647 4120 
Q 4147 3491 4147 2328 
z
" transform="scale(0.015625)"/>
      <path id="DejaVuSans-Bold-52" d="M 2297 2597 
Q 2675 2597 2839 2737 
Q 3003 2878 3003 3200 
Q 3003 3519 2839 3656 
Q 2675 3794 2297 3794 
L 1791 3794 
L 1791 2597 
L 2297 2597 
z
M 1791 1766 
L 1791 0 
L 588 0 
L 588 4666 
L 2425 4666 
Q 3347 4666 3776 4356 
Q 4206 4047 4206 3378 
Q 4206 2916 3982 2619 
Q 3759 2322 3309 2181 
Q 3556 2125 3751 1926 
Q 3947 1728 4147 1325 
L 4800 0 
L 3519 0 
L 2950 1159 
Q 2778 1509 2601 1637 
Q 2425 1766 2131 1766 
L 1791 1766 
z
" transform="scale(0.015625)"/>
      <path id="DejaVuSans-Bold-65" d="M 4031 1759 
L 4031 1441 
L 1416 1441 
Q 1456 1047 1700 850 
Q 1944 653 2381 653 
Q 2734 653 3104 758 
Q 3475 863 3866 1075 
L 3866 213 
Q 3469 63 3072 -14 
Q 2675 -91 2278 -91 
Q 1328 -91 801 392 
Q 275 875 275 1747 
Q 275 2603 792 3093 
Q 1309 3584 2216 3584 
Q 3041 3584 3536 3087 
Q 4031 2591 4031 1759 
z
M 2881 2131 
Q 2881 2450 2695 2645 
Q 2509 2841 2209 2841 
Q 1884 2841 1681 2658 
Q 1478 2475 1428 2131 
L 2881 2131 
z
" transform="scale(0.015625)"/>
      <path id="DejaVuSans-Bold-73" d="M 3272 3391 
L 3272 2541 
Q 2913 2691 2578 2766 
Q 2244 2841 1947 2841 
Q 1628 2841 1473 2761 
Q 1319 2681 1319 2516 
Q 1319 2381 1436 2309 
Q 1553 2238 1856 2203 
L 2053 2175 
Q 2913 2066 3209 1816 
Q 3506 1566 3506 1031 
Q 3506 472 3093 190 
Q 2681 -91 1863 -91 
Q 1516 -91 1145 -36 
Q 775 19 384 128 
L 384 978 
Q 719 816 1070 734 
Q 1422 653 1784 653 
Q 2113 653 2278 743 
Q 2444 834 2444 1013 
Q 2444 1163 2330 1236 
Q 2216 1309 1875 1350 
L 1678 1375 
Q 931 1469 631 1722 
Q 331 1975 331 2491 
Q 331 3047 712 3315 
Q 1094 3584 1881 3584 
Q 2191 3584 2531 3537 
Q 2872 3491 3272 3391 
z
" transform="scale(0.015625)"/>
      <path id="DejaVuSans-Bold-72" d="M 3138 2547 
Q 2991 2616 2845 2648 
Q 2700 2681 2553 2681 
Q 2122 2681 1889 2404 
Q 1656 2128 1656 1613 
L 1656 0 
L 538 0 
L 538 3500 
L 1656 3500 
L 1656 2925 
Q 1872 3269 2151 3426 
Q 2431 3584 2822 3584 
Q 2878 3584 2943 3579 
Q 3009 3575 3134 3559 
L 3138 2547 
z
" transform="scale(0.015625)"/>
      <path id="DejaVuSans-Bold-62" d="M 2400 722 
Q 2759 722 2948 984 
Q 3138 1247 3138 1747 
Q 3138 2247 2948 2509 
Q 2759 2772 2400 2772 
Q 2041 2772 1848 2508 
Q 1656 2244 1656 1747 
Q 1656 1250 1848 986 
Q 2041 722 2400 722 
z
M 1656 2988 
Q 1888 3294 2169 3439 
Q 2450 3584 2816 3584 
Q 3463 3584 3878 3070 
Q 4294 2556 4294 1747 
Q 4294 938 3878 423 
Q 3463 -91 2816 -91 
Q 2450 -91 2169 54 
Q 1888 200 1656 506 
L 1656 0 
L 538 0 
L 538 4863 
L 1656 4863 
L 1656 2988 
z
" transform="scale(0.015625)"/>
      <path id="DejaVuSans-Bold-79" d="M 78 3500 
L 1197 3500 
L 2138 1125 
L 2938 3500 
L 4056 3500 
L 2584 -331 
Q 2363 -916 2067 -1148 
Q 1772 -1381 1288 -1381 
L 641 -1381 
L 641 -647 
L 991 -647 
Q 1275 -647 1404 -556 
Q 1534 -466 1606 -231 
L 1638 -134 
L 78 3500 
z
" transform="scale(0.015625)"/>
      <path id="DejaVuSans-Bold-4c" d="M 588 4666 
L 1791 4666 
L 1791 909 
L 3903 909 
L 3903 0 
L 588 0 
L 588 4666 
z
" transform="scale(0.015625)"/>
      <path id="DejaVuSans-Bold-69" d="M 538 3500 
L 1656 3500 
L 1656 0 
L 538 0 
L 538 3500 
z
M 538 4863 
L 1656 4863 
L 1656 3950 
L 538 3950 
L 538 4863 
z
" transform="scale(0.015625)"/>
      <path id="DejaVuSans-Bold-66" d="M 2841 4863 
L 2841 4128 
L 2222 4128 
Q 1984 4128 1890 4042 
Q 1797 3956 1797 3744 
L 1797 3500 
L 2753 3500 
L 2753 2700 
L 1797 2700 
L 1797 0 
L 678 0 
L 678 2700 
L 122 2700 
L 122 3500 
L 678 3500 
L 678 3744 
Q 678 4316 997 4589 
Q 1316 4863 1984 4863 
L 2841 4863 
z
" transform="scale(0.015625)"/>
      <path id="DejaVuSans-Bold-44" d="M 1791 3756 
L 1791 909 
L 2222 909 
Q 2959 909 3348 1275 
Q 3738 1641 3738 2338 
Q 3738 3031 3350 3393 
Q 2963 3756 2222 3756 
L 1791 3756 
z
M 588 4666 
L 1856 4666 
Q 2919 4666 3439 4514 
Q 3959 4363 4331 4000 
Q 4659 3684 4818 3271 
Q 4978 2859 4978 2338 
Q 4978 1809 4818 1395 
Q 4659 981 4331 666 
Q 3956 303 3431 151 
Q 2906 0 1856 0 
L 588 0 
L 588 4666 
z
" transform="scale(0.015625)"/>
      <path id="DejaVuSans-Bold-6c" d="M 538 4863 
L 1656 4863 
L 1656 0 
L 538 0 
L 538 4863 
z
" transform="scale(0.015625)"/>
      <path id="DejaVuSans-Bold-61" d="M 2106 1575 
Q 1756 1575 1579 1456 
Q 1403 1338 1403 1106 
Q 1403 894 1545 773 
Q 1688 653 1941 653 
Q 2256 653 2472 879 
Q 2688 1106 2688 1447 
L 2688 1575 
L 2106 1575 
z
M 3816 1997 
L 3816 0 
L 2688 0 
L 2688 519 
Q 2463 200 2181 54 
Q 1900 -91 1497 -91 
Q 953 -91 614 226 
Q 275 544 275 1050 
Q 275 1666 698 1953 
Q 1122 2241 2028 2241 
L 2688 2241 
L 2688 2328 
Q 2688 2594 2478 2717 
Q 2269 2841 1825 2841 
Q 1466 2841 1156 2769 
Q 847 2697 581 2553 
L 581 3406 
Q 941 3494 1303 3539 
Q 1666 3584 2028 3584 
Q 2975 3584 3395 3211 
Q 3816 2838 3816 1997 
z
" transform="scale(0.015625)"/>
     </defs>
     <use xlink:href="#DejaVuSans-Bold-54"/>
     <use xlink:href="#DejaVuSans-Bold-6f" transform="translate(54.962891 0)"/>
     <use xlink:href="#DejaVuSans-Bold-70" transform="translate(123.664062 0)"/>
     <use xlink:href="#DejaVuSans-Bold-20" transform="translate(195.246094 0)"/>
     <use xlink:href="#DejaVuSans-Bold-26" transform="translate(230.060547 0)"/>
     <use xlink:href="#DejaVuSans-Bold-20" transform="translate(317.267578 0)"/>
     <use xlink:href="#DejaVuSans-Bold-42" transform="translate(352.082031 0)"/>
     <use xlink:href="#DejaVuSans-Bold-6f" transform="translate(428.302734 0)"/>
     <use xlink:href="#DejaVuSans-Bold-74" transform="translate(497.003906 0)"/>
     <use xlink:href="#DejaVuSans-Bold-74" transform="translate(544.806641 0)"/>
     <use xlink:href="#DejaVuSans-Bold-6f" transform="translate(592.609375 0)"/>
     <use xlink:href="#DejaVuSans-Bold-6d" transform="translate(661.310547 0)"/>
     <use xlink:href="#DejaVuSans-Bold-20" transform="translate(765.509766 0)"/>
     <use xlink:href="#DejaVuSans-Bold-31" transform="translate(800.324219 0)"/>
     <use xlink:href="#DejaVuSans-Bold-30" transform="translate(869.904297 0)"/>
     <use xlink:href="#DejaVuSans-Bold-20" transform="translate(939.484375 0)"/>
     <use xlink:href="#DejaVuSans-Bold-52" transform="translate(974.298828 0)"/>
     <use xlink:href="#DejaVuSans-Bold-65" transform="translate(1051.300781 0)"/>
     <use xlink:href="#DejaVuSans-Bold-73" transform="translate(1119.123047 0)"/>
     <use xlink:href="#DejaVuSans-Bold-6f" transform="translate(1178.644531 0)"/>
     <use xlink:href="#DejaVuSans-Bold-72" transform="translate(1247.345703 0)"/>
     <use xlink:href="#DejaVuSans-Bold-74" transform="translate(1296.662109 0)"/>
     <use xlink:href="#DejaVuSans-Bold-73" transform="translate(1344.464844 0)"/>
     <use xlink:href="#DejaVuSans-Bold-20" transform="translate(1403.986328 0)"/>
     <use xlink:href="#DejaVuSans-Bold-62" transform="translate(1438.800781 0)"/>
     <use xlink:href="#DejaVuSans-Bold-79" transform="translate(1510.382812 0)"/>
     <use xlink:href="#DejaVuSans-Bold-20" transform="translate(1575.568359 0)"/>
     <use xlink:href="#DejaVuSans-Bold-4c" transform="translate(1610.382812 0)"/>
     <use xlink:href="#DejaVuSans-Bold-69" transform="translate(1674.103516 0)"/>
     <use xlink:href="#DejaVuSans-Bold-66" transform="translate(1708.380859 0)"/>
     <use xlink:href="#DejaVuSans-Bold-74" transform="translate(1751.886719 0)"/>
     <use xlink:href="#DejaVuSans-Bold-73" transform="translate(1799.689453 0)"/>
     <use xlink:href="#DejaVuSans-Bold-20" transform="translate(1859.210938 0)"/>
     <use xlink:href="#DejaVuSans-Bold-70" transform="translate(1894.025391 0)"/>
     <use xlink:href="#DejaVuSans-Bold-65" transform="translate(1965.607422 0)"/>
     <use xlink:href="#DejaVuSans-Bold-72" transform="translate(2033.429688 0)"/>
     <use xlink:href="#DejaVuSans-Bold-20" transform="translate(2082.746094 0)"/>
     <use xlink:href="#DejaVuSans-Bold-44" transform="translate(2117.560547 0)"/>
     <use xlink:href="#DejaVuSans-Bold-6f" transform="translate(2200.568359 0)"/>
     <use xlink:href="#DejaVuSans-Bold-6c" transform="translate(2269.269531 0)"/>
     <use xlink:href="#DejaVuSans-Bold-6c" transform="translate(2303.546875 0)"/>
     <use xlink:href="#DejaVuSans-Bold-61" transform="translate(2337.824219 0)"/>
     <use xlink:href="#DejaVuSans-Bold-72" transform="translate(2405.304688 0)"/>
    </g>
    <!--  -->
    <g style="fill: #333333" transform="translate(307.915 44.94875) scale(0.2 -0.2)"/>
    <!--  -->
    <g style="fill: #333333" transform="translate(307.915 67.344375) scale(0.2 -0.2)"/>
   </g>
  </g>
  <g id="axes_2">
   <g id="patch_13">
    <path d="M 307.915 703.248375 
L 826.047857 703.248375 
L 826.047857 393.696375 
L 307.915 393.696375 
z
" style="fill: #f8f9fa"/>
   </g>
   <g id="patch_14">
    <path d="M 307.915 689.17783 
L 337.821658 689.17783 
L 337.821658 666.20551 
L 307.915 666.20551 
z
" clip-path="url(#pc046dffffe)" style="fill: #d87070"/>
   </g>
   <g id="patch_15">
    <path d="M 307.915 660.462431 
L 342.183046 660.462431 
L 342.183046 637.490112 
L 307.915 637.490112 
z
" clip-path="url(#pc046dffffe)" style="fill: #d87070"/>
   </g>
   <g id="patch_16">
    <path d="M 307.915 631.747032 
L 342.543762 631.747032 
L 342.543762 608.774713 
L 307.915 608.774713 
z
" clip-path="url(#pc046dffffe)" style="fill: #d87070"/>
   </g>
   <g id="patch_17">
    <path d="M 307.915 603.031633 
L 344.467583 603.031633 
L 344.467583 580.059314 
L 307.915 580.059314 
z
" clip-path="url(#pc046dffffe)" style="fill: #d87070"/>
   </g>
   <g id="patch_18">
    <path d="M 307.915 574.316234 
L 345.298323 574.316234 
L 345.298323 551.343915 
L 307.915 551.343915 
z
" clip-path="url(#pc046dffffe)" style="fill: #d87070"/>
   </g>
   <g id="patch_19">
    <path d="M 307.915 545.600835 
L 345.298323 545.600835 
L 345.298323 522.628516 
L 307.915 522.628516 
z
" clip-path="url(#pc046dffffe)" style="fill: #d87070"/>
   </g>
   <g id="patch_20">
    <path d="M 307.915 516.885436 
L 349.036655 516.885436 
L 349.036655 493.913117 
L 307.915 493.913117 
z
" clip-path="url(#pc046dffffe)" style="fill: #d87070"/>
   </g>
   <g id="patch_21">
    <path d="M 307.915 488.170037 
L 349.036655 488.170037 
L 349.036655 465.197718 
L 307.915 465.197718 
z
" clip-path="url(#pc046dffffe)" style="fill: #d87070"/>
   </g>
   <g id="patch_22">
    <path d="M 307.915 459.454638 
L 349.036655 459.454638 
L 349.036655 436.482319 
L 307.915 436.482319 
z
" clip-path="url(#pc046dffffe)" style="fill: #d87070"/>
   </g>
   <g id="patch_23">
    <path d="M 307.915 430.73924 
L 349.382215 430.73924 
L 349.382215 407.76692 
L 307.915 407.76692 
z
" clip-path="url(#pc046dffffe)" style="fill: #d87070"/>
   </g>
   <g id="matplotlib.axis_3">
    <g id="xtick_8"/>
    <g id="xtick_9"/>
    <g id="xtick_10"/>
    <g id="xtick_11"/>
    <g id="xtick_12"/>
    <g id="xtick_13"/>
    <g id="xtick_14"/>
   </g>
   <g id="matplotlib.axis_4">
    <g id="ytick_11">
     <g id="line2d_12">
      <g>
       <use xlink:href="#mb4e508a317" x="307.915" y="677.69167" style="fill: #333333; stroke: #333333; stroke-width: 0.8"/>
      </g>
     </g>
     <g id="text_22">
      <!-- Moose Mountain, Alaska -->
      <g style="fill: #333333" transform="translate(107.2375 683.77042) scale(0.16 -0.16)">
       <use xlink:href="#DejaVuSans-4d"/>
       <use xlink:href="#DejaVuSans-6f" transform="translate(86.279297 0)"/>
       <use xlink:href="#DejaVuSans-6f" transform="translate(147.460938 0)"/>
       <use xlink:href="#DejaVuSans-73" transform="translate(208.642578 0)"/>
       <use xlink:href="#DejaVuSans-65" transform="translate(260.742188 0)"/>
       <use xlink:href="#DejaVuSans-20" transform="translate(322.265625 0)"/>
       <use xlink:href="#DejaVuSans-4d" transform="translate(354.052734 0)"/>
       <use xlink:href="#DejaVuSans-6f" transform="translate(440.332031 0)"/>
       <use xlink:href="#DejaVuSans-75" transform="translate(501.513672 0)"/>
       <use xlink:href="#DejaVuSans-6e" transform="translate(564.892578 0)"/>
       <use xlink:href="#DejaVuSans-74" transform="translate(628.271484 0)"/>
       <use xlink:href="#DejaVuSans-61" transform="translate(667.480469 0)"/>
       <use xlink:href="#DejaVuSans-69" transform="translate(728.759766 0)"/>
       <use xlink:href="#DejaVuSans-6e" transform="translate(756.542969 0)"/>
       <use xlink:href="#DejaVuSans-2c" transform="translate(819.921875 0)"/>
       <use xlink:href="#DejaVuSans-20" transform="translate(851.708984 0)"/>
       <use xlink:href="#DejaVuSans-41" transform="translate(883.496094 0)"/>
       <use xlink:href="#DejaVuSans-6c" transform="translate(951.904297 0)"/>
       <use xlink:href="#DejaVuSans-61" transform="translate(979.6875 0)"/>
       <use xlink:href="#DejaVuSans-73" transform="translate(1040.966797 0)"/>
       <use xlink:href="#DejaVuSans-6b" transform="translate(1093.066406 0)"/>
       <use xlink:href="#DejaVuSans-61" transform="translate(1149.226562 0)"/>
      </g>
     </g>
    </g>
    <g id="ytick_12">
     <g id="line2d_13">
      <g>
       <use xlink:href="#mb4e508a317" x="307.915" y="648.976271" style="fill: #333333; stroke: #333333; stroke-width: 0.8"/>
      </g>
     </g>
     <g id="text_23">
      <!-- Hesperus Ski Area, Colorado -->
      <g style="fill: #333333" transform="translate(73.1 655.055021) scale(0.16 -0.16)">
       <defs>
        <path id="DejaVuSans-43" d="M 4122 4306 
L 4122 3641 
Q 3803 3938 3442 4084 
Q 3081 4231 2675 4231 
Q 1875 4231 1450 3742 
Q 1025 3253 1025 2328 
Q 1025 1406 1450 917 
Q 1875 428 2675 428 
Q 3081 428 3442 575 
Q 3803 722 4122 1019 
L 4122 359 
Q 3791 134 3420 21 
Q 3050 -91 2638 -91 
Q 1578 -91 968 557 
Q 359 1206 359 2328 
Q 359 3453 968 4101 
Q 1578 4750 2638 4750 
Q 3056 4750 3426 4639 
Q 3797 4528 4122 4306 
z
" transform="scale(0.015625)"/>
       </defs>
       <use xlink:href="#DejaVuSans-48"/>
       <use xlink:href="#DejaVuSans-65" transform="translate(75.195312 0)"/>
       <use xlink:href="#DejaVuSans-73" transform="translate(136.71875 0)"/>
       <use xlink:href="#DejaVuSans-70" transform="translate(188.818359 0)"/>
       <use xlink:href="#DejaVuSans-65" transform="translate(252.294922 0)"/>
       <use xlink:href="#DejaVuSans-72" transform="translate(313.818359 0)"/>
       <use xlink:href="#DejaVuSans-75" transform="translate(354.931641 0)"/>
       <use xlink:href="#DejaVuSans-73" transform="translate(418.310547 0)"/>
       <use xlink:href="#DejaVuSans-20" transform="translate(470.410156 0)"/>
       <use xlink:href="#DejaVuSans-53" transform="translate(502.197266 0)"/>
       <use xlink:href="#DejaVuSans-6b" transform="translate(565.673828 0)"/>
       <use xlink:href="#DejaVuSans-69" transform="translate(623.583984 0)"/>
       <use xlink:href="#DejaVuSans-20" transform="translate(651.367188 0)"/>
       <use xlink:href="#DejaVuSans-41" transform="translate(683.154297 0)"/>
       <use xlink:href="#DejaVuSans-72" transform="translate(751.5625 0)"/>
       <use xlink:href="#DejaVuSans-65" transform="translate(790.425781 0)"/>
       <use xlink:href="#DejaVuSans-61" transform="translate(851.949219 0)"/>
       <use xlink:href="#DejaVuSans-2c" transform="translate(913.228516 0)"/>
       <use xlink:href="#DejaVuSans-20" transform="translate(945.015625 0)"/>
       <use xlink:href="#DejaVuSans-43" transform="translate(976.802734 0)"/>
       <use xlink:href="#DejaVuSans-6f" transform="translate(1046.626953 0)"/>
       <use xlink:href="#DejaVuSans-6c" transform="translate(1107.808594 0)"/>
       <use xlink:href="#DejaVuSans-6f" transform="translate(1135.591797 0)"/>
       <use xlink:href="#DejaVuSans-72" transform="translate(1196.773438 0)"/>
       <use xlink:href="#DejaVuSans-61" transform="translate(1237.886719 0)"/>
       <use xlink:href="#DejaVuSans-64" transform="translate(1299.166016 0)"/>
       <use xlink:href="#DejaVuSans-6f" transform="translate(1362.642578 0)"/>
      </g>
     </g>
    </g>
    <g id="ytick_13">
     <g id="line2d_14">
      <g>
       <use xlink:href="#mb4e508a317" x="307.915" y="620.260872" style="fill: #333333; stroke: #333333; stroke-width: 0.8"/>
      </g>
     </g>
     <g id="text_24">
      <!-- Mount Bohemia, Michigan -->
      <g style="fill: #333333" transform="translate(93.19 626.339622) scale(0.16 -0.16)">
       <defs>
        <path id="DejaVuSans-6d" d="M 3328 2828 
Q 3544 3216 3844 3400 
Q 4144 3584 4550 3584 
Q 5097 3584 5394 3201 
Q 5691 2819 5691 2113 
L 5691 0 
L 5113 0 
L 5113 2094 
Q 5113 2597 4934 2840 
Q 4756 3084 4391 3084 
Q 3944 3084 3684 2787 
Q 3425 2491 3425 1978 
L 3425 0 
L 2847 0 
L 2847 2094 
Q 2847 2600 2669 2842 
Q 2491 3084 2119 3084 
Q 1678 3084 1418 2786 
Q 1159 2488 1159 1978 
L 1159 0 
L 581 0 
L 581 3500 
L 1159 3500 
L 1159 2956 
Q 1356 3278 1631 3431 
Q 1906 3584 2284 3584 
Q 2666 3584 2933 3390 
Q 3200 3197 3328 2828 
z
" transform="scale(0.015625)"/>
       </defs>
       <use xlink:href="#DejaVuSans-4d"/>
       <use xlink:href="#DejaVuSans-6f" transform="translate(86.279297 0)"/>
       <use xlink:href="#DejaVuSans-75" transform="translate(147.460938 0)"/>
       <use xlink:href="#DejaVuSans-6e" transform="translate(210.839844 0)"/>
       <use xlink:href="#DejaVuSans-74" transform="translate(274.21875 0)"/>
       <use xlink:href="#DejaVuSans-20" transform="translate(313.427734 0)"/>
       <use xlink:href="#DejaVuSans-42" transform="translate(345.214844 0)"/>
       <use xlink:href="#DejaVuSans-6f" transform="translate(413.818359 0)"/>
       <use xlink:href="#DejaVuSans-68" transform="translate(475 0)"/>
       <use xlink:href="#DejaVuSans-65" transform="translate(538.378906 0)"/>
       <use xlink:href="#DejaVuSans-6d" transform="translate(599.902344 0)"/>
       <use xlink:href="#DejaVuSans-69" transform="translate(697.314453 0)"/>
       <use xlink:href="#DejaVuSans-61" transform="translate(725.097656 0)"/>
       <use xlink:href="#DejaVuSans-2c" transform="translate(786.376953 0)"/>
       <use xlink:href="#DejaVuSans-20" transform="translate(818.164062 0)"/>
       <use xlink:href="#DejaVuSans-4d" transform="translate(849.951172 0)"/>
       <use xlink:href="#DejaVuSans-69" transform="translate(936.230469 0)"/>
       <use xlink:href="#DejaVuSans-63" transform="translate(964.013672 0)"/>
       <use xlink:href="#DejaVuSans-68" transform="translate(1018.994141 0)"/>
       <use xlink:href="#DejaVuSans-69" transform="translate(1082.373047 0)"/>
       <use xlink:href="#DejaVuSans-67" transform="translate(1110.15625 0)"/>
       <use xlink:href="#DejaVuSans-61" transform="translate(1173.632812 0)"/>
       <use xlink:href="#DejaVuSans-6e" transform="translate(1234.912109 0)"/>
      </g>
     </g>
    </g>
    <g id="ytick_14">
     <g id="line2d_15">
      <g>
       <use xlink:href="#mb4e508a317" x="307.915" y="591.545473" style="fill: #333333; stroke: #333333; stroke-width: 0.8"/>
      </g>
     </g>
     <g id="text_25">
      <!-- Turner Mountain, Montana -->
      <g style="fill: #333333" transform="translate(91.0125 597.624223) scale(0.16 -0.16)">
       <defs>
        <path id="DejaVuSans-54" d="M -19 4666 
L 3928 4666 
L 3928 4134 
L 2272 4134 
L 2272 0 
L 1638 0 
L 1638 4134 
L -19 4134 
L -19 4666 
z
" transform="scale(0.015625)"/>
       </defs>
       <use xlink:href="#DejaVuSans-54"/>
       <use xlink:href="#DejaVuSans-75" transform="translate(45.958984 0)"/>
       <use xlink:href="#DejaVuSans-72" transform="translate(109.337891 0)"/>
       <use xlink:href="#DejaVuSans-6e" transform="translate(148.701172 0)"/>
       <use xlink:href="#DejaVuSans-65" transform="translate(212.080078 0)"/>
       <use xlink:href="#DejaVuSans-72" transform="translate(273.603516 0)"/>
       <use xlink:href="#DejaVuSans-20" transform="translate(314.716797 0)"/>
       <use xlink:href="#DejaVuSans-4d" transform="translate(346.503906 0)"/>
       <use xlink:href="#DejaVuSans-6f" transform="translate(432.783203 0)"/>
       <use xlink:href="#DejaVuSans-75" transform="translate(493.964844 0)"/>
       <use xlink:href="#DejaVuSans-6e" transform="translate(557.34375 0)"/>
       <use xlink:href="#DejaVuSans-74" transform="translate(620.722656 0)"/>
       <use xlink:href="#DejaVuSans-61" transform="translate(659.931641 0)"/>
       <use xlink:href="#DejaVuSans-69" transform="translate(721.210938 0)"/>
       <use xlink:href="#DejaVuSans-6e" transform="translate(748.994141 0)"/>
       <use xlink:href="#DejaVuSans-2c" transform="translate(812.373047 0)"/>
       <use xlink:href="#DejaVuSans-20" transform="translate(844.160156 0)"/>
       <use xlink:href="#DejaVuSans-4d" transform="translate(875.947266 0)"/>
       <use xlink:href="#DejaVuSans-6f" transform="translate(962.226562 0)"/>
       <use xlink:href="#DejaVuSans-6e" transform="translate(1023.408203 0)"/>
       <use xlink:href="#DejaVuSans-74" transform="translate(1086.787109 0)"/>
       <use xlink:href="#DejaVuSans-61" transform="translate(1125.996094 0)"/>
       <use xlink:href="#DejaVuSans-6e" transform="translate(1187.275391 0)"/>
       <use xlink:href="#DejaVuSans-61" transform="translate(1250.654297 0)"/>
      </g>
     </g>
    </g>
    <g id="ytick_15">
     <g id="line2d_16">
      <g>
       <use xlink:href="#mb4e508a317" x="307.915" y="562.830074" style="fill: #333333; stroke: #333333; stroke-width: 0.8"/>
      </g>
     </g>
     <g id="text_26">
      <!-- Buttermilk Mountain, Colorado -->
      <g style="fill: #333333" transform="translate(56.05 568.908824) scale(0.16 -0.16)">
       <use xlink:href="#DejaVuSans-42"/>
       <use xlink:href="#DejaVuSans-75" transform="translate(68.603516 0)"/>
       <use xlink:href="#DejaVuSans-74" transform="translate(131.982422 0)"/>
       <use xlink:href="#DejaVuSans-74" transform="translate(171.191406 0)"/>
       <use xlink:href="#DejaVuSans-65" transform="translate(210.400391 0)"/>
       <use xlink:href="#DejaVuSans-72" transform="translate(271.923828 0)"/>
       <use xlink:href="#DejaVuSans-6d" transform="translate(311.287109 0)"/>
       <use xlink:href="#DejaVuSans-69" transform="translate(408.699219 0)"/>
       <use xlink:href="#DejaVuSans-6c" transform="translate(436.482422 0)"/>
       <use xlink:href="#DejaVuSans-6b" transform="translate(464.265625 0)"/>
       <use xlink:href="#DejaVuSans-20" transform="translate(522.175781 0)"/>
       <use xlink:href="#DejaVuSans-4d" transform="translate(553.962891 0)"/>
       <use xlink:href="#DejaVuSans-6f" transform="translate(640.242188 0)"/>
       <use xlink:href="#DejaVuSans-75" transform="translate(701.423828 0)"/>
       <use xlink:href="#DejaVuSans-6e" transform="translate(764.802734 0)"/>
       <use xlink:href="#DejaVuSans-74" transform="translate(828.181641 0)"/>
       <use xlink:href="#DejaVuSans-61" transform="translate(867.390625 0)"/>
       <use xlink:href="#DejaVuSans-69" transform="translate(928.669922 0)"/>
       <use xlink:href="#DejaVuSans-6e" transform="translate(956.453125 0)"/>
       <use xlink:href="#DejaVuSans-2c" transform="translate(1019.832031 0)"/>
       <use xlink:href="#DejaVuSans-20" transform="translate(1051.619141 0)"/>
       <use xlink:href="#DejaVuSans-43" transform="translate(1083.40625 0)"/>
       <use xlink:href="#DejaVuSans-6f" transform="translate(1153.230469 0)"/>
       <use xlink:href="#DejaVuSans-6c" transform="translate(1214.412109 0)"/>
       <use xlink:href="#DejaVuSans-6f" transform="translate(1242.195312 0)"/>
       <use xlink:href="#DejaVuSans-72" transform="translate(1303.376953 0)"/>
       <use xlink:href="#DejaVuSans-61" transform="translate(1344.490234 0)"/>
       <use xlink:href="#DejaVuSans-64" transform="translate(1405.769531 0)"/>
       <use xlink:href="#DejaVuSans-6f" transform="translate(1469.246094 0)"/>
      </g>
     </g>
    </g>
    <g id="ytick_16">
     <g id="line2d_17">
      <g>
       <use xlink:href="#mb4e508a317" x="307.915" y="534.114676" style="fill: #333333; stroke: #333333; stroke-width: 0.8"/>
      </g>
     </g>
     <g id="text_27">
      <!-- Aspen Highlands, Colorado -->
      <g style="fill: #333333" transform="translate(85.0525 540.193426) scale(0.16 -0.16)">
       <use xlink:href="#DejaVuSans-41"/>
       <use xlink:href="#DejaVuSans-73" transform="translate(68.408203 0)"/>
       <use xlink:href="#DejaVuSans-70" transform="translate(120.507812 0)"/>
       <use xlink:href="#DejaVuSans-65" transform="translate(183.984375 0)"/>
       <use xlink:href="#DejaVuSans-6e" transform="translate(245.507812 0)"/>
       <use xlink:href="#DejaVuSans-20" transform="translate(308.886719 0)"/>
       <use xlink:href="#DejaVuSans-48" transform="translate(340.673828 0)"/>
       <use xlink:href="#DejaVuSans-69" transform="translate(415.869141 0)"/>
       <use xlink:href="#DejaVuSans-67" transform="translate(443.652344 0)"/>
       <use xlink:href="#DejaVuSans-68" transform="translate(507.128906 0)"/>
       <use xlink:href="#DejaVuSans-6c" transform="translate(570.507812 0)"/>
       <use xlink:href="#DejaVuSans-61" transform="translate(598.291016 0)"/>
       <use xlink:href="#DejaVuSans-6e" transform="translate(659.570312 0)"/>
       <use xlink:href="#DejaVuSans-64" transform="translate(722.949219 0)"/>
       <use xlink:href="#DejaVuSans-73" transform="translate(786.425781 0)"/>
       <use xlink:href="#DejaVuSans-2c" transform="translate(838.525391 0)"/>
       <use xlink:href="#DejaVuSans-20" transform="translate(870.3125 0)"/>
       <use xlink:href="#DejaVuSans-43" transform="translate(902.099609 0)"/>
       <use xlink:href="#DejaVuSans-6f" transform="translate(971.923828 0)"/>
       <use xlink:href="#DejaVuSans-6c" transform="translate(1033.105469 0)"/>
       <use xlink:href="#DejaVuSans-6f" transform="translate(1060.888672 0)"/>
       <use xlink:href="#DejaVuSans-72" transform="translate(1122.070312 0)"/>
       <use xlink:href="#DejaVuSans-61" transform="translate(1163.183594 0)"/>
       <use xlink:href="#DejaVuSans-64" transform="translate(1224.462891 0)"/>
       <use xlink:href="#DejaVuSans-6f" transform="translate(1287.939453 0)"/>
      </g>
     </g>
    </g>
    <g id="ytick_17">
     <g id="line2d_18">
      <g>
       <use xlink:href="#mb4e508a317" x="307.915" y="505.399277" style="fill: #333333; stroke: #333333; stroke-width: 0.8"/>
      </g>
     </g>
     <g id="text_28">
      <!-- Cloudmont, Alabama -->
      <g style="fill: #333333" transform="translate(132.705 511.478027) scale(0.16 -0.16)">
       <use xlink:href="#DejaVuSans-43"/>
       <use xlink:href="#DejaVuSans-6c" transform="translate(69.824219 0)"/>
       <use xlink:href="#DejaVuSans-6f" transform="translate(97.607422 0)"/>
       <use xlink:href="#DejaVuSans-75" transform="translate(158.789062 0)"/>
       <use xlink:href="#DejaVuSans-64" transform="translate(222.167969 0)"/>
       <use xlink:href="#DejaVuSans-6d" transform="translate(285.644531 0)"/>
       <use xlink:href="#DejaVuSans-6f" transform="translate(383.056641 0)"/>
       <use xlink:href="#DejaVuSans-6e" transform="translate(444.238281 0)"/>
       <use xlink:href="#DejaVuSans-74" transform="translate(507.617188 0)"/>
       <use xlink:href="#DejaVuSans-2c" transform="translate(546.826172 0)"/>
       <use xlink:href="#DejaVuSans-20" transform="translate(578.613281 0)"/>
       <use xlink:href="#DejaVuSans-41" transform="translate(610.400391 0)"/>
       <use xlink:href="#DejaVuSans-6c" transform="translate(678.808594 0)"/>
       <use xlink:href="#DejaVuSans-61" transform="translate(706.591797 0)"/>
       <use xlink:href="#DejaVuSans-62" transform="translate(767.871094 0)"/>
       <use xlink:href="#DejaVuSans-61" transform="translate(831.347656 0)"/>
       <use xlink:href="#DejaVuSans-6d" transform="translate(892.626953 0)"/>
       <use xlink:href="#DejaVuSans-61" transform="translate(990.039062 0)"/>
      </g>
     </g>
    </g>
    <g id="ytick_18">
     <g id="line2d_19">
      <g>
       <use xlink:href="#mb4e508a317" x="307.915" y="476.683878" style="fill: #333333; stroke: #333333; stroke-width: 0.8"/>
      </g>
     </g>
     <g id="text_29">
      <!-- Warner Canyon, Oregon -->
      <g style="fill: #333333" transform="translate(108.9325 482.762628) scale(0.16 -0.16)">
       <defs>
        <path id="DejaVuSans-4f" d="M 2522 4238 
Q 1834 4238 1429 3725 
Q 1025 3213 1025 2328 
Q 1025 1447 1429 934 
Q 1834 422 2522 422 
Q 3209 422 3611 934 
Q 4013 1447 4013 2328 
Q 4013 3213 3611 3725 
Q 3209 4238 2522 4238 
z
M 2522 4750 
Q 3503 4750 4090 4092 
Q 4678 3434 4678 2328 
Q 4678 1225 4090 567 
Q 3503 -91 2522 -91 
Q 1538 -91 948 565 
Q 359 1222 359 2328 
Q 359 3434 948 4092 
Q 1538 4750 2522 4750 
z
" transform="scale(0.015625)"/>
       </defs>
       <use xlink:href="#DejaVuSans-57"/>
       <use xlink:href="#DejaVuSans-61" transform="translate(92.501953 0)"/>
       <use xlink:href="#DejaVuSans-72" transform="translate(153.78125 0)"/>
       <use xlink:href="#DejaVuSans-6e" transform="translate(193.144531 0)"/>
       <use xlink:href="#DejaVuSans-65" transform="translate(256.523438 0)"/>
       <use xlink:href="#DejaVuSans-72" transform="translate(318.046875 0)"/>
       <use xlink:href="#DejaVuSans-20" transform="translate(359.160156 0)"/>
       <use xlink:href="#DejaVuSans-43" transform="translate(390.947266 0)"/>
       <use xlink:href="#DejaVuSans-61" transform="translate(460.771484 0)"/>
       <use xlink:href="#DejaVuSans-6e" transform="translate(522.050781 0)"/>
       <use xlink:href="#DejaVuSans-79" transform="translate(585.429688 0)"/>
       <use xlink:href="#DejaVuSans-6f" transform="translate(644.609375 0)"/>
       <use xlink:href="#DejaVuSans-6e" transform="translate(705.791016 0)"/>
       <use xlink:href="#DejaVuSans-2c" transform="translate(769.169922 0)"/>
       <use xlink:href="#DejaVuSans-20" transform="translate(800.957031 0)"/>
       <use xlink:href="#DejaVuSans-4f" transform="translate(832.744141 0)"/>
       <use xlink:href="#DejaVuSans-72" transform="translate(911.455078 0)"/>
       <use xlink:href="#DejaVuSans-65" transform="translate(950.318359 0)"/>
       <use xlink:href="#DejaVuSans-67" transform="translate(1011.841797 0)"/>
       <use xlink:href="#DejaVuSans-6f" transform="translate(1075.318359 0)"/>
       <use xlink:href="#DejaVuSans-6e" transform="translate(1136.5 0)"/>
      </g>
     </g>
    </g>
    <g id="ytick_19">
     <g id="line2d_20">
      <g>
       <use xlink:href="#mb4e508a317" x="307.915" y="447.968479" style="fill: #333333; stroke: #333333; stroke-width: 0.8"/>
      </g>
     </g>
     <g id="text_30">
      <!-- Christmas Mountain, Wisconsin -->
      <g style="fill: #333333" transform="translate(50.5675 454.047229) scale(0.16 -0.16)">
       <use xlink:href="#DejaVuSans-43"/>
       <use xlink:href="#DejaVuSans-68" transform="translate(69.824219 0)"/>
       <use xlink:href="#DejaVuSans-72" transform="translate(133.203125 0)"/>
       <use xlink:href="#DejaVuSans-69" transform="translate(174.316406 0)"/>
       <use xlink:href="#DejaVuSans-73" transform="translate(202.099609 0)"/>
       <use xlink:href="#DejaVuSans-74" transform="translate(254.199219 0)"/>
       <use xlink:href="#DejaVuSans-6d" transform="translate(293.408203 0)"/>
       <use xlink:href="#DejaVuSans-61" transform="translate(390.820312 0)"/>
       <use xlink:href="#DejaVuSans-73" transform="translate(452.099609 0)"/>
       <use xlink:href="#DejaVuSans-20" transform="translate(504.199219 0)"/>
       <use xlink:href="#DejaVuSans-4d" transform="translate(535.986328 0)"/>
       <use xlink:href="#DejaVuSans-6f" transform="translate(622.265625 0)"/>
       <use xlink:href="#DejaVuSans-75" transform="translate(683.447266 0)"/>
       <use xlink:href="#DejaVuSans-6e" transform="translate(746.826172 0)"/>
       <use xlink:href="#DejaVuSans-74" transform="translate(810.205078 0)"/>
       <use xlink:href="#DejaVuSans-61" transform="translate(849.414062 0)"/>
       <use xlink:href="#DejaVuSans-69" transform="translate(910.693359 0)"/>
       <use xlink:href="#DejaVuSans-6e" transform="translate(938.476562 0)"/>
       <use xlink:href="#DejaVuSans-2c" transform="translate(1001.855469 0)"/>
       <use xlink:href="#DejaVuSans-20" transform="translate(1033.642578 0)"/>
       <use xlink:href="#DejaVuSans-57" transform="translate(1065.429688 0)"/>
       <use xlink:href="#DejaVuSans-69" transform="translate(1162.056641 0)"/>
       <use xlink:href="#DejaVuSans-73" transform="translate(1189.839844 0)"/>
       <use xlink:href="#DejaVuSans-63" transform="translate(1241.939453 0)"/>
       <use xlink:href="#DejaVuSans-6f" transform="translate(1296.919922 0)"/>
       <use xlink:href="#DejaVuSans-6e" transform="translate(1358.101562 0)"/>
       <use xlink:href="#DejaVuSans-73" transform="translate(1421.480469 0)"/>
       <use xlink:href="#DejaVuSans-69" transform="translate(1473.580078 0)"/>
       <use xlink:href="#DejaVuSans-6e" transform="translate(1501.363281 0)"/>
      </g>
     </g>
    </g>
    <g id="ytick_20">
     <g id="line2d_21">
      <g>
       <use xlink:href="#mb4e508a317" x="307.915" y="419.25308" style="fill: #333333; stroke: #333333; stroke-width: 0.8"/>
      </g>
     </g>
     <g id="text_31">
      <!-- Ragged Mountain, New Hampshire -->
      <g style="fill: #333333" transform="translate(23.695 425.33183) scale(0.16 -0.16)">
       <defs>
        <path id="DejaVuSans-52" d="M 2841 2188 
Q 3044 2119 3236 1894 
Q 3428 1669 3622 1275 
L 4263 0 
L 3584 0 
L 2988 1197 
Q 2756 1666 2539 1819 
Q 2322 1972 1947 1972 
L 1259 1972 
L 1259 0 
L 628 0 
L 628 4666 
L 2053 4666 
Q 2853 4666 3247 4331 
Q 3641 3997 3641 3322 
Q 3641 2881 3436 2590 
Q 3231 2300 2841 2188 
z
M 1259 4147 
L 1259 2491 
L 2053 2491 
Q 2509 2491 2742 2702 
Q 2975 2913 2975 3322 
Q 2975 3731 2742 3939 
Q 2509 4147 2053 4147 
L 1259 4147 
z
" transform="scale(0.015625)"/>
        <path id="DejaVuSans-4e" d="M 628 4666 
L 1478 4666 
L 3547 763 
L 3547 4666 
L 4159 4666 
L 4159 0 
L 3309 0 
L 1241 3903 
L 1241 0 
L 628 0 
L 628 4666 
z
" transform="scale(0.015625)"/>
       </defs>
       <use xlink:href="#DejaVuSans-52"/>
       <use xlink:href="#DejaVuSans-61" transform="translate(67.232422 0)"/>
       <use xlink:href="#DejaVuSans-67" transform="translate(128.511719 0)"/>
       <use xlink:href="#DejaVuSans-67" transform="translate(191.988281 0)"/>
       <use xlink:href="#DejaVuSans-65" transform="translate(255.464844 0)"/>
       <use xlink:href="#DejaVuSans-64" transform="translate(316.988281 0)"/>
       <use xlink:href="#DejaVuSans-20" transform="translate(380.464844 0)"/>
       <use xlink:href="#DejaVuSans-4d" transform="translate(412.251953 0)"/>
       <use xlink:href="#DejaVuSans-6f" transform="translate(498.53125 0)"/>
       <use xlink:href="#DejaVuSans-75" transform="translate(559.712891 0)"/>
       <use xlink:href="#DejaVuSans-6e" transform="translate(623.091797 0)"/>
       <use xlink:href="#DejaVuSans-74" transform="translate(686.470703 0)"/>
       <use xlink:href="#DejaVuSans-61" transform="translate(725.679688 0)"/>
       <use xlink:href="#DejaVuSans-69" transform="translate(786.958984 0)"/>
       <use xlink:href="#DejaVuSans-6e" transform="translate(814.742188 0)"/>
       <use xlink:href="#DejaVuSans-2c" transform="translate(878.121094 0)"/>
       <use xlink:href="#DejaVuSans-20" transform="translate(909.908203 0)"/>
       <use xlink:href="#DejaVuSans-4e" transform="translate(941.695312 0)"/>
       <use xlink:href="#DejaVuSans-65" transform="translate(1016.5 0)"/>
       <use xlink:href="#DejaVuSans-77" transform="translate(1078.023438 0)"/>
       <use xlink:href="#DejaVuSans-20" transform="translate(1159.810547 0)"/>
       <use xlink:href="#DejaVuSans-48" transform="translate(1191.597656 0)"/>
       <use xlink:href="#DejaVuSans-61" transform="translate(1266.792969 0)"/>
       <use xlink:href="#DejaVuSans-6d" transform="translate(1328.072266 0)"/>
       <use xlink:href="#DejaVuSans-70" transform="translate(1425.484375 0)"/>
       <use xlink:href="#DejaVuSans-73" transform="translate(1488.960938 0)"/>
       <use xlink:href="#DejaVuSans-68" transform="translate(1541.060547 0)"/>
       <use xlink:href="#DejaVuSans-69" transform="translate(1604.439453 0)"/>
       <use xlink:href="#DejaVuSans-72" transform="translate(1632.222656 0)"/>
       <use xlink:href="#DejaVuSans-65" transform="translate(1671.085938 0)"/>
      </g>
     </g>
    </g>
   </g>
   <g id="line2d_22">
    <path d="M 307.915 703.248375 
L 307.915 393.696375 
" clip-path="url(#pc046dffffe)" style="fill: none; stroke: #000000; stroke-width: 0.8; stroke-linecap: square"/>
   </g>
   <g id="text_32">
    <!-- 0.018 -->
    <g style="fill: #333333" transform="translate(344.401123 682.10667) scale(0.16 -0.16)">
     <use xlink:href="#DejaVuSans-30"/>
     <use xlink:href="#DejaVuSans-2e" transform="translate(63.623047 0)"/>
     <use xlink:href="#DejaVuSans-30" transform="translate(95.410156 0)"/>
     <use xlink:href="#DejaVuSans-31" transform="translate(159.033203 0)"/>
     <use xlink:href="#DejaVuSans-38" transform="translate(222.65625 0)"/>
    </g>
   </g>
   <g id="text_33">
    <!-- 0.021 -->
    <g style="fill: #333333" transform="translate(348.762511 653.391271) scale(0.16 -0.16)">
     <use xlink:href="#DejaVuSans-30"/>
     <use xlink:href="#DejaVuSans-2e" transform="translate(63.623047 0)"/>
     <use xlink:href="#DejaVuSans-30" transform="translate(95.410156 0)"/>
     <use xlink:href="#DejaVuSans-32" transform="translate(159.033203 0)"/>
     <use xlink:href="#DejaVuSans-31" transform="translate(222.65625 0)"/>
    </g>
   </g>
   <g id="text_34">
    <!-- 0.021 -->
    <g style="fill: #333333" transform="translate(349.123227 624.675872) scale(0.16 -0.16)">
     <use xlink:href="#DejaVuSans-30"/>
     <use xlink:href="#DejaVuSans-2e" transform="translate(63.623047 0)"/>
     <use xlink:href="#DejaVuSans-30" transform="translate(95.410156 0)"/>
     <use xlink:href="#DejaVuSans-32" transform="translate(159.033203 0)"/>
     <use xlink:href="#DejaVuSans-31" transform="translate(222.65625 0)"/>
    </g>
   </g>
   <g id="text_35">
    <!-- 0.022 -->
    <g style="fill: #333333" transform="translate(351.047047 595.960473) scale(0.16 -0.16)">
     <use xlink:href="#DejaVuSans-30"/>
     <use xlink:href="#DejaVuSans-2e" transform="translate(63.623047 0)"/>
     <use xlink:href="#DejaVuSans-30" transform="translate(95.410156 0)"/>
     <use xlink:href="#DejaVuSans-32" transform="translate(159.033203 0)"/>
     <use xlink:href="#DejaVuSans-32" transform="translate(222.65625 0)"/>
    </g>
   </g>
   <g id="text_36">
    <!-- 0.023 -->
    <g style="fill: #333333" transform="translate(351.877788 567.245074) scale(0.16 -0.16)">
     <use xlink:href="#DejaVuSans-30"/>
     <use xlink:href="#DejaVuSans-2e" transform="translate(63.623047 0)"/>
     <use xlink:href="#DejaVuSans-30" transform="translate(95.410156 0)"/>
     <use xlink:href="#DejaVuSans-32" transform="translate(159.033203 0)"/>
     <use xlink:href="#DejaVuSans-33" transform="translate(222.65625 0)"/>
    </g>
   </g>
   <g id="text_37">
    <!-- 0.023 -->
    <g style="fill: #333333" transform="translate(351.877788 538.529676) scale(0.16 -0.16)">
     <use xlink:href="#DejaVuSans-30"/>
     <use xlink:href="#DejaVuSans-2e" transform="translate(63.623047 0)"/>
     <use xlink:href="#DejaVuSans-30" transform="translate(95.410156 0)"/>
     <use xlink:href="#DejaVuSans-32" transform="translate(159.033203 0)"/>
     <use xlink:href="#DejaVuSans-33" transform="translate(222.65625 0)"/>
    </g>
   </g>
   <g id="text_38">
    <!-- 0.025 -->
    <g style="fill: #333333" transform="translate(355.61612 509.814277) scale(0.16 -0.16)">
     <defs>
      <path id="DejaVuSans-35" d="M 691 4666 
L 3169 4666 
L 3169 4134 
L 1269 4134 
L 1269 2991 
Q 1406 3038 1543 3061 
Q 1681 3084 1819 3084 
Q 2600 3084 3056 2656 
Q 3513 2228 3513 1497 
Q 3513 744 3044 326 
Q 2575 -91 1722 -91 
Q 1428 -91 1123 -41 
Q 819 9 494 109 
L 494 744 
Q 775 591 1075 516 
Q 1375 441 1709 441 
Q 2250 441 2565 725 
Q 2881 1009 2881 1497 
Q 2881 1984 2565 2268 
Q 2250 2553 1709 2553 
Q 1456 2553 1204 2497 
Q 953 2441 691 2322 
L 691 4666 
z
" transform="scale(0.015625)"/>
     </defs>
     <use xlink:href="#DejaVuSans-30"/>
     <use xlink:href="#DejaVuSans-2e" transform="translate(63.623047 0)"/>
     <use xlink:href="#DejaVuSans-30" transform="translate(95.410156 0)"/>
     <use xlink:href="#DejaVuSans-32" transform="translate(159.033203 0)"/>
     <use xlink:href="#DejaVuSans-35" transform="translate(222.65625 0)"/>
    </g>
   </g>
   <g id="text_39">
    <!-- 0.025 -->
    <g style="fill: #333333" transform="translate(355.61612 481.098878) scale(0.16 -0.16)">
     <use xlink:href="#DejaVuSans-30"/>
     <use xlink:href="#DejaVuSans-2e" transform="translate(63.623047 0)"/>
     <use xlink:href="#DejaVuSans-30" transform="translate(95.410156 0)"/>
     <use xlink:href="#DejaVuSans-32" transform="translate(159.033203 0)"/>
     <use xlink:href="#DejaVuSans-35" transform="translate(222.65625 0)"/>
    </g>
   </g>
   <g id="text_40">
    <!-- 0.025 -->
    <g style="fill: #333333" transform="translate(355.61612 452.383479) scale(0.16 -0.16)">
     <use xlink:href="#DejaVuSans-30"/>
     <use xlink:href="#DejaVuSans-2e" transform="translate(63.623047 0)"/>
     <use xlink:href="#DejaVuSans-30" transform="translate(95.410156 0)"/>
     <use xlink:href="#DejaVuSans-32" transform="translate(159.033203 0)"/>
     <use xlink:href="#DejaVuSans-35" transform="translate(222.65625 0)"/>
    </g>
   </g>
   <g id="text_41">
    <!-- 0.025 -->
    <g style="fill: #333333" transform="translate(355.96168 423.66808) scale(0.16 -0.16)">
     <use xlink:href="#DejaVuSans-30"/>
     <use xlink:href="#DejaVuSans-2e" transform="translate(63.623047 0)"/>
     <use xlink:href="#DejaVuSans-30" transform="translate(95.410156 0)"/>
     <use xlink:href="#DejaVuSans-32" transform="translate(159.033203 0)"/>
     <use xlink:href="#DejaVuSans-35" transform="translate(222.65625 0)"/>
    </g>
   </g>
  </g>
  <g id="text_42">
   <!-- The Midwest has 9 out of the top 10 -->
   <g style="fill: #666666" transform="translate(307.915 48.580215) scale(0.16 -0.16)">
    <use xlink:href="#DejaVuSans-54"/>
    <use xlink:href="#DejaVuSans-68" transform="translate(61.083984 0)"/>
    <use xlink:href="#DejaVuSans-65" transform="translate(124.462891 0)"/>
    <use xlink:href="#DejaVuSans-20" transform="translate(185.986328 0)"/>
    <use xlink:href="#DejaVuSans-4d" transform="translate(217.773438 0)"/>
    <use xlink:href="#DejaVuSans-69" transform="translate(304.052734 0)"/>
    <use xlink:href="#DejaVuSans-64" transform="translate(331.835938 0)"/>
    <use xlink:href="#DejaVuSans-77" transform="translate(395.3125 0)"/>
    <use xlink:href="#DejaVuSans-65" transform="translate(477.099609 0)"/>
    <use xlink:href="#DejaVuSans-73" transform="translate(538.623047 0)"/>
    <use xlink:href="#DejaVuSans-74" transform="translate(590.722656 0)"/>
    <use xlink:href="#DejaVuSans-20" transform="translate(629.931641 0)"/>
    <use xlink:href="#DejaVuSans-68" transform="translate(661.71875 0)"/>
    <use xlink:href="#DejaVuSans-61" transform="translate(725.097656 0)"/>
    <use xlink:href="#DejaVuSans-73" transform="translate(786.376953 0)"/>
    <use xlink:href="#DejaVuSans-20" transform="translate(838.476562 0)"/>
    <use xlink:href="#DejaVuSans-39" transform="translate(870.263672 0)"/>
    <use xlink:href="#DejaVuSans-20" transform="translate(933.886719 0)"/>
    <use xlink:href="#DejaVuSans-6f" transform="translate(965.673828 0)"/>
    <use xlink:href="#DejaVuSans-75" transform="translate(1026.855469 0)"/>
    <use xlink:href="#DejaVuSans-74" transform="translate(1090.234375 0)"/>
    <use xlink:href="#DejaVuSans-20" transform="translate(1129.443359 0)"/>
    <use xlink:href="#DejaVuSans-6f" transform="translate(1161.230469 0)"/>
    <use xlink:href="#DejaVuSans-66" transform="translate(1222.412109 0)"/>
    <use xlink:href="#DejaVuSans-20" transform="translate(1257.617188 0)"/>
    <use xlink:href="#DejaVuSans-74" transform="translate(1289.404297 0)"/>
    <use xlink:href="#DejaVuSans-68" transform="translate(1328.613281 0)"/>
    <use xlink:href="#DejaVuSans-65" transform="translate(1391.992188 0)"/>
    <use xlink:href="#DejaVuSans-20" transform="translate(1453.515625 0)"/>
    <use xlink:href="#DejaVuSans-74" transform="translate(1485.302734 0)"/>
    <use xlink:href="#DejaVuSans-6f" transform="translate(1524.511719 0)"/>
    <use xlink:href="#DejaVuSans-70" transform="translate(1585.693359 0)"/>
    <use xlink:href="#DejaVuSans-20" transform="translate(1649.169922 0)"/>
    <use xlink:href="#DejaVuSans-31" transform="translate(1680.957031 0)"/>
    <use xlink:href="#DejaVuSans-30" transform="translate(1744.580078 0)"/>
   </g>
  </g>
 </g>
 <defs>
  <clipPath id="p72b50a1bc2">
   <rect x="307.915" y="73.344375" width="518.132857" height="309.552"/>
  </clipPath>
  <clipPath id="pc046dffffe">
   <rect x="307.915" y="393.696375" width="518.132857" height="309.552"/>
  </clipPath>
 </defs>
</svg>
