<?xml version="1.0" encoding="utf-8" standalone="no"?>
<!DOCTYPE svg PUBLIC "-//W3C//DTD SVG 1.1//EN"
  "http://www.w3.org/Graphics/SVG/1.1/DTD/svg11.dtd">
<svg xmlns:xlink="http://www.w3.org/1999/xlink" width="870.2175pt" height="710.448375pt" viewBox="0 0 870.2175 710.448375" xmlns="http://www.w3.org/2000/svg" version="1.1">
 <metadata>
  <rdf:RDF xmlns:dc="http://purl.org/dc/elements/1.1/" xmlns:cc="http://creativecommons.org/ns#" xmlns:rdf="http://www.w3.org/1999/02/22-rdf-syntax-ns#">
   <cc:Work>
    <dc:type rdf:resource="http://purl.org/dc/dcmitype/StillImage"/>
    <dc:date>2025-08-03T10:42:11.049377</dc:date>
    <dc:format>image/svg+xml</dc:format>
    <dc:creator>
     <cc:Agent>
      <dc:title>Matplotlib v3.10.3, https://matplotlib.org/</dc:title>
     </cc:Agent>
    </dc:creator>
   </cc:Work>
  </rdf:RDF>
 </metadata>
 <defs>
  <style type="text/css">*{stroke-linejoin: round; stroke-linecap: butt}</style>
 </defs>
 <g id="figure_1">
  <g id="patch_1">
   <path d="M 0 710.448375 
L 870.2175 710.448375 
L 870.2175 0 
L 0 0 
z
" style="fill: #f8f9fa"/>
  </g>
  <g id="axes_1">
   <g id="patch_2">
    <path d="M 278.9175 382.896375 
L 837.640198 382.896375 
L 837.640198 73.344375 
L 278.9175 73.344375 
z
" style="fill: #f8f9fa"/>
   </g>
   <g id="patch_3">
    <path d="M 278.9175 368.82583 
L 629.282508 368.82583 
L 629.282508 345.85351 
L 278.9175 345.85351 
z
" clip-path="url(#pbe31acfff4)" style="fill: #5b8db8"/>
   </g>
   <g id="patch_4">
    <path d="M 278.9175 340.110431 
L 629.720464 340.110431 
L 629.720464 317.138112 
L 278.9175 317.138112 
z
" clip-path="url(#pbe31acfff4)" style="fill: #5b8db8"/>
   </g>
   <g id="patch_5">
    <path d="M 278.9175 311.395032 
L 634.756961 311.395032 
L 634.756961 288.422713 
L 278.9175 288.422713 
z
" clip-path="url(#pbe31acfff4)" style="fill: #5b8db8"/>
   </g>
   <g id="patch_6">
    <path d="M 278.9175 282.679633 
L 639.538446 282.679633 
L 639.538446 259.707314 
L 278.9175 259.707314 
z
" clip-path="url(#pbe31acfff4)" style="fill: #5b8db8"/>
   </g>
   <g id="patch_7">
    <path d="M 278.9175 253.964234 
L 680.152812 253.964234 
L 680.152812 230.991915 
L 278.9175 230.991915 
z
" clip-path="url(#pbe31acfff4)" style="fill: #5b8db8"/>
   </g>
   <g id="patch_8">
    <path d="M 278.9175 225.248835 
L 730.504031 225.248835 
L 730.504031 202.276516 
L 278.9175 202.276516 
z
" clip-path="url(#pbe31acfff4)" style="fill: #5b8db8"/>
   </g>
   <g id="patch_9">
    <path d="M 278.9175 196.533436 
L 740.413909 196.533436 
L 740.413909 173.561117 
L 278.9175 173.561117 
z
" clip-path="url(#pbe31acfff4)" style="fill: #5b8db8"/>
   </g>
   <g id="patch_10">
    <path d="M 278.9175 167.818037 
L 751.472304 167.818037 
L 751.472304 144.845718 
L 278.9175 144.845718 
z
" clip-path="url(#pbe31acfff4)" style="fill: #5b8db8"/>
   </g>
   <g id="patch_11">
    <path d="M 278.9175 139.102638 
L 792.29956 139.102638 
L 792.29956 116.130319 
L 278.9175 116.130319 
z
" clip-path="url(#pbe31acfff4)" style="fill: #5b8db8"/>
   </g>
   <g id="patch_12">
    <path d="M 278.9175 110.38724 
L 811.034356 110.38724 
L 811.034356 87.41492 
L 278.9175 87.41492 
z
" clip-path="url(#pbe31acfff4)" style="fill: #5b8db8"/>
   </g>
   <g id="matplotlib.axis_1">
    <g id="xtick_1"/>
    <g id="xtick_2"/>
    <g id="xtick_3"/>
    <g id="xtick_4"/>
    <g id="xtick_5"/>
    <g id="xtick_6"/>
   </g>
   <g id="matplotlib.axis_2">
    <g id="ytick_1">
     <g id="line2d_1">
      <defs>
       <path id="med21af9502" d="M 0 0 
L -3.5 0 
" style="stroke: #333333; stroke-width: 0.8"/>
      </defs>
      <g>
       <use xlink:href="#med21af9502" x="278.9175" y="357.33967" style="fill: #333333; stroke: #333333; stroke-width: 0.8"/>
      </g>
     </g>
     <g id="text_1">
      <!-- Ferguson Ridge, Oregon -->
      <g style="fill: #333333" transform="translate(79.1675 363.41842) scale(0.16 -0.16)">
       <defs>
        <path id="DejaVuSans-46" d="M 628 4666 
L 3309 4666 
L 3309 4134 
L 1259 4134 
L 1259 2759 
L 3109 2759 
L 3109 2228 
L 1259 2228 
L 1259 0 
L 628 0 
L 628 4666 
z
" transform="scale(0.015625)"/>
        <path id="DejaVuSans-65" d="M 3597 1894 
L 3597 1613 
L 953 1613 
Q 991 1019 1311 708 
Q 1631 397 2203 397 
Q 2534 397 2845 478 
Q 3156 559 3463 722 
L 3463 178 
Q 3153 47 2828 -22 
Q 2503 -91 2169 -91 
Q 1331 -91 842 396 
Q 353 884 353 1716 
Q 353 2575 817 3079 
Q 1281 3584 2069 3584 
Q 2775 3584 3186 3129 
Q 3597 2675 3597 1894 
z
M 3022 2063 
Q 3016 2534 2758 2815 
Q 2500 3097 2075 3097 
Q 1594 3097 1305 2825 
Q 1016 2553 972 2059 
L 3022 2063 
z
" transform="scale(0.015625)"/>
        <path id="DejaVuSans-72" d="M 2631 2963 
Q 2534 3019 2420 3045 
Q 2306 3072 2169 3072 
Q 1681 3072 1420 2755 
Q 1159 2438 1159 1844 
L 1159 0 
L 581 0 
L 581 3500 
L 1159 3500 
L 1159 2956 
Q 1341 3275 1631 3429 
Q 1922 3584 2338 3584 
Q 2397 3584 2469 3576 
Q 2541 3569 2628 3553 
L 2631 2963 
z
" transform="scale(0.015625)"/>
        <path id="DejaVuSans-67" d="M 2906 1791 
Q 2906 2416 2648 2759 
Q 2391 3103 1925 3103 
Q 1463 3103 1205 2759 
Q 947 2416 947 1791 
Q 947 1169 1205 825 
Q 1463 481 1925 481 
Q 2391 481 2648 825 
Q 2906 1169 2906 1791 
z
M 3481 434 
Q 3481 -459 3084 -895 
Q 2688 -1331 1869 -1331 
Q 1566 -1331 1297 -1286 
Q 1028 -1241 775 -1147 
L 775 -588 
Q 1028 -725 1275 -790 
Q 1522 -856 1778 -856 
Q 2344 -856 2625 -561 
Q 2906 -266 2906 331 
L 2906 616 
Q 2728 306 2450 153 
Q 2172 0 1784 0 
Q 1141 0 747 490 
Q 353 981 353 1791 
Q 353 2603 747 3093 
Q 1141 3584 1784 3584 
Q 2172 3584 2450 3431 
Q 2728 3278 2906 2969 
L 2906 3500 
L 3481 3500 
L 3481 434 
z
" transform="scale(0.015625)"/>
        <path id="DejaVuSans-75" d="M 544 1381 
L 544 3500 
L 1119 3500 
L 1119 1403 
Q 1119 906 1312 657 
Q 1506 409 1894 409 
Q 2359 409 2629 706 
Q 2900 1003 2900 1516 
L 2900 3500 
L 3475 3500 
L 3475 0 
L 2900 0 
L 2900 538 
Q 2691 219 2414 64 
Q 2138 -91 1772 -91 
Q 1169 -91 856 284 
Q 544 659 544 1381 
z
M 1991 3584 
L 1991 3584 
z
" transform="scale(0.015625)"/>
        <path id="DejaVuSans-73" d="M 2834 3397 
L 2834 2853 
Q 2591 2978 2328 3040 
Q 2066 3103 1784 3103 
Q 1356 3103 1142 2972 
Q 928 2841 928 2578 
Q 928 2378 1081 2264 
Q 1234 2150 1697 2047 
L 1894 2003 
Q 2506 1872 2764 1633 
Q 3022 1394 3022 966 
Q 3022 478 2636 193 
Q 2250 -91 1575 -91 
Q 1294 -91 989 -36 
Q 684 19 347 128 
L 347 722 
Q 666 556 975 473 
Q 1284 391 1588 391 
Q 1994 391 2212 530 
Q 2431 669 2431 922 
Q 2431 1156 2273 1281 
Q 2116 1406 1581 1522 
L 1381 1569 
Q 847 1681 609 1914 
Q 372 2147 372 2553 
Q 372 3047 722 3315 
Q 1072 3584 1716 3584 
Q 2034 3584 2315 3537 
Q 2597 3491 2834 3397 
z
" transform="scale(0.015625)"/>
        <path id="DejaVuSans-6f" d="M 1959 3097 
Q 1497 3097 1228 2736 
Q 959 2375 959 1747 
Q 959 1119 1226 758 
Q 1494 397 1959 397 
Q 2419 397 2687 759 
Q 2956 1122 2956 1747 
Q 2956 2369 2687 2733 
Q 2419 3097 1959 3097 
z
M 1959 3584 
Q 2709 3584 3137 3096 
Q 3566 2609 3566 1747 
Q 3566 888 3137 398 
Q 2709 -91 1959 -91 
Q 1206 -91 779 398 
Q 353 888 353 1747 
Q 353 2609 779 3096 
Q 1206 3584 1959 3584 
z
" transform="scale(0.015625)"/>
        <path id="DejaVuSans-6e" d="M 3513 2113 
L 3513 0 
L 2938 0 
L 2938 2094 
Q 2938 2591 2744 2837 
Q 2550 3084 2163 3084 
Q 1697 3084 1428 2787 
Q 1159 2491 1159 1978 
L 1159 0 
L 581 0 
L 581 3500 
L 1159 3500 
L 1159 2956 
Q 1366 3272 1645 3428 
Q 1925 3584 2291 3584 
Q 2894 3584 3203 3211 
Q 3513 2838 3513 2113 
z
" transform="scale(0.015625)"/>
        <path id="DejaVuSans-20" transform="scale(0.015625)"/>
        <path id="DejaVuSans-52" d="M 2841 2188 
Q 3044 2119 3236 1894 
Q 3428 1669 3622 1275 
L 4263 0 
L 3584 0 
L 2988 1197 
Q 2756 1666 2539 1819 
Q 2322 1972 1947 1972 
L 1259 1972 
L 1259 0 
L 628 0 
L 628 4666 
L 2053 4666 
Q 2853 4666 3247 4331 
Q 3641 3997 3641 3322 
Q 3641 2881 3436 2590 
Q 3231 2300 2841 2188 
z
M 1259 4147 
L 1259 2491 
L 2053 2491 
Q 2509 2491 2742 2702 
Q 2975 2913 2975 3322 
Q 2975 3731 2742 3939 
Q 2509 4147 2053 4147 
L 1259 4147 
z
" transform="scale(0.015625)"/>
        <path id="DejaVuSans-69" d="M 603 3500 
L 1178 3500 
L 1178 0 
L 603 0 
L 603 3500 
z
M 603 4863 
L 1178 4863 
L 1178 4134 
L 603 4134 
L 603 4863 
z
" transform="scale(0.015625)"/>
        <path id="DejaVuSans-64" d="M 2906 2969 
L 2906 4863 
L 3481 4863 
L 3481 0 
L 2906 0 
L 2906 525 
Q 2725 213 2448 61 
Q 2172 -91 1784 -91 
Q 1150 -91 751 415 
Q 353 922 353 1747 
Q 353 2572 751 3078 
Q 1150 3584 1784 3584 
Q 2172 3584 2448 3432 
Q 2725 3281 2906 2969 
z
M 947 1747 
Q 947 1113 1208 752 
Q 1469 391 1925 391 
Q 2381 391 2643 752 
Q 2906 1113 2906 1747 
Q 2906 2381 2643 2742 
Q 2381 3103 1925 3103 
Q 1469 3103 1208 2742 
Q 947 2381 947 1747 
z
" transform="scale(0.015625)"/>
        <path id="DejaVuSans-2c" d="M 750 794 
L 1409 794 
L 1409 256 
L 897 -744 
L 494 -744 
L 750 256 
L 750 794 
z
" transform="scale(0.015625)"/>
        <path id="DejaVuSans-4f" d="M 2522 4238 
Q 1834 4238 1429 3725 
Q 1025 3213 1025 2328 
Q 1025 1447 1429 934 
Q 1834 422 2522 422 
Q 3209 422 3611 934 
Q 4013 1447 4013 2328 
Q 4013 3213 3611 3725 
Q 3209 4238 2522 4238 
z
M 2522 4750 
Q 3503 4750 4090 4092 
Q 4678 3434 4678 2328 
Q 4678 1225 4090 567 
Q 3503 -91 2522 -91 
Q 1538 -91 948 565 
Q 359 1222 359 2328 
Q 359 3434 948 4092 
Q 1538 4750 2522 4750 
z
" transform="scale(0.015625)"/>
       </defs>
       <use xlink:href="#DejaVuSans-46"/>
       <use xlink:href="#DejaVuSans-65" transform="translate(52.019531 0)"/>
       <use xlink:href="#DejaVuSans-72" transform="translate(113.542969 0)"/>
       <use xlink:href="#DejaVuSans-67" transform="translate(152.90625 0)"/>
       <use xlink:href="#DejaVuSans-75" transform="translate(216.382812 0)"/>
       <use xlink:href="#DejaVuSans-73" transform="translate(279.761719 0)"/>
       <use xlink:href="#DejaVuSans-6f" transform="translate(331.861328 0)"/>
       <use xlink:href="#DejaVuSans-6e" transform="translate(393.042969 0)"/>
       <use xlink:href="#DejaVuSans-20" transform="translate(456.421875 0)"/>
       <use xlink:href="#DejaVuSans-52" transform="translate(488.208984 0)"/>
       <use xlink:href="#DejaVuSans-69" transform="translate(557.691406 0)"/>
       <use xlink:href="#DejaVuSans-64" transform="translate(585.474609 0)"/>
       <use xlink:href="#DejaVuSans-67" transform="translate(648.951172 0)"/>
       <use xlink:href="#DejaVuSans-65" transform="translate(712.427734 0)"/>
       <use xlink:href="#DejaVuSans-2c" transform="translate(773.951172 0)"/>
       <use xlink:href="#DejaVuSans-20" transform="translate(805.738281 0)"/>
       <use xlink:href="#DejaVuSans-4f" transform="translate(837.525391 0)"/>
       <use xlink:href="#DejaVuSans-72" transform="translate(916.236328 0)"/>
       <use xlink:href="#DejaVuSans-65" transform="translate(955.099609 0)"/>
       <use xlink:href="#DejaVuSans-67" transform="translate(1016.623047 0)"/>
       <use xlink:href="#DejaVuSans-6f" transform="translate(1080.099609 0)"/>
       <use xlink:href="#DejaVuSans-6e" transform="translate(1141.28125 0)"/>
      </g>
     </g>
    </g>
    <g id="ytick_2">
     <g id="line2d_2">
      <g>
       <use xlink:href="#med21af9502" x="278.9175" y="328.624271" style="fill: #333333; stroke: #333333; stroke-width: 0.8"/>
      </g>
     </g>
     <g id="text_2">
      <!-- Bald Mountain, Idaho -->
      <g style="fill: #333333" transform="translate(102.1275 334.703021) scale(0.16 -0.16)">
       <defs>
        <path id="DejaVuSans-42" d="M 1259 2228 
L 1259 519 
L 2272 519 
Q 2781 519 3026 730 
Q 3272 941 3272 1375 
Q 3272 1813 3026 2020 
Q 2781 2228 2272 2228 
L 1259 2228 
z
M 1259 4147 
L 1259 2741 
L 2194 2741 
Q 2656 2741 2882 2914 
Q 3109 3088 3109 3444 
Q 3109 3797 2882 3972 
Q 2656 4147 2194 4147 
L 1259 4147 
z
M 628 4666 
L 2241 4666 
Q 2963 4666 3353 4366 
Q 3744 4066 3744 3513 
Q 3744 3084 3544 2831 
Q 3344 2578 2956 2516 
Q 3422 2416 3680 2098 
Q 3938 1781 3938 1306 
Q 3938 681 3513 340 
Q 3088 0 2303 0 
L 628 0 
L 628 4666 
z
" transform="scale(0.015625)"/>
        <path id="DejaVuSans-61" d="M 2194 1759 
Q 1497 1759 1228 1600 
Q 959 1441 959 1056 
Q 959 750 1161 570 
Q 1363 391 1709 391 
Q 2188 391 2477 730 
Q 2766 1069 2766 1631 
L 2766 1759 
L 2194 1759 
z
M 3341 1997 
L 3341 0 
L 2766 0 
L 2766 531 
Q 2569 213 2275 61 
Q 1981 -91 1556 -91 
Q 1019 -91 701 211 
Q 384 513 384 1019 
Q 384 1609 779 1909 
Q 1175 2209 1959 2209 
L 2766 2209 
L 2766 2266 
Q 2766 2663 2505 2880 
Q 2244 3097 1772 3097 
Q 1472 3097 1187 3025 
Q 903 2953 641 2809 
L 641 3341 
Q 956 3463 1253 3523 
Q 1550 3584 1831 3584 
Q 2591 3584 2966 3190 
Q 3341 2797 3341 1997 
z
" transform="scale(0.015625)"/>
        <path id="DejaVuSans-6c" d="M 603 4863 
L 1178 4863 
L 1178 0 
L 603 0 
L 603 4863 
z
" transform="scale(0.015625)"/>
        <path id="DejaVuSans-4d" d="M 628 4666 
L 1569 4666 
L 2759 1491 
L 3956 4666 
L 4897 4666 
L 4897 0 
L 4281 0 
L 4281 4097 
L 3078 897 
L 2444 897 
L 1241 4097 
L 1241 0 
L 628 0 
L 628 4666 
z
" transform="scale(0.015625)"/>
        <path id="DejaVuSans-74" d="M 1172 4494 
L 1172 3500 
L 2356 3500 
L 2356 3053 
L 1172 3053 
L 1172 1153 
Q 1172 725 1289 603 
Q 1406 481 1766 481 
L 2356 481 
L 2356 0 
L 1766 0 
Q 1100 0 847 248 
Q 594 497 594 1153 
L 594 3053 
L 172 3053 
L 172 3500 
L 594 3500 
L 594 4494 
L 1172 4494 
z
" transform="scale(0.015625)"/>
        <path id="DejaVuSans-49" d="M 628 4666 
L 1259 4666 
L 1259 0 
L 628 0 
L 628 4666 
z
" transform="scale(0.015625)"/>
        <path id="DejaVuSans-68" d="M 3513 2113 
L 3513 0 
L 2938 0 
L 2938 2094 
Q 2938 2591 2744 2837 
Q 2550 3084 2163 3084 
Q 1697 3084 1428 2787 
Q 1159 2491 1159 1978 
L 1159 0 
L 581 0 
L 581 4863 
L 1159 4863 
L 1159 2956 
Q 1366 3272 1645 3428 
Q 1925 3584 2291 3584 
Q 2894 3584 3203 3211 
Q 3513 2838 3513 2113 
z
" transform="scale(0.015625)"/>
       </defs>
       <use xlink:href="#DejaVuSans-42"/>
       <use xlink:href="#DejaVuSans-61" transform="translate(68.603516 0)"/>
       <use xlink:href="#DejaVuSans-6c" transform="translate(129.882812 0)"/>
       <use xlink:href="#DejaVuSans-64" transform="translate(157.666016 0)"/>
       <use xlink:href="#DejaVuSans-20" transform="translate(221.142578 0)"/>
       <use xlink:href="#DejaVuSans-4d" transform="translate(252.929688 0)"/>
       <use xlink:href="#DejaVuSans-6f" transform="translate(339.208984 0)"/>
       <use xlink:href="#DejaVuSans-75" transform="translate(400.390625 0)"/>
       <use xlink:href="#DejaVuSans-6e" transform="translate(463.769531 0)"/>
       <use xlink:href="#DejaVuSans-74" transform="translate(527.148438 0)"/>
       <use xlink:href="#DejaVuSans-61" transform="translate(566.357422 0)"/>
       <use xlink:href="#DejaVuSans-69" transform="translate(627.636719 0)"/>
       <use xlink:href="#DejaVuSans-6e" transform="translate(655.419922 0)"/>
       <use xlink:href="#DejaVuSans-2c" transform="translate(718.798828 0)"/>
       <use xlink:href="#DejaVuSans-20" transform="translate(750.585938 0)"/>
       <use xlink:href="#DejaVuSans-49" transform="translate(782.373047 0)"/>
       <use xlink:href="#DejaVuSans-64" transform="translate(811.865234 0)"/>
       <use xlink:href="#DejaVuSans-61" transform="translate(875.341797 0)"/>
       <use xlink:href="#DejaVuSans-68" transform="translate(936.621094 0)"/>
       <use xlink:href="#DejaVuSans-6f" transform="translate(1000 0)"/>
      </g>
     </g>
    </g>
    <g id="ytick_3">
     <g id="line2d_3">
      <g>
       <use xlink:href="#med21af9502" x="278.9175" y="299.908872" style="fill: #333333; stroke: #333333; stroke-width: 0.8"/>
      </g>
     </g>
     <g id="text_3">
      <!-- Elko Snowbowl, Nevada -->
      <g style="fill: #333333" transform="translate(81.93 305.987622) scale(0.16 -0.16)">
       <defs>
        <path id="DejaVuSans-45" d="M 628 4666 
L 3578 4666 
L 3578 4134 
L 1259 4134 
L 1259 2753 
L 3481 2753 
L 3481 2222 
L 1259 2222 
L 1259 531 
L 3634 531 
L 3634 0 
L 628 0 
L 628 4666 
z
" transform="scale(0.015625)"/>
        <path id="DejaVuSans-6b" d="M 581 4863 
L 1159 4863 
L 1159 1991 
L 2875 3500 
L 3609 3500 
L 1753 1863 
L 3688 0 
L 2938 0 
L 1159 1709 
L 1159 0 
L 581 0 
L 581 4863 
z
" transform="scale(0.015625)"/>
        <path id="DejaVuSans-53" d="M 3425 4513 
L 3425 3897 
Q 3066 4069 2747 4153 
Q 2428 4238 2131 4238 
Q 1616 4238 1336 4038 
Q 1056 3838 1056 3469 
Q 1056 3159 1242 3001 
Q 1428 2844 1947 2747 
L 2328 2669 
Q 3034 2534 3370 2195 
Q 3706 1856 3706 1288 
Q 3706 609 3251 259 
Q 2797 -91 1919 -91 
Q 1588 -91 1214 -16 
Q 841 59 441 206 
L 441 856 
Q 825 641 1194 531 
Q 1563 422 1919 422 
Q 2459 422 2753 634 
Q 3047 847 3047 1241 
Q 3047 1584 2836 1778 
Q 2625 1972 2144 2069 
L 1759 2144 
Q 1053 2284 737 2584 
Q 422 2884 422 3419 
Q 422 4038 858 4394 
Q 1294 4750 2059 4750 
Q 2388 4750 2728 4690 
Q 3069 4631 3425 4513 
z
" transform="scale(0.015625)"/>
        <path id="DejaVuSans-77" d="M 269 3500 
L 844 3500 
L 1563 769 
L 2278 3500 
L 2956 3500 
L 3675 769 
L 4391 3500 
L 4966 3500 
L 4050 0 
L 3372 0 
L 2619 2869 
L 1863 0 
L 1184 0 
L 269 3500 
z
" transform="scale(0.015625)"/>
        <path id="DejaVuSans-62" d="M 3116 1747 
Q 3116 2381 2855 2742 
Q 2594 3103 2138 3103 
Q 1681 3103 1420 2742 
Q 1159 2381 1159 1747 
Q 1159 1113 1420 752 
Q 1681 391 2138 391 
Q 2594 391 2855 752 
Q 3116 1113 3116 1747 
z
M 1159 2969 
Q 1341 3281 1617 3432 
Q 1894 3584 2278 3584 
Q 2916 3584 3314 3078 
Q 3713 2572 3713 1747 
Q 3713 922 3314 415 
Q 2916 -91 2278 -91 
Q 1894 -91 1617 61 
Q 1341 213 1159 525 
L 1159 0 
L 581 0 
L 581 4863 
L 1159 4863 
L 1159 2969 
z
" transform="scale(0.015625)"/>
        <path id="DejaVuSans-4e" d="M 628 4666 
L 1478 4666 
L 3547 763 
L 3547 4666 
L 4159 4666 
L 4159 0 
L 3309 0 
L 1241 3903 
L 1241 0 
L 628 0 
L 628 4666 
z
" transform="scale(0.015625)"/>
        <path id="DejaVuSans-76" d="M 191 3500 
L 800 3500 
L 1894 563 
L 2988 3500 
L 3597 3500 
L 2284 0 
L 1503 0 
L 191 3500 
z
" transform="scale(0.015625)"/>
       </defs>
       <use xlink:href="#DejaVuSans-45"/>
       <use xlink:href="#DejaVuSans-6c" transform="translate(63.183594 0)"/>
       <use xlink:href="#DejaVuSans-6b" transform="translate(90.966797 0)"/>
       <use xlink:href="#DejaVuSans-6f" transform="translate(145.251953 0)"/>
       <use xlink:href="#DejaVuSans-20" transform="translate(206.433594 0)"/>
       <use xlink:href="#DejaVuSans-53" transform="translate(238.220703 0)"/>
       <use xlink:href="#DejaVuSans-6e" transform="translate(301.697266 0)"/>
       <use xlink:href="#DejaVuSans-6f" transform="translate(365.076172 0)"/>
       <use xlink:href="#DejaVuSans-77" transform="translate(426.257812 0)"/>
       <use xlink:href="#DejaVuSans-62" transform="translate(508.044922 0)"/>
       <use xlink:href="#DejaVuSans-6f" transform="translate(571.521484 0)"/>
       <use xlink:href="#DejaVuSans-77" transform="translate(632.703125 0)"/>
       <use xlink:href="#DejaVuSans-6c" transform="translate(714.490234 0)"/>
       <use xlink:href="#DejaVuSans-2c" transform="translate(742.273438 0)"/>
       <use xlink:href="#DejaVuSans-20" transform="translate(774.060547 0)"/>
       <use xlink:href="#DejaVuSans-4e" transform="translate(805.847656 0)"/>
       <use xlink:href="#DejaVuSans-65" transform="translate(880.652344 0)"/>
       <use xlink:href="#DejaVuSans-76" transform="translate(942.175781 0)"/>
       <use xlink:href="#DejaVuSans-61" transform="translate(1001.355469 0)"/>
       <use xlink:href="#DejaVuSans-64" transform="translate(1062.634766 0)"/>
       <use xlink:href="#DejaVuSans-61" transform="translate(1126.111328 0)"/>
      </g>
     </g>
    </g>
    <g id="ytick_4">
     <g id="line2d_4">
      <g>
       <use xlink:href="#med21af9502" x="278.9175" y="271.193473" style="fill: #333333; stroke: #333333; stroke-width: 0.8"/>
      </g>
     </g>
     <g id="text_4">
      <!-- Montana Snowbowl, Montana -->
      <g style="fill: #333333" transform="translate(36.4975 277.272223) scale(0.16 -0.16)">
       <use xlink:href="#DejaVuSans-4d"/>
       <use xlink:href="#DejaVuSans-6f" transform="translate(86.279297 0)"/>
       <use xlink:href="#DejaVuSans-6e" transform="translate(147.460938 0)"/>
       <use xlink:href="#DejaVuSans-74" transform="translate(210.839844 0)"/>
       <use xlink:href="#DejaVuSans-61" transform="translate(250.048828 0)"/>
       <use xlink:href="#DejaVuSans-6e" transform="translate(311.328125 0)"/>
       <use xlink:href="#DejaVuSans-61" transform="translate(374.707031 0)"/>
       <use xlink:href="#DejaVuSans-20" transform="translate(435.986328 0)"/>
       <use xlink:href="#DejaVuSans-53" transform="translate(467.773438 0)"/>
       <use xlink:href="#DejaVuSans-6e" transform="translate(531.25 0)"/>
       <use xlink:href="#DejaVuSans-6f" transform="translate(594.628906 0)"/>
       <use xlink:href="#DejaVuSans-77" transform="translate(655.810547 0)"/>
       <use xlink:href="#DejaVuSans-62" transform="translate(737.597656 0)"/>
       <use xlink:href="#DejaVuSans-6f" transform="translate(801.074219 0)"/>
       <use xlink:href="#DejaVuSans-77" transform="translate(862.255859 0)"/>
       <use xlink:href="#DejaVuSans-6c" transform="translate(944.042969 0)"/>
       <use xlink:href="#DejaVuSans-2c" transform="translate(971.826172 0)"/>
       <use xlink:href="#DejaVuSans-20" transform="translate(1003.613281 0)"/>
       <use xlink:href="#DejaVuSans-4d" transform="translate(1035.400391 0)"/>
       <use xlink:href="#DejaVuSans-6f" transform="translate(1121.679688 0)"/>
       <use xlink:href="#DejaVuSans-6e" transform="translate(1182.861328 0)"/>
       <use xlink:href="#DejaVuSans-74" transform="translate(1246.240234 0)"/>
       <use xlink:href="#DejaVuSans-61" transform="translate(1285.449219 0)"/>
       <use xlink:href="#DejaVuSans-6e" transform="translate(1346.728516 0)"/>
       <use xlink:href="#DejaVuSans-61" transform="translate(1410.107422 0)"/>
      </g>
     </g>
    </g>
    <g id="ytick_5">
     <g id="line2d_5">
      <g>
       <use xlink:href="#med21af9502" x="278.9175" y="242.478074" style="fill: #333333; stroke: #333333; stroke-width: 0.8"/>
      </g>
     </g>
     <g id="text_5">
      <!-- Discovery Ski Area, Montana -->
      <g style="fill: #333333" transform="translate(42.09 248.556824) scale(0.16 -0.16)">
       <defs>
        <path id="DejaVuSans-44" d="M 1259 4147 
L 1259 519 
L 2022 519 
Q 2988 519 3436 956 
Q 3884 1394 3884 2338 
Q 3884 3275 3436 3711 
Q 2988 4147 2022 4147 
L 1259 4147 
z
M 628 4666 
L 1925 4666 
Q 3281 4666 3915 4102 
Q 4550 3538 4550 2338 
Q 4550 1131 3912 565 
Q 3275 0 1925 0 
L 628 0 
L 628 4666 
z
" transform="scale(0.015625)"/>
        <path id="DejaVuSans-63" d="M 3122 3366 
L 3122 2828 
Q 2878 2963 2633 3030 
Q 2388 3097 2138 3097 
Q 1578 3097 1268 2742 
Q 959 2388 959 1747 
Q 959 1106 1268 751 
Q 1578 397 2138 397 
Q 2388 397 2633 464 
Q 2878 531 3122 666 
L 3122 134 
Q 2881 22 2623 -34 
Q 2366 -91 2075 -91 
Q 1284 -91 818 406 
Q 353 903 353 1747 
Q 353 2603 823 3093 
Q 1294 3584 2113 3584 
Q 2378 3584 2631 3529 
Q 2884 3475 3122 3366 
z
" transform="scale(0.015625)"/>
        <path id="DejaVuSans-79" d="M 2059 -325 
Q 1816 -950 1584 -1140 
Q 1353 -1331 966 -1331 
L 506 -1331 
L 506 -850 
L 844 -850 
Q 1081 -850 1212 -737 
Q 1344 -625 1503 -206 
L 1606 56 
L 191 3500 
L 800 3500 
L 1894 763 
L 2988 3500 
L 3597 3500 
L 2059 -325 
z
" transform="scale(0.015625)"/>
        <path id="DejaVuSans-41" d="M 2188 4044 
L 1331 1722 
L 3047 1722 
L 2188 4044 
z
M 1831 4666 
L 2547 4666 
L 4325 0 
L 3669 0 
L 3244 1197 
L 1141 1197 
L 716 0 
L 50 0 
L 1831 4666 
z
" transform="scale(0.015625)"/>
       </defs>
       <use xlink:href="#DejaVuSans-44"/>
       <use xlink:href="#DejaVuSans-69" transform="translate(77.001953 0)"/>
       <use xlink:href="#DejaVuSans-73" transform="translate(104.785156 0)"/>
       <use xlink:href="#DejaVuSans-63" transform="translate(156.884766 0)"/>
       <use xlink:href="#DejaVuSans-6f" transform="translate(211.865234 0)"/>
       <use xlink:href="#DejaVuSans-76" transform="translate(273.046875 0)"/>
       <use xlink:href="#DejaVuSans-65" transform="translate(332.226562 0)"/>
       <use xlink:href="#DejaVuSans-72" transform="translate(393.75 0)"/>
       <use xlink:href="#DejaVuSans-79" transform="translate(434.863281 0)"/>
       <use xlink:href="#DejaVuSans-20" transform="translate(494.042969 0)"/>
       <use xlink:href="#DejaVuSans-53" transform="translate(525.830078 0)"/>
       <use xlink:href="#DejaVuSans-6b" transform="translate(589.306641 0)"/>
       <use xlink:href="#DejaVuSans-69" transform="translate(647.216797 0)"/>
       <use xlink:href="#DejaVuSans-20" transform="translate(675 0)"/>
       <use xlink:href="#DejaVuSans-41" transform="translate(706.787109 0)"/>
       <use xlink:href="#DejaVuSans-72" transform="translate(775.195312 0)"/>
       <use xlink:href="#DejaVuSans-65" transform="translate(814.058594 0)"/>
       <use xlink:href="#DejaVuSans-61" transform="translate(875.582031 0)"/>
       <use xlink:href="#DejaVuSans-2c" transform="translate(936.861328 0)"/>
       <use xlink:href="#DejaVuSans-20" transform="translate(968.648438 0)"/>
       <use xlink:href="#DejaVuSans-4d" transform="translate(1000.435547 0)"/>
       <use xlink:href="#DejaVuSans-6f" transform="translate(1086.714844 0)"/>
       <use xlink:href="#DejaVuSans-6e" transform="translate(1147.896484 0)"/>
       <use xlink:href="#DejaVuSans-74" transform="translate(1211.275391 0)"/>
       <use xlink:href="#DejaVuSans-61" transform="translate(1250.484375 0)"/>
       <use xlink:href="#DejaVuSans-6e" transform="translate(1311.763672 0)"/>
       <use xlink:href="#DejaVuSans-61" transform="translate(1375.142578 0)"/>
      </g>
     </g>
    </g>
    <g id="ytick_6">
     <g id="line2d_6">
      <g>
       <use xlink:href="#med21af9502" x="278.9175" y="213.762676" style="fill: #333333; stroke: #333333; stroke-width: 0.8"/>
      </g>
     </g>
     <g id="text_6">
      <!-- Maverick Mountain, Montana -->
      <g style="fill: #333333" transform="translate(40.3575 219.841426) scale(0.16 -0.16)">
       <use xlink:href="#DejaVuSans-4d"/>
       <use xlink:href="#DejaVuSans-61" transform="translate(86.279297 0)"/>
       <use xlink:href="#DejaVuSans-76" transform="translate(147.558594 0)"/>
       <use xlink:href="#DejaVuSans-65" transform="translate(206.738281 0)"/>
       <use xlink:href="#DejaVuSans-72" transform="translate(268.261719 0)"/>
       <use xlink:href="#DejaVuSans-69" transform="translate(309.375 0)"/>
       <use xlink:href="#DejaVuSans-63" transform="translate(337.158203 0)"/>
       <use xlink:href="#DejaVuSans-6b" transform="translate(392.138672 0)"/>
       <use xlink:href="#DejaVuSans-20" transform="translate(450.048828 0)"/>
       <use xlink:href="#DejaVuSans-4d" transform="translate(481.835938 0)"/>
       <use xlink:href="#DejaVuSans-6f" transform="translate(568.115234 0)"/>
       <use xlink:href="#DejaVuSans-75" transform="translate(629.296875 0)"/>
       <use xlink:href="#DejaVuSans-6e" transform="translate(692.675781 0)"/>
       <use xlink:href="#DejaVuSans-74" transform="translate(756.054688 0)"/>
       <use xlink:href="#DejaVuSans-61" transform="translate(795.263672 0)"/>
       <use xlink:href="#DejaVuSans-69" transform="translate(856.542969 0)"/>
       <use xlink:href="#DejaVuSans-6e" transform="translate(884.326172 0)"/>
       <use xlink:href="#DejaVuSans-2c" transform="translate(947.705078 0)"/>
       <use xlink:href="#DejaVuSans-20" transform="translate(979.492188 0)"/>
       <use xlink:href="#DejaVuSans-4d" transform="translate(1011.279297 0)"/>
       <use xlink:href="#DejaVuSans-6f" transform="translate(1097.558594 0)"/>
       <use xlink:href="#DejaVuSans-6e" transform="translate(1158.740234 0)"/>
       <use xlink:href="#DejaVuSans-74" transform="translate(1222.119141 0)"/>
       <use xlink:href="#DejaVuSans-61" transform="translate(1261.328125 0)"/>
       <use xlink:href="#DejaVuSans-6e" transform="translate(1322.607422 0)"/>
       <use xlink:href="#DejaVuSans-61" transform="translate(1385.986328 0)"/>
      </g>
     </g>
    </g>
    <g id="ytick_7">
     <g id="line2d_7">
      <g>
       <use xlink:href="#med21af9502" x="278.9175" y="185.047277" style="fill: #333333; stroke: #333333; stroke-width: 0.8"/>
      </g>
     </g>
     <g id="text_7">
      <!-- Cottonwood Butte, Idaho -->
      <g style="fill: #333333" transform="translate(72.2825 191.126027) scale(0.16 -0.16)">
       <defs>
        <path id="DejaVuSans-43" d="M 4122 4306 
L 4122 3641 
Q 3803 3938 3442 4084 
Q 3081 4231 2675 4231 
Q 1875 4231 1450 3742 
Q 1025 3253 1025 2328 
Q 1025 1406 1450 917 
Q 1875 428 2675 428 
Q 3081 428 3442 575 
Q 3803 722 4122 1019 
L 4122 359 
Q 3791 134 3420 21 
Q 3050 -91 2638 -91 
Q 1578 -91 968 557 
Q 359 1206 359 2328 
Q 359 3453 968 4101 
Q 1578 4750 2638 4750 
Q 3056 4750 3426 4639 
Q 3797 4528 4122 4306 
z
" transform="scale(0.015625)"/>
       </defs>
       <use xlink:href="#DejaVuSans-43"/>
       <use xlink:href="#DejaVuSans-6f" transform="translate(69.824219 0)"/>
       <use xlink:href="#DejaVuSans-74" transform="translate(131.005859 0)"/>
       <use xlink:href="#DejaVuSans-74" transform="translate(170.214844 0)"/>
       <use xlink:href="#DejaVuSans-6f" transform="translate(209.423828 0)"/>
       <use xlink:href="#DejaVuSans-6e" transform="translate(270.605469 0)"/>
       <use xlink:href="#DejaVuSans-77" transform="translate(333.984375 0)"/>
       <use xlink:href="#DejaVuSans-6f" transform="translate(415.771484 0)"/>
       <use xlink:href="#DejaVuSans-6f" transform="translate(476.953125 0)"/>
       <use xlink:href="#DejaVuSans-64" transform="translate(538.134766 0)"/>
       <use xlink:href="#DejaVuSans-20" transform="translate(601.611328 0)"/>
       <use xlink:href="#DejaVuSans-42" transform="translate(633.398438 0)"/>
       <use xlink:href="#DejaVuSans-75" transform="translate(702.001953 0)"/>
       <use xlink:href="#DejaVuSans-74" transform="translate(765.380859 0)"/>
       <use xlink:href="#DejaVuSans-74" transform="translate(804.589844 0)"/>
       <use xlink:href="#DejaVuSans-65" transform="translate(843.798828 0)"/>
       <use xlink:href="#DejaVuSans-2c" transform="translate(905.322266 0)"/>
       <use xlink:href="#DejaVuSans-20" transform="translate(937.109375 0)"/>
       <use xlink:href="#DejaVuSans-49" transform="translate(968.896484 0)"/>
       <use xlink:href="#DejaVuSans-64" transform="translate(998.388672 0)"/>
       <use xlink:href="#DejaVuSans-61" transform="translate(1061.865234 0)"/>
       <use xlink:href="#DejaVuSans-68" transform="translate(1123.144531 0)"/>
       <use xlink:href="#DejaVuSans-6f" transform="translate(1186.523438 0)"/>
      </g>
     </g>
    </g>
    <g id="ytick_8">
     <g id="line2d_8">
      <g>
       <use xlink:href="#med21af9502" x="278.9175" y="156.331878" style="fill: #333333; stroke: #333333; stroke-width: 0.8"/>
      </g>
     </g>
     <g id="text_8">
      <!-- Bear Paw Ski Bowl, Montana -->
      <g style="fill: #333333" transform="translate(45.5475 162.410628) scale(0.16 -0.16)">
       <defs>
        <path id="DejaVuSans-50" d="M 1259 4147 
L 1259 2394 
L 2053 2394 
Q 2494 2394 2734 2622 
Q 2975 2850 2975 3272 
Q 2975 3691 2734 3919 
Q 2494 4147 2053 4147 
L 1259 4147 
z
M 628 4666 
L 2053 4666 
Q 2838 4666 3239 4311 
Q 3641 3956 3641 3272 
Q 3641 2581 3239 2228 
Q 2838 1875 2053 1875 
L 1259 1875 
L 1259 0 
L 628 0 
L 628 4666 
z
" transform="scale(0.015625)"/>
       </defs>
       <use xlink:href="#DejaVuSans-42"/>
       <use xlink:href="#DejaVuSans-65" transform="translate(68.603516 0)"/>
       <use xlink:href="#DejaVuSans-61" transform="translate(130.126953 0)"/>
       <use xlink:href="#DejaVuSans-72" transform="translate(191.40625 0)"/>
       <use xlink:href="#DejaVuSans-20" transform="translate(232.519531 0)"/>
       <use xlink:href="#DejaVuSans-50" transform="translate(264.306641 0)"/>
       <use xlink:href="#DejaVuSans-61" transform="translate(320.109375 0)"/>
       <use xlink:href="#DejaVuSans-77" transform="translate(381.388672 0)"/>
       <use xlink:href="#DejaVuSans-20" transform="translate(463.175781 0)"/>
       <use xlink:href="#DejaVuSans-53" transform="translate(494.962891 0)"/>
       <use xlink:href="#DejaVuSans-6b" transform="translate(558.439453 0)"/>
       <use xlink:href="#DejaVuSans-69" transform="translate(616.349609 0)"/>
       <use xlink:href="#DejaVuSans-20" transform="translate(644.132812 0)"/>
       <use xlink:href="#DejaVuSans-42" transform="translate(675.919922 0)"/>
       <use xlink:href="#DejaVuSans-6f" transform="translate(744.523438 0)"/>
       <use xlink:href="#DejaVuSans-77" transform="translate(805.705078 0)"/>
       <use xlink:href="#DejaVuSans-6c" transform="translate(887.492188 0)"/>
       <use xlink:href="#DejaVuSans-2c" transform="translate(915.275391 0)"/>
       <use xlink:href="#DejaVuSans-20" transform="translate(947.0625 0)"/>
       <use xlink:href="#DejaVuSans-4d" transform="translate(978.849609 0)"/>
       <use xlink:href="#DejaVuSans-6f" transform="translate(1065.128906 0)"/>
       <use xlink:href="#DejaVuSans-6e" transform="translate(1126.310547 0)"/>
       <use xlink:href="#DejaVuSans-74" transform="translate(1189.689453 0)"/>
       <use xlink:href="#DejaVuSans-61" transform="translate(1228.898438 0)"/>
       <use xlink:href="#DejaVuSans-6e" transform="translate(1290.177734 0)"/>
       <use xlink:href="#DejaVuSans-61" transform="translate(1353.556641 0)"/>
      </g>
     </g>
    </g>
    <g id="ytick_9">
     <g id="line2d_9">
      <g>
       <use xlink:href="#med21af9502" x="278.9175" y="127.616479" style="fill: #333333; stroke: #333333; stroke-width: 0.8"/>
      </g>
     </g>
     <g id="text_9">
      <!-- Turner Mountain, Montana -->
      <g style="fill: #333333" transform="translate(62.015 133.695229) scale(0.16 -0.16)">
       <defs>
        <path id="DejaVuSans-54" d="M -19 4666 
L 3928 4666 
L 3928 4134 
L 2272 4134 
L 2272 0 
L 1638 0 
L 1638 4134 
L -19 4134 
L -19 4666 
z
" transform="scale(0.015625)"/>
       </defs>
       <use xlink:href="#DejaVuSans-54"/>
       <use xlink:href="#DejaVuSans-75" transform="translate(45.958984 0)"/>
       <use xlink:href="#DejaVuSans-72" transform="translate(109.337891 0)"/>
       <use xlink:href="#DejaVuSans-6e" transform="translate(148.701172 0)"/>
       <use xlink:href="#DejaVuSans-65" transform="translate(212.080078 0)"/>
       <use xlink:href="#DejaVuSans-72" transform="translate(273.603516 0)"/>
       <use xlink:href="#DejaVuSans-20" transform="translate(314.716797 0)"/>
       <use xlink:href="#DejaVuSans-4d" transform="translate(346.503906 0)"/>
       <use xlink:href="#DejaVuSans-6f" transform="translate(432.783203 0)"/>
       <use xlink:href="#DejaVuSans-75" transform="translate(493.964844 0)"/>
       <use xlink:href="#DejaVuSans-6e" transform="translate(557.34375 0)"/>
       <use xlink:href="#DejaVuSans-74" transform="translate(620.722656 0)"/>
       <use xlink:href="#DejaVuSans-61" transform="translate(659.931641 0)"/>
       <use xlink:href="#DejaVuSans-69" transform="translate(721.210938 0)"/>
       <use xlink:href="#DejaVuSans-6e" transform="translate(748.994141 0)"/>
       <use xlink:href="#DejaVuSans-2c" transform="translate(812.373047 0)"/>
       <use xlink:href="#DejaVuSans-20" transform="translate(844.160156 0)"/>
       <use xlink:href="#DejaVuSans-4d" transform="translate(875.947266 0)"/>
       <use xlink:href="#DejaVuSans-6f" transform="translate(962.226562 0)"/>
       <use xlink:href="#DejaVuSans-6e" transform="translate(1023.408203 0)"/>
       <use xlink:href="#DejaVuSans-74" transform="translate(1086.787109 0)"/>
       <use xlink:href="#DejaVuSans-61" transform="translate(1125.996094 0)"/>
       <use xlink:href="#DejaVuSans-6e" transform="translate(1187.275391 0)"/>
       <use xlink:href="#DejaVuSans-61" transform="translate(1250.654297 0)"/>
      </g>
     </g>
    </g>
    <g id="ytick_10">
     <g id="line2d_10">
      <g>
       <use xlink:href="#med21af9502" x="278.9175" y="98.90108" style="fill: #333333; stroke: #333333; stroke-width: 0.8"/>
      </g>
     </g>
     <g id="text_10">
      <!-- Badger Mountain, Washington -->
      <g style="fill: #333333" transform="translate(30.58 104.97983) scale(0.16 -0.16)">
       <defs>
        <path id="DejaVuSans-57" d="M 213 4666 
L 850 4666 
L 1831 722 
L 2809 4666 
L 3519 4666 
L 4500 722 
L 5478 4666 
L 6119 4666 
L 4947 0 
L 4153 0 
L 3169 4050 
L 2175 0 
L 1381 0 
L 213 4666 
z
" transform="scale(0.015625)"/>
       </defs>
       <use xlink:href="#DejaVuSans-42"/>
       <use xlink:href="#DejaVuSans-61" transform="translate(68.603516 0)"/>
       <use xlink:href="#DejaVuSans-64" transform="translate(129.882812 0)"/>
       <use xlink:href="#DejaVuSans-67" transform="translate(193.359375 0)"/>
       <use xlink:href="#DejaVuSans-65" transform="translate(256.835938 0)"/>
       <use xlink:href="#DejaVuSans-72" transform="translate(318.359375 0)"/>
       <use xlink:href="#DejaVuSans-20" transform="translate(359.472656 0)"/>
       <use xlink:href="#DejaVuSans-4d" transform="translate(391.259766 0)"/>
       <use xlink:href="#DejaVuSans-6f" transform="translate(477.539062 0)"/>
       <use xlink:href="#DejaVuSans-75" transform="translate(538.720703 0)"/>
       <use xlink:href="#DejaVuSans-6e" transform="translate(602.099609 0)"/>
       <use xlink:href="#DejaVuSans-74" transform="translate(665.478516 0)"/>
       <use xlink:href="#DejaVuSans-61" transform="translate(704.6875 0)"/>
       <use xlink:href="#DejaVuSans-69" transform="translate(765.966797 0)"/>
       <use xlink:href="#DejaVuSans-6e" transform="translate(793.75 0)"/>
       <use xlink:href="#DejaVuSans-2c" transform="translate(857.128906 0)"/>
       <use xlink:href="#DejaVuSans-20" transform="translate(888.916016 0)"/>
       <use xlink:href="#DejaVuSans-57" transform="translate(920.703125 0)"/>
       <use xlink:href="#DejaVuSans-61" transform="translate(1013.205078 0)"/>
       <use xlink:href="#DejaVuSans-73" transform="translate(1074.484375 0)"/>
       <use xlink:href="#DejaVuSans-68" transform="translate(1126.583984 0)"/>
       <use xlink:href="#DejaVuSans-69" transform="translate(1189.962891 0)"/>
       <use xlink:href="#DejaVuSans-6e" transform="translate(1217.746094 0)"/>
       <use xlink:href="#DejaVuSans-67" transform="translate(1281.125 0)"/>
       <use xlink:href="#DejaVuSans-74" transform="translate(1344.601562 0)"/>
       <use xlink:href="#DejaVuSans-6f" transform="translate(1383.810547 0)"/>
       <use xlink:href="#DejaVuSans-6e" transform="translate(1444.992188 0)"/>
      </g>
     </g>
    </g>
   </g>
   <g id="line2d_11">
    <path d="M 278.9175 382.896375 
L 278.9175 73.344375 
" clip-path="url(#pbe31acfff4)" style="fill: none; stroke: #000000; stroke-width: 0.8; stroke-linecap: square"/>
   </g>
   <g id="text_11">
    <!-- 32.0 -->
    <g style="fill: #333333" transform="translate(635.851852 361.75467) scale(0.16 -0.16)">
     <defs>
      <path id="DejaVuSans-33" d="M 2597 2516 
Q 3050 2419 3304 2112 
Q 3559 1806 3559 1356 
Q 3559 666 3084 287 
Q 2609 -91 1734 -91 
Q 1441 -91 1130 -33 
Q 819 25 488 141 
L 488 750 
Q 750 597 1062 519 
Q 1375 441 1716 441 
Q 2309 441 2620 675 
Q 2931 909 2931 1356 
Q 2931 1769 2642 2001 
Q 2353 2234 1838 2234 
L 1294 2234 
L 1294 2753 
L 1863 2753 
Q 2328 2753 2575 2939 
Q 2822 3125 2822 3475 
Q 2822 3834 2567 4026 
Q 2313 4219 1838 4219 
Q 1578 4219 1281 4162 
Q 984 4106 628 3988 
L 628 4550 
Q 988 4650 1302 4700 
Q 1616 4750 1894 4750 
Q 2613 4750 3031 4423 
Q 3450 4097 3450 3541 
Q 3450 3153 3228 2886 
Q 3006 2619 2597 2516 
z
" transform="scale(0.015625)"/>
      <path id="DejaVuSans-32" d="M 1228 531 
L 3431 531 
L 3431 0 
L 469 0 
L 469 531 
Q 828 903 1448 1529 
Q 2069 2156 2228 2338 
Q 2531 2678 2651 2914 
Q 2772 3150 2772 3378 
Q 2772 3750 2511 3984 
Q 2250 4219 1831 4219 
Q 1534 4219 1204 4116 
Q 875 4013 500 3803 
L 500 4441 
Q 881 4594 1212 4672 
Q 1544 4750 1819 4750 
Q 2544 4750 2975 4387 
Q 3406 4025 3406 3419 
Q 3406 3131 3298 2873 
Q 3191 2616 2906 2266 
Q 2828 2175 2409 1742 
Q 1991 1309 1228 531 
z
" transform="scale(0.015625)"/>
      <path id="DejaVuSans-2e" d="M 684 794 
L 1344 794 
L 1344 0 
L 684 0 
L 684 794 
z
" transform="scale(0.015625)"/>
      <path id="DejaVuSans-30" d="M 2034 4250 
Q 1547 4250 1301 3770 
Q 1056 3291 1056 2328 
Q 1056 1369 1301 889 
Q 1547 409 2034 409 
Q 2525 409 2770 889 
Q 3016 1369 3016 2328 
Q 3016 3291 2770 3770 
Q 2525 4250 2034 4250 
z
M 2034 4750 
Q 2819 4750 3233 4129 
Q 3647 3509 3647 2328 
Q 3647 1150 3233 529 
Q 2819 -91 2034 -91 
Q 1250 -91 836 529 
Q 422 1150 422 2328 
Q 422 3509 836 4129 
Q 1250 4750 2034 4750 
z
" transform="scale(0.015625)"/>
     </defs>
     <use xlink:href="#DejaVuSans-33"/>
     <use xlink:href="#DejaVuSans-32" transform="translate(63.623047 0)"/>
     <use xlink:href="#DejaVuSans-2e" transform="translate(127.246094 0)"/>
     <use xlink:href="#DejaVuSans-30" transform="translate(159.033203 0)"/>
    </g>
   </g>
   <g id="text_12">
    <!-- 32.0 -->
    <g style="fill: #333333" transform="translate(636.289808 333.039271) scale(0.16 -0.16)">
     <use xlink:href="#DejaVuSans-33"/>
     <use xlink:href="#DejaVuSans-32" transform="translate(63.623047 0)"/>
     <use xlink:href="#DejaVuSans-2e" transform="translate(127.246094 0)"/>
     <use xlink:href="#DejaVuSans-30" transform="translate(159.033203 0)"/>
    </g>
   </g>
   <g id="text_13">
    <!-- 32.5 -->
    <g style="fill: #333333" transform="translate(641.326305 304.323872) scale(0.16 -0.16)">
     <defs>
      <path id="DejaVuSans-35" d="M 691 4666 
L 3169 4666 
L 3169 4134 
L 1269 4134 
L 1269 2991 
Q 1406 3038 1543 3061 
Q 1681 3084 1819 3084 
Q 2600 3084 3056 2656 
Q 3513 2228 3513 1497 
Q 3513 744 3044 326 
Q 2575 -91 1722 -91 
Q 1428 -91 1123 -41 
Q 819 9 494 109 
L 494 744 
Q 775 591 1075 516 
Q 1375 441 1709 441 
Q 2250 441 2565 725 
Q 2881 1009 2881 1497 
Q 2881 1984 2565 2268 
Q 2250 2553 1709 2553 
Q 1456 2553 1204 2497 
Q 953 2441 691 2322 
L 691 4666 
z
" transform="scale(0.015625)"/>
     </defs>
     <use xlink:href="#DejaVuSans-33"/>
     <use xlink:href="#DejaVuSans-32" transform="translate(63.623047 0)"/>
     <use xlink:href="#DejaVuSans-2e" transform="translate(127.246094 0)"/>
     <use xlink:href="#DejaVuSans-35" transform="translate(159.033203 0)"/>
    </g>
   </g>
   <g id="text_14">
    <!-- 32.9 -->
    <g style="fill: #333333" transform="translate(646.107789 275.608473) scale(0.16 -0.16)">
     <defs>
      <path id="DejaVuSans-39" d="M 703 97 
L 703 672 
Q 941 559 1184 500 
Q 1428 441 1663 441 
Q 2288 441 2617 861 
Q 2947 1281 2994 2138 
Q 2813 1869 2534 1725 
Q 2256 1581 1919 1581 
Q 1219 1581 811 2004 
Q 403 2428 403 3163 
Q 403 3881 828 4315 
Q 1253 4750 1959 4750 
Q 2769 4750 3195 4129 
Q 3622 3509 3622 2328 
Q 3622 1225 3098 567 
Q 2575 -91 1691 -91 
Q 1453 -91 1209 -44 
Q 966 3 703 97 
z
M 1959 2075 
Q 2384 2075 2632 2365 
Q 2881 2656 2881 3163 
Q 2881 3666 2632 3958 
Q 2384 4250 1959 4250 
Q 1534 4250 1286 3958 
Q 1038 3666 1038 3163 
Q 1038 2656 1286 2365 
Q 1534 2075 1959 2075 
z
" transform="scale(0.015625)"/>
     </defs>
     <use xlink:href="#DejaVuSans-33"/>
     <use xlink:href="#DejaVuSans-32" transform="translate(63.623047 0)"/>
     <use xlink:href="#DejaVuSans-2e" transform="translate(127.246094 0)"/>
     <use xlink:href="#DejaVuSans-39" transform="translate(159.033203 0)"/>
    </g>
   </g>
   <g id="text_15">
    <!-- 36.6 -->
    <g style="fill: #333333" transform="translate(686.722156 246.893074) scale(0.16 -0.16)">
     <defs>
      <path id="DejaVuSans-36" d="M 2113 2584 
Q 1688 2584 1439 2293 
Q 1191 2003 1191 1497 
Q 1191 994 1439 701 
Q 1688 409 2113 409 
Q 2538 409 2786 701 
Q 3034 994 3034 1497 
Q 3034 2003 2786 2293 
Q 2538 2584 2113 2584 
z
M 3366 4563 
L 3366 3988 
Q 3128 4100 2886 4159 
Q 2644 4219 2406 4219 
Q 1781 4219 1451 3797 
Q 1122 3375 1075 2522 
Q 1259 2794 1537 2939 
Q 1816 3084 2150 3084 
Q 2853 3084 3261 2657 
Q 3669 2231 3669 1497 
Q 3669 778 3244 343 
Q 2819 -91 2113 -91 
Q 1303 -91 875 529 
Q 447 1150 447 2328 
Q 447 3434 972 4092 
Q 1497 4750 2381 4750 
Q 2619 4750 2861 4703 
Q 3103 4656 3366 4563 
z
" transform="scale(0.015625)"/>
     </defs>
     <use xlink:href="#DejaVuSans-33"/>
     <use xlink:href="#DejaVuSans-36" transform="translate(63.623047 0)"/>
     <use xlink:href="#DejaVuSans-2e" transform="translate(127.246094 0)"/>
     <use xlink:href="#DejaVuSans-36" transform="translate(159.033203 0)"/>
    </g>
   </g>
   <g id="text_16">
    <!-- 41.2 -->
    <g style="fill: #333333" transform="translate(737.073375 218.177676) scale(0.16 -0.16)">
     <defs>
      <path id="DejaVuSans-34" d="M 2419 4116 
L 825 1625 
L 2419 1625 
L 2419 4116 
z
M 2253 4666 
L 3047 4666 
L 3047 1625 
L 3713 1625 
L 3713 1100 
L 3047 1100 
L 3047 0 
L 2419 0 
L 2419 1100 
L 313 1100 
L 313 1709 
L 2253 4666 
z
" transform="scale(0.015625)"/>
      <path id="DejaVuSans-31" d="M 794 531 
L 1825 531 
L 1825 4091 
L 703 3866 
L 703 4441 
L 1819 4666 
L 2450 4666 
L 2450 531 
L 3481 531 
L 3481 0 
L 794 0 
L 794 531 
z
" transform="scale(0.015625)"/>
     </defs>
     <use xlink:href="#DejaVuSans-34"/>
     <use xlink:href="#DejaVuSans-31" transform="translate(63.623047 0)"/>
     <use xlink:href="#DejaVuSans-2e" transform="translate(127.246094 0)"/>
     <use xlink:href="#DejaVuSans-32" transform="translate(159.033203 0)"/>
    </g>
   </g>
   <g id="text_17">
    <!-- 42.1 -->
    <g style="fill: #333333" transform="translate(746.983253 189.462277) scale(0.16 -0.16)">
     <use xlink:href="#DejaVuSans-34"/>
     <use xlink:href="#DejaVuSans-32" transform="translate(63.623047 0)"/>
     <use xlink:href="#DejaVuSans-2e" transform="translate(127.246094 0)"/>
     <use xlink:href="#DejaVuSans-31" transform="translate(159.033203 0)"/>
    </g>
   </g>
   <g id="text_18">
    <!-- 43.2 -->
    <g style="fill: #333333" transform="translate(758.041648 160.746878) scale(0.16 -0.16)">
     <use xlink:href="#DejaVuSans-34"/>
     <use xlink:href="#DejaVuSans-33" transform="translate(63.623047 0)"/>
     <use xlink:href="#DejaVuSans-2e" transform="translate(127.246094 0)"/>
     <use xlink:href="#DejaVuSans-32" transform="translate(159.033203 0)"/>
    </g>
   </g>
   <g id="text_19">
    <!-- 46.9 -->
    <g style="fill: #333333" transform="translate(798.868904 132.031479) scale(0.16 -0.16)">
     <use xlink:href="#DejaVuSans-34"/>
     <use xlink:href="#DejaVuSans-36" transform="translate(63.623047 0)"/>
     <use xlink:href="#DejaVuSans-2e" transform="translate(127.246094 0)"/>
     <use xlink:href="#DejaVuSans-39" transform="translate(159.033203 0)"/>
    </g>
   </g>
   <g id="text_20">
    <!-- 48.6 -->
    <g style="fill: #333333" transform="translate(817.6037 103.31608) scale(0.16 -0.16)">
     <defs>
      <path id="DejaVuSans-38" d="M 2034 2216 
Q 1584 2216 1326 1975 
Q 1069 1734 1069 1313 
Q 1069 891 1326 650 
Q 1584 409 2034 409 
Q 2484 409 2743 651 
Q 3003 894 3003 1313 
Q 3003 1734 2745 1975 
Q 2488 2216 2034 2216 
z
M 1403 2484 
Q 997 2584 770 2862 
Q 544 3141 544 3541 
Q 544 4100 942 4425 
Q 1341 4750 2034 4750 
Q 2731 4750 3128 4425 
Q 3525 4100 3525 3541 
Q 3525 3141 3298 2862 
Q 3072 2584 2669 2484 
Q 3125 2378 3379 2068 
Q 3634 1759 3634 1313 
Q 3634 634 3220 271 
Q 2806 -91 2034 -91 
Q 1263 -91 848 271 
Q 434 634 434 1313 
Q 434 1759 690 2068 
Q 947 2378 1403 2484 
z
M 1172 3481 
Q 1172 3119 1398 2916 
Q 1625 2713 2034 2713 
Q 2441 2713 2670 2916 
Q 2900 3119 2900 3481 
Q 2900 3844 2670 4047 
Q 2441 4250 2034 4250 
Q 1625 4250 1398 4047 
Q 1172 3844 1172 3481 
z
" transform="scale(0.015625)"/>
     </defs>
     <use xlink:href="#DejaVuSans-34"/>
     <use xlink:href="#DejaVuSans-38" transform="translate(63.623047 0)"/>
     <use xlink:href="#DejaVuSans-2e" transform="translate(127.246094 0)"/>
     <use xlink:href="#DejaVuSans-36" transform="translate(159.033203 0)"/>
    </g>
   </g>
   <g id="text_21">
    <!-- Top &amp; Bottom 10 Resorts by Vertical Feet per Dollar -->
    <g style="fill: #333333" transform="translate(278.9175 22.396875) scale(0.2 -0.2)">
     <defs>
      <path id="DejaVuSans-Bold-54" d="M 31 4666 
L 4331 4666 
L 4331 3756 
L 2784 3756 
L 2784 0 
L 1581 0 
L 1581 3756 
L 31 3756 
L 31 4666 
z
" transform="scale(0.015625)"/>
      <path id="DejaVuSans-Bold-6f" d="M 2203 2784 
Q 1831 2784 1636 2517 
Q 1441 2250 1441 1747 
Q 1441 1244 1636 976 
Q 1831 709 2203 709 
Q 2569 709 2762 976 
Q 2956 1244 2956 1747 
Q 2956 2250 2762 2517 
Q 2569 2784 2203 2784 
z
M 2203 3584 
Q 3106 3584 3614 3096 
Q 4122 2609 4122 1747 
Q 4122 884 3614 396 
Q 3106 -91 2203 -91 
Q 1297 -91 786 396 
Q 275 884 275 1747 
Q 275 2609 786 3096 
Q 1297 3584 2203 3584 
z
" transform="scale(0.015625)"/>
      <path id="DejaVuSans-Bold-70" d="M 1656 506 
L 1656 -1331 
L 538 -1331 
L 538 3500 
L 1656 3500 
L 1656 2988 
Q 1888 3294 2169 3439 
Q 2450 3584 2816 3584 
Q 3463 3584 3878 3070 
Q 4294 2556 4294 1747 
Q 4294 938 3878 423 
Q 3463 -91 2816 -91 
Q 2450 -91 2169 54 
Q 1888 200 1656 506 
z
M 2400 2772 
Q 2041 2772 1848 2508 
Q 1656 2244 1656 1747 
Q 1656 1250 1848 986 
Q 2041 722 2400 722 
Q 2759 722 2948 984 
Q 3138 1247 3138 1747 
Q 3138 2247 2948 2509 
Q 2759 2772 2400 2772 
z
" transform="scale(0.015625)"/>
      <path id="DejaVuSans-Bold-20" transform="scale(0.015625)"/>
      <path id="DejaVuSans-Bold-26" d="M 2497 3097 
L 3775 1691 
Q 3941 1909 4027 2181 
Q 4113 2453 4128 2797 
L 5100 2797 
Q 5053 2228 4879 1784 
Q 4706 1341 4397 1006 
L 5313 0 
L 3988 0 
L 3681 341 
Q 3353 122 2990 15 
Q 2628 -91 2222 -91 
Q 1400 -91 892 342 
Q 384 775 384 1459 
Q 384 1916 607 2267 
Q 831 2619 1338 2950 
Q 1206 3116 1143 3281 
Q 1081 3447 1081 3628 
Q 1081 4138 1478 4444 
Q 1875 4750 2534 4750 
Q 2819 4750 3126 4704 
Q 3434 4659 3769 4569 
L 3769 3700 
Q 3475 3850 3212 3922 
Q 2950 3994 2700 3994 
Q 2459 3994 2326 3901 
Q 2194 3809 2194 3641 
Q 2194 3534 2270 3398 
Q 2347 3263 2497 3097 
z
M 1875 2322 
Q 1672 2175 1569 1989 
Q 1466 1803 1466 1581 
Q 1466 1222 1731 969 
Q 1997 716 2369 716 
Q 2578 716 2759 780 
Q 2941 844 3097 972 
L 1875 2322 
z
" transform="scale(0.015625)"/>
      <path id="DejaVuSans-Bold-42" d="M 2456 2859 
Q 2741 2859 2887 2984 
Q 3034 3109 3034 3353 
Q 3034 3594 2887 3720 
Q 2741 3847 2456 3847 
L 1791 3847 
L 1791 2859 
L 2456 2859 
z
M 2497 819 
Q 2859 819 3042 972 
Q 3225 1125 3225 1434 
Q 3225 1738 3044 1889 
Q 2863 2041 2497 2041 
L 1791 2041 
L 1791 819 
L 2497 819 
z
M 3616 2497 
Q 4003 2384 4215 2081 
Q 4428 1778 4428 1338 
Q 4428 663 3972 331 
Q 3516 0 2584 0 
L 588 0 
L 588 4666 
L 2394 4666 
Q 3366 4666 3802 4372 
Q 4238 4078 4238 3431 
Q 4238 3091 4078 2852 
Q 3919 2613 3616 2497 
z
" transform="scale(0.015625)"/>
      <path id="DejaVuSans-Bold-74" d="M 1759 4494 
L 1759 3500 
L 2913 3500 
L 2913 2700 
L 1759 2700 
L 1759 1216 
Q 1759 972 1856 886 
Q 1953 800 2241 800 
L 2816 800 
L 2816 0 
L 1856 0 
Q 1194 0 917 276 
Q 641 553 641 1216 
L 641 2700 
L 84 2700 
L 84 3500 
L 641 3500 
L 641 4494 
L 1759 4494 
z
" transform="scale(0.015625)"/>
      <path id="DejaVuSans-Bold-6d" d="M 3781 2919 
Q 3994 3244 4286 3414 
Q 4578 3584 4928 3584 
Q 5531 3584 5847 3212 
Q 6163 2841 6163 2131 
L 6163 0 
L 5038 0 
L 5038 1825 
Q 5041 1866 5042 1909 
Q 5044 1953 5044 2034 
Q 5044 2406 4934 2573 
Q 4825 2741 4581 2741 
Q 4263 2741 4089 2478 
Q 3916 2216 3909 1719 
L 3909 0 
L 2784 0 
L 2784 1825 
Q 2784 2406 2684 2573 
Q 2584 2741 2328 2741 
Q 2006 2741 1831 2477 
Q 1656 2213 1656 1722 
L 1656 0 
L 531 0 
L 531 3500 
L 1656 3500 
L 1656 2988 
Q 1863 3284 2130 3434 
Q 2397 3584 2719 3584 
Q 3081 3584 3359 3409 
Q 3638 3234 3781 2919 
z
" transform="scale(0.015625)"/>
      <path id="DejaVuSans-Bold-31" d="M 750 831 
L 1813 831 
L 1813 3847 
L 722 3622 
L 722 4441 
L 1806 4666 
L 2950 4666 
L 2950 831 
L 4013 831 
L 4013 0 
L 750 0 
L 750 831 
z
" transform="scale(0.015625)"/>
      <path id="DejaVuSans-Bold-30" d="M 2944 2338 
Q 2944 3213 2780 3570 
Q 2616 3928 2228 3928 
Q 1841 3928 1675 3570 
Q 1509 3213 1509 2338 
Q 1509 1453 1675 1090 
Q 1841 728 2228 728 
Q 2613 728 2778 1090 
Q 2944 1453 2944 2338 
z
M 4147 2328 
Q 4147 1169 3647 539 
Q 3147 -91 2228 -91 
Q 1306 -91 806 539 
Q 306 1169 306 2328 
Q 306 3491 806 4120 
Q 1306 4750 2228 4750 
Q 3147 4750 3647 4120 
Q 4147 3491 4147 2328 
z
" transform="scale(0.015625)"/>
      <path id="DejaVuSans-Bold-52" d="M 2297 2597 
Q 2675 2597 2839 2737 
Q 3003 2878 3003 3200 
Q 3003 3519 2839 3656 
Q 2675 3794 2297 3794 
L 1791 3794 
L 1791 2597 
L 2297 2597 
z
M 1791 1766 
L 1791 0 
L 588 0 
L 588 4666 
L 2425 4666 
Q 3347 4666 3776 4356 
Q 4206 4047 4206 3378 
Q 4206 2916 3982 2619 
Q 3759 2322 3309 2181 
Q 3556 2125 3751 1926 
Q 3947 1728 4147 1325 
L 4800 0 
L 3519 0 
L 2950 1159 
Q 2778 1509 2601 1637 
Q 2425 1766 2131 1766 
L 1791 1766 
z
" transform="scale(0.015625)"/>
      <path id="DejaVuSans-Bold-65" d="M 4031 1759 
L 4031 1441 
L 1416 1441 
Q 1456 1047 1700 850 
Q 1944 653 2381 653 
Q 2734 653 3104 758 
Q 3475 863 3866 1075 
L 3866 213 
Q 3469 63 3072 -14 
Q 2675 -91 2278 -91 
Q 1328 -91 801 392 
Q 275 875 275 1747 
Q 275 2603 792 3093 
Q 1309 3584 2216 3584 
Q 3041 3584 3536 3087 
Q 4031 2591 4031 1759 
z
M 2881 2131 
Q 2881 2450 2695 2645 
Q 2509 2841 2209 2841 
Q 1884 2841 1681 2658 
Q 1478 2475 1428 2131 
L 2881 2131 
z
" transform="scale(0.015625)"/>
      <path id="DejaVuSans-Bold-73" d="M 3272 3391 
L 3272 2541 
Q 2913 2691 2578 2766 
Q 2244 2841 1947 2841 
Q 1628 2841 1473 2761 
Q 1319 2681 1319 2516 
Q 1319 2381 1436 2309 
Q 1553 2238 1856 2203 
L 2053 2175 
Q 2913 2066 3209 1816 
Q 3506 1566 3506 1031 
Q 3506 472 3093 190 
Q 2681 -91 1863 -91 
Q 1516 -91 1145 -36 
Q 775 19 384 128 
L 384 978 
Q 719 816 1070 734 
Q 1422 653 1784 653 
Q 2113 653 2278 743 
Q 2444 834 2444 1013 
Q 2444 1163 2330 1236 
Q 2216 1309 1875 1350 
L 1678 1375 
Q 931 1469 631 1722 
Q 331 1975 331 2491 
Q 331 3047 712 3315 
Q 1094 3584 1881 3584 
Q 2191 3584 2531 3537 
Q 2872 3491 3272 3391 
z
" transform="scale(0.015625)"/>
      <path id="DejaVuSans-Bold-72" d="M 3138 2547 
Q 2991 2616 2845 2648 
Q 2700 2681 2553 2681 
Q 2122 2681 1889 2404 
Q 1656 2128 1656 1613 
L 1656 0 
L 538 0 
L 538 3500 
L 1656 3500 
L 1656 2925 
Q 1872 3269 2151 3426 
Q 2431 3584 2822 3584 
Q 2878 3584 2943 3579 
Q 3009 3575 3134 3559 
L 3138 2547 
z
" transform="scale(0.015625)"/>
      <path id="DejaVuSans-Bold-62" d="M 2400 722 
Q 2759 722 2948 984 
Q 3138 1247 3138 1747 
Q 3138 2247 2948 2509 
Q 2759 2772 2400 2772 
Q 2041 2772 1848 2508 
Q 1656 2244 1656 1747 
Q 1656 1250 1848 986 
Q 2041 722 2400 722 
z
M 1656 2988 
Q 1888 3294 2169 3439 
Q 2450 3584 2816 3584 
Q 3463 3584 3878 3070 
Q 4294 2556 4294 1747 
Q 4294 938 3878 423 
Q 3463 -91 2816 -91 
Q 2450 -91 2169 54 
Q 1888 200 1656 506 
L 1656 0 
L 538 0 
L 538 4863 
L 1656 4863 
L 1656 2988 
z
" transform="scale(0.015625)"/>
      <path id="DejaVuSans-Bold-79" d="M 78 3500 
L 1197 3500 
L 2138 1125 
L 2938 3500 
L 4056 3500 
L 2584 -331 
Q 2363 -916 2067 -1148 
Q 1772 -1381 1288 -1381 
L 641 -1381 
L 641 -647 
L 991 -647 
Q 1275 -647 1404 -556 
Q 1534 -466 1606 -231 
L 1638 -134 
L 78 3500 
z
" transform="scale(0.015625)"/>
      <path id="DejaVuSans-Bold-56" d="M 31 4666 
L 1241 4666 
L 2478 1222 
L 3713 4666 
L 4922 4666 
L 3194 0 
L 1759 0 
L 31 4666 
z
" transform="scale(0.015625)"/>
      <path id="DejaVuSans-Bold-69" d="M 538 3500 
L 1656 3500 
L 1656 0 
L 538 0 
L 538 3500 
z
M 538 4863 
L 1656 4863 
L 1656 3950 
L 538 3950 
L 538 4863 
z
" transform="scale(0.015625)"/>
      <path id="DejaVuSans-Bold-63" d="M 3366 3391 
L 3366 2478 
Q 3138 2634 2908 2709 
Q 2678 2784 2431 2784 
Q 1963 2784 1702 2511 
Q 1441 2238 1441 1747 
Q 1441 1256 1702 982 
Q 1963 709 2431 709 
Q 2694 709 2930 787 
Q 3166 866 3366 1019 
L 3366 103 
Q 3103 6 2833 -42 
Q 2563 -91 2291 -91 
Q 1344 -91 809 395 
Q 275 881 275 1747 
Q 275 2613 809 3098 
Q 1344 3584 2291 3584 
Q 2566 3584 2833 3536 
Q 3100 3488 3366 3391 
z
" transform="scale(0.015625)"/>
      <path id="DejaVuSans-Bold-61" d="M 2106 1575 
Q 1756 1575 1579 1456 
Q 1403 1338 1403 1106 
Q 1403 894 1545 773 
Q 1688 653 1941 653 
Q 2256 653 2472 879 
Q 2688 1106 2688 1447 
L 2688 1575 
L 2106 1575 
z
M 3816 1997 
L 3816 0 
L 2688 0 
L 2688 519 
Q 2463 200 2181 54 
Q 1900 -91 1497 -91 
Q 953 -91 614 226 
Q 275 544 275 1050 
Q 275 1666 698 1953 
Q 1122 2241 2028 2241 
L 2688 2241 
L 2688 2328 
Q 2688 2594 2478 2717 
Q 2269 2841 1825 2841 
Q 1466 2841 1156 2769 
Q 847 2697 581 2553 
L 581 3406 
Q 941 3494 1303 3539 
Q 1666 3584 2028 3584 
Q 2975 3584 3395 3211 
Q 3816 2838 3816 1997 
z
" transform="scale(0.015625)"/>
      <path id="DejaVuSans-Bold-6c" d="M 538 4863 
L 1656 4863 
L 1656 0 
L 538 0 
L 538 4863 
z
" transform="scale(0.015625)"/>
      <path id="DejaVuSans-Bold-46" d="M 588 4666 
L 3834 4666 
L 3834 3756 
L 1791 3756 
L 1791 2888 
L 3713 2888 
L 3713 1978 
L 1791 1978 
L 1791 0 
L 588 0 
L 588 4666 
z
" transform="scale(0.015625)"/>
      <path id="DejaVuSans-Bold-44" d="M 1791 3756 
L 1791 909 
L 2222 909 
Q 2959 909 3348 1275 
Q 3738 1641 3738 2338 
Q 3738 3031 3350 3393 
Q 2963 3756 2222 3756 
L 1791 3756 
z
M 588 4666 
L 1856 4666 
Q 2919 4666 3439 4514 
Q 3959 4363 4331 4000 
Q 4659 3684 4818 3271 
Q 4978 2859 4978 2338 
Q 4978 1809 4818 1395 
Q 4659 981 4331 666 
Q 3956 303 3431 151 
Q 2906 0 1856 0 
L 588 0 
L 588 4666 
z
" transform="scale(0.015625)"/>
     </defs>
     <use xlink:href="#DejaVuSans-Bold-54"/>
     <use xlink:href="#DejaVuSans-Bold-6f" transform="translate(54.962891 0)"/>
     <use xlink:href="#DejaVuSans-Bold-70" transform="translate(123.664062 0)"/>
     <use xlink:href="#DejaVuSans-Bold-20" transform="translate(195.246094 0)"/>
     <use xlink:href="#DejaVuSans-Bold-26" transform="translate(230.060547 0)"/>
     <use xlink:href="#DejaVuSans-Bold-20" transform="translate(317.267578 0)"/>
     <use xlink:href="#DejaVuSans-Bold-42" transform="translate(352.082031 0)"/>
     <use xlink:href="#DejaVuSans-Bold-6f" transform="translate(428.302734 0)"/>
     <use xlink:href="#DejaVuSans-Bold-74" transform="translate(497.003906 0)"/>
     <use xlink:href="#DejaVuSans-Bold-74" transform="translate(544.806641 0)"/>
     <use xlink:href="#DejaVuSans-Bold-6f" transform="translate(592.609375 0)"/>
     <use xlink:href="#DejaVuSans-Bold-6d" transform="translate(661.310547 0)"/>
     <use xlink:href="#DejaVuSans-Bold-20" transform="translate(765.509766 0)"/>
     <use xlink:href="#DejaVuSans-Bold-31" transform="translate(800.324219 0)"/>
     <use xlink:href="#DejaVuSans-Bold-30" transform="translate(869.904297 0)"/>
     <use xlink:href="#DejaVuSans-Bold-20" transform="translate(939.484375 0)"/>
     <use xlink:href="#DejaVuSans-Bold-52" transform="translate(974.298828 0)"/>
     <use xlink:href="#DejaVuSans-Bold-65" transform="translate(1051.300781 0)"/>
     <use xlink:href="#DejaVuSans-Bold-73" transform="translate(1119.123047 0)"/>
     <use xlink:href="#DejaVuSans-Bold-6f" transform="translate(1178.644531 0)"/>
     <use xlink:href="#DejaVuSans-Bold-72" transform="translate(1247.345703 0)"/>
     <use xlink:href="#DejaVuSans-Bold-74" transform="translate(1296.662109 0)"/>
     <use xlink:href="#DejaVuSans-Bold-73" transform="translate(1344.464844 0)"/>
     <use xlink:href="#DejaVuSans-Bold-20" transform="translate(1403.986328 0)"/>
     <use xlink:href="#DejaVuSans-Bold-62" transform="translate(1438.800781 0)"/>
     <use xlink:href="#DejaVuSans-Bold-79" transform="translate(1510.382812 0)"/>
     <use xlink:href="#DejaVuSans-Bold-20" transform="translate(1575.568359 0)"/>
     <use xlink:href="#DejaVuSans-Bold-56" transform="translate(1610.382812 0)"/>
     <use xlink:href="#DejaVuSans-Bold-65" transform="translate(1682.275391 0)"/>
     <use xlink:href="#DejaVuSans-Bold-72" transform="translate(1750.097656 0)"/>
     <use xlink:href="#DejaVuSans-Bold-74" transform="translate(1799.414062 0)"/>
     <use xlink:href="#DejaVuSans-Bold-69" transform="translate(1847.216797 0)"/>
     <use xlink:href="#DejaVuSans-Bold-63" transform="translate(1881.494141 0)"/>
     <use xlink:href="#DejaVuSans-Bold-61" transform="translate(1940.771484 0)"/>
     <use xlink:href="#DejaVuSans-Bold-6c" transform="translate(2008.251953 0)"/>
     <use xlink:href="#DejaVuSans-Bold-20" transform="translate(2042.529297 0)"/>
     <use xlink:href="#DejaVuSans-Bold-46" transform="translate(2077.34375 0)"/>
     <use xlink:href="#DejaVuSans-Bold-65" transform="translate(2141.654297 0)"/>
     <use xlink:href="#DejaVuSans-Bold-65" transform="translate(2209.476562 0)"/>
     <use xlink:href="#DejaVuSans-Bold-74" transform="translate(2277.298828 0)"/>
     <use xlink:href="#DejaVuSans-Bold-20" transform="translate(2325.101562 0)"/>
     <use xlink:href="#DejaVuSans-Bold-70" transform="translate(2359.916016 0)"/>
     <use xlink:href="#DejaVuSans-Bold-65" transform="translate(2431.498047 0)"/>
     <use xlink:href="#DejaVuSans-Bold-72" transform="translate(2499.320312 0)"/>
     <use xlink:href="#DejaVuSans-Bold-20" transform="translate(2548.636719 0)"/>
     <use xlink:href="#DejaVuSans-Bold-44" transform="translate(2583.451172 0)"/>
     <use xlink:href="#DejaVuSans-Bold-6f" transform="translate(2666.458984 0)"/>
     <use xlink:href="#DejaVuSans-Bold-6c" transform="translate(2735.160156 0)"/>
     <use xlink:href="#DejaVuSans-Bold-6c" transform="translate(2769.4375 0)"/>
     <use xlink:href="#DejaVuSans-Bold-61" transform="translate(2803.714844 0)"/>
     <use xlink:href="#DejaVuSans-Bold-72" transform="translate(2871.195312 0)"/>
    </g>
    <!--  -->
    <g style="fill: #333333" transform="translate(278.9175 44.94875) scale(0.2 -0.2)"/>
    <!--  -->
    <g style="fill: #333333" transform="translate(278.9175 67.344375) scale(0.2 -0.2)"/>
   </g>
  </g>
  <g id="axes_2">
   <g id="patch_13">
    <path d="M 278.9175 703.248375 
L 837.640198 703.248375 
L 837.640198 393.696375 
L 278.9175 393.696375 
z
" style="fill: #f8f9fa"/>
   </g>
   <g id="patch_14">
    <path d="M 278.9175 689.17783 
L 292.542806 689.17783 
L 292.542806 666.20551 
L 278.9175 666.20551 
z
" clip-path="url(#p337e4e432b)" style="fill: #d87070"/>
   </g>
   <g id="patch_15">
    <path d="M 278.9175 660.462431 
L 295.761972 660.462431 
L 295.761972 637.490112 
L 278.9175 637.490112 
z
" clip-path="url(#p337e4e432b)" style="fill: #d87070"/>
   </g>
   <g id="patch_16">
    <path d="M 278.9175 631.747032 
L 298.824603 631.747032 
L 298.824603 608.774713 
L 278.9175 608.774713 
z
" clip-path="url(#p337e4e432b)" style="fill: #d87070"/>
   </g>
   <g id="patch_17">
    <path d="M 278.9175 603.031633 
L 300.6543 603.031633 
L 300.6543 580.059314 
L 278.9175 580.059314 
z
" clip-path="url(#p337e4e432b)" style="fill: #d87070"/>
   </g>
   <g id="patch_18">
    <path d="M 278.9175 574.316234 
L 301.362758 574.316234 
L 301.362758 551.343915 
L 278.9175 551.343915 
z
" clip-path="url(#p337e4e432b)" style="fill: #d87070"/>
   </g>
   <g id="patch_19">
    <path d="M 278.9175 545.600835 
L 301.368288 545.600835 
L 301.368288 522.628516 
L 278.9175 522.628516 
z
" clip-path="url(#p337e4e432b)" style="fill: #d87070"/>
   </g>
   <g id="patch_20">
    <path d="M 278.9175 516.885436 
L 303.005094 516.885436 
L 303.005094 493.913117 
L 278.9175 493.913117 
z
" clip-path="url(#p337e4e432b)" style="fill: #d87070"/>
   </g>
   <g id="patch_21">
    <path d="M 278.9175 488.170037 
L 305.879182 488.170037 
L 305.879182 465.197718 
L 278.9175 465.197718 
z
" clip-path="url(#p337e4e432b)" style="fill: #d87070"/>
   </g>
   <g id="patch_22">
    <path d="M 278.9175 459.454638 
L 307.041162 459.454638 
L 307.041162 436.482319 
L 278.9175 436.482319 
z
" clip-path="url(#p337e4e432b)" style="fill: #d87070"/>
   </g>
   <g id="patch_23">
    <path d="M 278.9175 430.73924 
L 307.53396 430.73924 
L 307.53396 407.76692 
L 278.9175 407.76692 
z
" clip-path="url(#p337e4e432b)" style="fill: #d87070"/>
   </g>
   <g id="matplotlib.axis_3">
    <g id="xtick_7"/>
    <g id="xtick_8"/>
    <g id="xtick_9"/>
    <g id="xtick_10"/>
    <g id="xtick_11"/>
    <g id="xtick_12"/>
   </g>
   <g id="matplotlib.axis_4">
    <g id="ytick_11">
     <g id="line2d_12">
      <g>
       <use xlink:href="#med21af9502" x="278.9175" y="677.69167" style="fill: #333333; stroke: #333333; stroke-width: 0.8"/>
      </g>
     </g>
     <g id="text_22">
      <!-- Villa Olivia, Illinois -->
      <g style="fill: #333333" transform="translate(126.9675 683.77042) scale(0.16 -0.16)">
       <defs>
        <path id="DejaVuSans-56" d="M 1831 0 
L 50 4666 
L 709 4666 
L 2188 738 
L 3669 4666 
L 4325 4666 
L 2547 0 
L 1831 0 
z
" transform="scale(0.015625)"/>
       </defs>
       <use xlink:href="#DejaVuSans-56"/>
       <use xlink:href="#DejaVuSans-69" transform="translate(66.158203 0)"/>
       <use xlink:href="#DejaVuSans-6c" transform="translate(93.941406 0)"/>
       <use xlink:href="#DejaVuSans-6c" transform="translate(121.724609 0)"/>
       <use xlink:href="#DejaVuSans-61" transform="translate(149.507812 0)"/>
       <use xlink:href="#DejaVuSans-20" transform="translate(210.787109 0)"/>
       <use xlink:href="#DejaVuSans-4f" transform="translate(242.574219 0)"/>
       <use xlink:href="#DejaVuSans-6c" transform="translate(321.285156 0)"/>
       <use xlink:href="#DejaVuSans-69" transform="translate(349.068359 0)"/>
       <use xlink:href="#DejaVuSans-76" transform="translate(376.851562 0)"/>
       <use xlink:href="#DejaVuSans-69" transform="translate(436.03125 0)"/>
       <use xlink:href="#DejaVuSans-61" transform="translate(463.814453 0)"/>
       <use xlink:href="#DejaVuSans-2c" transform="translate(525.09375 0)"/>
       <use xlink:href="#DejaVuSans-20" transform="translate(556.880859 0)"/>
       <use xlink:href="#DejaVuSans-49" transform="translate(588.667969 0)"/>
       <use xlink:href="#DejaVuSans-6c" transform="translate(618.160156 0)"/>
       <use xlink:href="#DejaVuSans-6c" transform="translate(645.943359 0)"/>
       <use xlink:href="#DejaVuSans-69" transform="translate(673.726562 0)"/>
       <use xlink:href="#DejaVuSans-6e" transform="translate(701.509766 0)"/>
       <use xlink:href="#DejaVuSans-6f" transform="translate(764.888672 0)"/>
       <use xlink:href="#DejaVuSans-69" transform="translate(826.070312 0)"/>
       <use xlink:href="#DejaVuSans-73" transform="translate(853.853516 0)"/>
      </g>
     </g>
    </g>
    <g id="ytick_12">
     <g id="line2d_13">
      <g>
       <use xlink:href="#med21af9502" x="278.9175" y="648.976271" style="fill: #333333; stroke: #333333; stroke-width: 0.8"/>
      </g>
     </g>
     <g id="text_23">
      <!-- Mt. Brighton, Michigan -->
      <g style="fill: #333333" transform="translate(91.265 655.055021) scale(0.16 -0.16)">
       <use xlink:href="#DejaVuSans-4d"/>
       <use xlink:href="#DejaVuSans-74" transform="translate(86.279297 0)"/>
       <use xlink:href="#DejaVuSans-2e" transform="translate(125.488281 0)"/>
       <use xlink:href="#DejaVuSans-20" transform="translate(157.275391 0)"/>
       <use xlink:href="#DejaVuSans-42" transform="translate(189.0625 0)"/>
       <use xlink:href="#DejaVuSans-72" transform="translate(257.666016 0)"/>
       <use xlink:href="#DejaVuSans-69" transform="translate(298.779297 0)"/>
       <use xlink:href="#DejaVuSans-67" transform="translate(326.5625 0)"/>
       <use xlink:href="#DejaVuSans-68" transform="translate(390.039062 0)"/>
       <use xlink:href="#DejaVuSans-74" transform="translate(453.417969 0)"/>
       <use xlink:href="#DejaVuSans-6f" transform="translate(492.626953 0)"/>
       <use xlink:href="#DejaVuSans-6e" transform="translate(553.808594 0)"/>
       <use xlink:href="#DejaVuSans-2c" transform="translate(617.1875 0)"/>
       <use xlink:href="#DejaVuSans-20" transform="translate(648.974609 0)"/>
       <use xlink:href="#DejaVuSans-4d" transform="translate(680.761719 0)"/>
       <use xlink:href="#DejaVuSans-69" transform="translate(767.041016 0)"/>
       <use xlink:href="#DejaVuSans-63" transform="translate(794.824219 0)"/>
       <use xlink:href="#DejaVuSans-68" transform="translate(849.804688 0)"/>
       <use xlink:href="#DejaVuSans-69" transform="translate(913.183594 0)"/>
       <use xlink:href="#DejaVuSans-67" transform="translate(940.966797 0)"/>
       <use xlink:href="#DejaVuSans-61" transform="translate(1004.443359 0)"/>
       <use xlink:href="#DejaVuSans-6e" transform="translate(1065.722656 0)"/>
      </g>
     </g>
    </g>
    <g id="ytick_13">
     <g id="line2d_14">
      <g>
       <use xlink:href="#med21af9502" x="278.9175" y="620.260872" style="fill: #333333; stroke: #333333; stroke-width: 0.8"/>
      </g>
     </g>
     <g id="text_24">
      <!-- The Homestead Resort, Michigan -->
      <g style="fill: #333333" transform="translate(7.2 626.339622) scale(0.16 -0.16)">
       <defs>
        <path id="DejaVuSans-48" d="M 628 4666 
L 1259 4666 
L 1259 2753 
L 3553 2753 
L 3553 4666 
L 4184 4666 
L 4184 0 
L 3553 0 
L 3553 2222 
L 1259 2222 
L 1259 0 
L 628 0 
L 628 4666 
z
" transform="scale(0.015625)"/>
        <path id="DejaVuSans-6d" d="M 3328 2828 
Q 3544 3216 3844 3400 
Q 4144 3584 4550 3584 
Q 5097 3584 5394 3201 
Q 5691 2819 5691 2113 
L 5691 0 
L 5113 0 
L 5113 2094 
Q 5113 2597 4934 2840 
Q 4756 3084 4391 3084 
Q 3944 3084 3684 2787 
Q 3425 2491 3425 1978 
L 3425 0 
L 2847 0 
L 2847 2094 
Q 2847 2600 2669 2842 
Q 2491 3084 2119 3084 
Q 1678 3084 1418 2786 
Q 1159 2488 1159 1978 
L 1159 0 
L 581 0 
L 581 3500 
L 1159 3500 
L 1159 2956 
Q 1356 3278 1631 3431 
Q 1906 3584 2284 3584 
Q 2666 3584 2933 3390 
Q 3200 3197 3328 2828 
z
" transform="scale(0.015625)"/>
       </defs>
       <use xlink:href="#DejaVuSans-54"/>
       <use xlink:href="#DejaVuSans-68" transform="translate(61.083984 0)"/>
       <use xlink:href="#DejaVuSans-65" transform="translate(124.462891 0)"/>
       <use xlink:href="#DejaVuSans-20" transform="translate(185.986328 0)"/>
       <use xlink:href="#DejaVuSans-48" transform="translate(217.773438 0)"/>
       <use xlink:href="#DejaVuSans-6f" transform="translate(292.96875 0)"/>
       <use xlink:href="#DejaVuSans-6d" transform="translate(354.150391 0)"/>
       <use xlink:href="#DejaVuSans-65" transform="translate(451.5625 0)"/>
       <use xlink:href="#DejaVuSans-73" transform="translate(513.085938 0)"/>
       <use xlink:href="#DejaVuSans-74" transform="translate(565.185547 0)"/>
       <use xlink:href="#DejaVuSans-65" transform="translate(604.394531 0)"/>
       <use xlink:href="#DejaVuSans-61" transform="translate(665.917969 0)"/>
       <use xlink:href="#DejaVuSans-64" transform="translate(727.197266 0)"/>
       <use xlink:href="#DejaVuSans-20" transform="translate(790.673828 0)"/>
       <use xlink:href="#DejaVuSans-52" transform="translate(822.460938 0)"/>
       <use xlink:href="#DejaVuSans-65" transform="translate(887.443359 0)"/>
       <use xlink:href="#DejaVuSans-73" transform="translate(948.966797 0)"/>
       <use xlink:href="#DejaVuSans-6f" transform="translate(1001.066406 0)"/>
       <use xlink:href="#DejaVuSans-72" transform="translate(1062.248047 0)"/>
       <use xlink:href="#DejaVuSans-74" transform="translate(1103.361328 0)"/>
       <use xlink:href="#DejaVuSans-2c" transform="translate(1142.570312 0)"/>
       <use xlink:href="#DejaVuSans-20" transform="translate(1174.357422 0)"/>
       <use xlink:href="#DejaVuSans-4d" transform="translate(1206.144531 0)"/>
       <use xlink:href="#DejaVuSans-69" transform="translate(1292.423828 0)"/>
       <use xlink:href="#DejaVuSans-63" transform="translate(1320.207031 0)"/>
       <use xlink:href="#DejaVuSans-68" transform="translate(1375.1875 0)"/>
       <use xlink:href="#DejaVuSans-69" transform="translate(1438.566406 0)"/>
       <use xlink:href="#DejaVuSans-67" transform="translate(1466.349609 0)"/>
       <use xlink:href="#DejaVuSans-61" transform="translate(1529.826172 0)"/>
       <use xlink:href="#DejaVuSans-6e" transform="translate(1591.105469 0)"/>
      </g>
     </g>
    </g>
    <g id="ytick_14">
     <g id="line2d_15">
      <g>
       <use xlink:href="#med21af9502" x="278.9175" y="591.545473" style="fill: #333333; stroke: #333333; stroke-width: 0.8"/>
      </g>
     </g>
     <g id="text_25">
      <!-- Sapphire Valley, North Carolina -->
      <g style="fill: #333333" transform="translate(22.3675 597.624223) scale(0.16 -0.16)">
       <defs>
        <path id="DejaVuSans-70" d="M 1159 525 
L 1159 -1331 
L 581 -1331 
L 581 3500 
L 1159 3500 
L 1159 2969 
Q 1341 3281 1617 3432 
Q 1894 3584 2278 3584 
Q 2916 3584 3314 3078 
Q 3713 2572 3713 1747 
Q 3713 922 3314 415 
Q 2916 -91 2278 -91 
Q 1894 -91 1617 61 
Q 1341 213 1159 525 
z
M 3116 1747 
Q 3116 2381 2855 2742 
Q 2594 3103 2138 3103 
Q 1681 3103 1420 2742 
Q 1159 2381 1159 1747 
Q 1159 1113 1420 752 
Q 1681 391 2138 391 
Q 2594 391 2855 752 
Q 3116 1113 3116 1747 
z
" transform="scale(0.015625)"/>
       </defs>
       <use xlink:href="#DejaVuSans-53"/>
       <use xlink:href="#DejaVuSans-61" transform="translate(63.476562 0)"/>
       <use xlink:href="#DejaVuSans-70" transform="translate(124.755859 0)"/>
       <use xlink:href="#DejaVuSans-70" transform="translate(188.232422 0)"/>
       <use xlink:href="#DejaVuSans-68" transform="translate(251.708984 0)"/>
       <use xlink:href="#DejaVuSans-69" transform="translate(315.087891 0)"/>
       <use xlink:href="#DejaVuSans-72" transform="translate(342.871094 0)"/>
       <use xlink:href="#DejaVuSans-65" transform="translate(381.734375 0)"/>
       <use xlink:href="#DejaVuSans-20" transform="translate(443.257812 0)"/>
       <use xlink:href="#DejaVuSans-56" transform="translate(475.044922 0)"/>
       <use xlink:href="#DejaVuSans-61" transform="translate(535.703125 0)"/>
       <use xlink:href="#DejaVuSans-6c" transform="translate(596.982422 0)"/>
       <use xlink:href="#DejaVuSans-6c" transform="translate(624.765625 0)"/>
       <use xlink:href="#DejaVuSans-65" transform="translate(652.548828 0)"/>
       <use xlink:href="#DejaVuSans-79" transform="translate(714.072266 0)"/>
       <use xlink:href="#DejaVuSans-2c" transform="translate(773.251953 0)"/>
       <use xlink:href="#DejaVuSans-20" transform="translate(805.039062 0)"/>
       <use xlink:href="#DejaVuSans-4e" transform="translate(836.826172 0)"/>
       <use xlink:href="#DejaVuSans-6f" transform="translate(911.630859 0)"/>
       <use xlink:href="#DejaVuSans-72" transform="translate(972.8125 0)"/>
       <use xlink:href="#DejaVuSans-74" transform="translate(1013.925781 0)"/>
       <use xlink:href="#DejaVuSans-68" transform="translate(1053.134766 0)"/>
       <use xlink:href="#DejaVuSans-20" transform="translate(1116.513672 0)"/>
       <use xlink:href="#DejaVuSans-43" transform="translate(1148.300781 0)"/>
       <use xlink:href="#DejaVuSans-61" transform="translate(1218.125 0)"/>
       <use xlink:href="#DejaVuSans-72" transform="translate(1279.404297 0)"/>
       <use xlink:href="#DejaVuSans-6f" transform="translate(1318.267578 0)"/>
       <use xlink:href="#DejaVuSans-6c" transform="translate(1379.449219 0)"/>
       <use xlink:href="#DejaVuSans-69" transform="translate(1407.232422 0)"/>
       <use xlink:href="#DejaVuSans-6e" transform="translate(1435.015625 0)"/>
       <use xlink:href="#DejaVuSans-61" transform="translate(1498.394531 0)"/>
      </g>
     </g>
    </g>
    <g id="ytick_15">
     <g id="line2d_16">
      <g>
       <use xlink:href="#med21af9502" x="278.9175" y="562.830074" style="fill: #333333; stroke: #333333; stroke-width: 0.8"/>
      </g>
     </g>
     <g id="text_26">
      <!-- Little Switzerland, Wisconsin -->
      <g style="fill: #333333" transform="translate(43.2525 568.908824) scale(0.16 -0.16)">
       <defs>
        <path id="DejaVuSans-4c" d="M 628 4666 
L 1259 4666 
L 1259 531 
L 3531 531 
L 3531 0 
L 628 0 
L 628 4666 
z
" transform="scale(0.015625)"/>
        <path id="DejaVuSans-7a" d="M 353 3500 
L 3084 3500 
L 3084 2975 
L 922 459 
L 3084 459 
L 3084 0 
L 275 0 
L 275 525 
L 2438 3041 
L 353 3041 
L 353 3500 
z
" transform="scale(0.015625)"/>
       </defs>
       <use xlink:href="#DejaVuSans-4c"/>
       <use xlink:href="#DejaVuSans-69" transform="translate(55.712891 0)"/>
       <use xlink:href="#DejaVuSans-74" transform="translate(83.496094 0)"/>
       <use xlink:href="#DejaVuSans-74" transform="translate(122.705078 0)"/>
       <use xlink:href="#DejaVuSans-6c" transform="translate(161.914062 0)"/>
       <use xlink:href="#DejaVuSans-65" transform="translate(189.697266 0)"/>
       <use xlink:href="#DejaVuSans-20" transform="translate(251.220703 0)"/>
       <use xlink:href="#DejaVuSans-53" transform="translate(283.007812 0)"/>
       <use xlink:href="#DejaVuSans-77" transform="translate(346.484375 0)"/>
       <use xlink:href="#DejaVuSans-69" transform="translate(428.271484 0)"/>
       <use xlink:href="#DejaVuSans-74" transform="translate(456.054688 0)"/>
       <use xlink:href="#DejaVuSans-7a" transform="translate(495.263672 0)"/>
       <use xlink:href="#DejaVuSans-65" transform="translate(547.753906 0)"/>
       <use xlink:href="#DejaVuSans-72" transform="translate(609.277344 0)"/>
       <use xlink:href="#DejaVuSans-6c" transform="translate(650.390625 0)"/>
       <use xlink:href="#DejaVuSans-61" transform="translate(678.173828 0)"/>
       <use xlink:href="#DejaVuSans-6e" transform="translate(739.453125 0)"/>
       <use xlink:href="#DejaVuSans-64" transform="translate(802.832031 0)"/>
       <use xlink:href="#DejaVuSans-2c" transform="translate(866.308594 0)"/>
       <use xlink:href="#DejaVuSans-20" transform="translate(898.095703 0)"/>
       <use xlink:href="#DejaVuSans-57" transform="translate(929.882812 0)"/>
       <use xlink:href="#DejaVuSans-69" transform="translate(1026.509766 0)"/>
       <use xlink:href="#DejaVuSans-73" transform="translate(1054.292969 0)"/>
       <use xlink:href="#DejaVuSans-63" transform="translate(1106.392578 0)"/>
       <use xlink:href="#DejaVuSans-6f" transform="translate(1161.373047 0)"/>
       <use xlink:href="#DejaVuSans-6e" transform="translate(1222.554688 0)"/>
       <use xlink:href="#DejaVuSans-73" transform="translate(1285.933594 0)"/>
       <use xlink:href="#DejaVuSans-69" transform="translate(1338.033203 0)"/>
       <use xlink:href="#DejaVuSans-6e" transform="translate(1365.816406 0)"/>
      </g>
     </g>
    </g>
    <g id="ytick_16">
     <g id="line2d_17">
      <g>
       <use xlink:href="#med21af9502" x="278.9175" y="534.114676" style="fill: #333333; stroke: #333333; stroke-width: 0.8"/>
      </g>
     </g>
     <g id="text_27">
      <!-- Wilmot Mountain, Wisconsin -->
      <g style="fill: #333333" transform="translate(46.24 540.193426) scale(0.16 -0.16)">
       <use xlink:href="#DejaVuSans-57"/>
       <use xlink:href="#DejaVuSans-69" transform="translate(96.626953 0)"/>
       <use xlink:href="#DejaVuSans-6c" transform="translate(124.410156 0)"/>
       <use xlink:href="#DejaVuSans-6d" transform="translate(152.193359 0)"/>
       <use xlink:href="#DejaVuSans-6f" transform="translate(249.605469 0)"/>
       <use xlink:href="#DejaVuSans-74" transform="translate(310.787109 0)"/>
       <use xlink:href="#DejaVuSans-20" transform="translate(349.996094 0)"/>
       <use xlink:href="#DejaVuSans-4d" transform="translate(381.783203 0)"/>
       <use xlink:href="#DejaVuSans-6f" transform="translate(468.0625 0)"/>
       <use xlink:href="#DejaVuSans-75" transform="translate(529.244141 0)"/>
       <use xlink:href="#DejaVuSans-6e" transform="translate(592.623047 0)"/>
       <use xlink:href="#DejaVuSans-74" transform="translate(656.001953 0)"/>
       <use xlink:href="#DejaVuSans-61" transform="translate(695.210938 0)"/>
       <use xlink:href="#DejaVuSans-69" transform="translate(756.490234 0)"/>
       <use xlink:href="#DejaVuSans-6e" transform="translate(784.273438 0)"/>
       <use xlink:href="#DejaVuSans-2c" transform="translate(847.652344 0)"/>
       <use xlink:href="#DejaVuSans-20" transform="translate(879.439453 0)"/>
       <use xlink:href="#DejaVuSans-57" transform="translate(911.226562 0)"/>
       <use xlink:href="#DejaVuSans-69" transform="translate(1007.853516 0)"/>
       <use xlink:href="#DejaVuSans-73" transform="translate(1035.636719 0)"/>
       <use xlink:href="#DejaVuSans-63" transform="translate(1087.736328 0)"/>
       <use xlink:href="#DejaVuSans-6f" transform="translate(1142.716797 0)"/>
       <use xlink:href="#DejaVuSans-6e" transform="translate(1203.898438 0)"/>
       <use xlink:href="#DejaVuSans-73" transform="translate(1267.277344 0)"/>
       <use xlink:href="#DejaVuSans-69" transform="translate(1319.376953 0)"/>
       <use xlink:href="#DejaVuSans-6e" transform="translate(1347.160156 0)"/>
      </g>
     </g>
    </g>
    <g id="ytick_17">
     <g id="line2d_18">
      <g>
       <use xlink:href="#med21af9502" x="278.9175" y="505.399277" style="fill: #333333; stroke: #333333; stroke-width: 0.8"/>
      </g>
     </g>
     <g id="text_28">
      <!-- Four Lakes, Illinois -->
      <g style="fill: #333333" transform="translate(125.1825 511.478027) scale(0.16 -0.16)">
       <use xlink:href="#DejaVuSans-46"/>
       <use xlink:href="#DejaVuSans-6f" transform="translate(53.894531 0)"/>
       <use xlink:href="#DejaVuSans-75" transform="translate(115.076172 0)"/>
       <use xlink:href="#DejaVuSans-72" transform="translate(178.455078 0)"/>
       <use xlink:href="#DejaVuSans-20" transform="translate(219.568359 0)"/>
       <use xlink:href="#DejaVuSans-4c" transform="translate(251.355469 0)"/>
       <use xlink:href="#DejaVuSans-61" transform="translate(307.068359 0)"/>
       <use xlink:href="#DejaVuSans-6b" transform="translate(368.347656 0)"/>
       <use xlink:href="#DejaVuSans-65" transform="translate(422.632812 0)"/>
       <use xlink:href="#DejaVuSans-73" transform="translate(484.15625 0)"/>
       <use xlink:href="#DejaVuSans-2c" transform="translate(536.255859 0)"/>
       <use xlink:href="#DejaVuSans-20" transform="translate(568.042969 0)"/>
       <use xlink:href="#DejaVuSans-49" transform="translate(599.830078 0)"/>
       <use xlink:href="#DejaVuSans-6c" transform="translate(629.322266 0)"/>
       <use xlink:href="#DejaVuSans-6c" transform="translate(657.105469 0)"/>
       <use xlink:href="#DejaVuSans-69" transform="translate(684.888672 0)"/>
       <use xlink:href="#DejaVuSans-6e" transform="translate(712.671875 0)"/>
       <use xlink:href="#DejaVuSans-6f" transform="translate(776.050781 0)"/>
       <use xlink:href="#DejaVuSans-69" transform="translate(837.232422 0)"/>
       <use xlink:href="#DejaVuSans-73" transform="translate(865.015625 0)"/>
      </g>
     </g>
    </g>
    <g id="ytick_18">
     <g id="line2d_19">
      <g>
       <use xlink:href="#med21af9502" x="278.9175" y="476.683878" style="fill: #333333; stroke: #333333; stroke-width: 0.8"/>
      </g>
     </g>
     <g id="text_29">
      <!-- Christmas Mountain, Wisconsin -->
      <g style="fill: #333333" transform="translate(21.57 482.762628) scale(0.16 -0.16)">
       <use xlink:href="#DejaVuSans-43"/>
       <use xlink:href="#DejaVuSans-68" transform="translate(69.824219 0)"/>
       <use xlink:href="#DejaVuSans-72" transform="translate(133.203125 0)"/>
       <use xlink:href="#DejaVuSans-69" transform="translate(174.316406 0)"/>
       <use xlink:href="#DejaVuSans-73" transform="translate(202.099609 0)"/>
       <use xlink:href="#DejaVuSans-74" transform="translate(254.199219 0)"/>
       <use xlink:href="#DejaVuSans-6d" transform="translate(293.408203 0)"/>
       <use xlink:href="#DejaVuSans-61" transform="translate(390.820312 0)"/>
       <use xlink:href="#DejaVuSans-73" transform="translate(452.099609 0)"/>
       <use xlink:href="#DejaVuSans-20" transform="translate(504.199219 0)"/>
       <use xlink:href="#DejaVuSans-4d" transform="translate(535.986328 0)"/>
       <use xlink:href="#DejaVuSans-6f" transform="translate(622.265625 0)"/>
       <use xlink:href="#DejaVuSans-75" transform="translate(683.447266 0)"/>
       <use xlink:href="#DejaVuSans-6e" transform="translate(746.826172 0)"/>
       <use xlink:href="#DejaVuSans-74" transform="translate(810.205078 0)"/>
       <use xlink:href="#DejaVuSans-61" transform="translate(849.414062 0)"/>
       <use xlink:href="#DejaVuSans-69" transform="translate(910.693359 0)"/>
       <use xlink:href="#DejaVuSans-6e" transform="translate(938.476562 0)"/>
       <use xlink:href="#DejaVuSans-2c" transform="translate(1001.855469 0)"/>
       <use xlink:href="#DejaVuSans-20" transform="translate(1033.642578 0)"/>
       <use xlink:href="#DejaVuSans-57" transform="translate(1065.429688 0)"/>
       <use xlink:href="#DejaVuSans-69" transform="translate(1162.056641 0)"/>
       <use xlink:href="#DejaVuSans-73" transform="translate(1189.839844 0)"/>
       <use xlink:href="#DejaVuSans-63" transform="translate(1241.939453 0)"/>
       <use xlink:href="#DejaVuSans-6f" transform="translate(1296.919922 0)"/>
       <use xlink:href="#DejaVuSans-6e" transform="translate(1358.101562 0)"/>
       <use xlink:href="#DejaVuSans-73" transform="translate(1421.480469 0)"/>
       <use xlink:href="#DejaVuSans-69" transform="translate(1473.580078 0)"/>
       <use xlink:href="#DejaVuSans-6e" transform="translate(1501.363281 0)"/>
      </g>
     </g>
    </g>
    <g id="ytick_19">
     <g id="line2d_20">
      <g>
       <use xlink:href="#med21af9502" x="278.9175" y="447.968479" style="fill: #333333; stroke: #333333; stroke-width: 0.8"/>
      </g>
     </g>
     <g id="text_30">
      <!-- Hoedown Hill, Colorado -->
      <g style="fill: #333333" transform="translate(84.9275 454.047229) scale(0.16 -0.16)">
       <use xlink:href="#DejaVuSans-48"/>
       <use xlink:href="#DejaVuSans-6f" transform="translate(75.195312 0)"/>
       <use xlink:href="#DejaVuSans-65" transform="translate(136.376953 0)"/>
       <use xlink:href="#DejaVuSans-64" transform="translate(197.900391 0)"/>
       <use xlink:href="#DejaVuSans-6f" transform="translate(261.376953 0)"/>
       <use xlink:href="#DejaVuSans-77" transform="translate(322.558594 0)"/>
       <use xlink:href="#DejaVuSans-6e" transform="translate(404.345703 0)"/>
       <use xlink:href="#DejaVuSans-20" transform="translate(467.724609 0)"/>
       <use xlink:href="#DejaVuSans-48" transform="translate(499.511719 0)"/>
       <use xlink:href="#DejaVuSans-69" transform="translate(574.707031 0)"/>
       <use xlink:href="#DejaVuSans-6c" transform="translate(602.490234 0)"/>
       <use xlink:href="#DejaVuSans-6c" transform="translate(630.273438 0)"/>
       <use xlink:href="#DejaVuSans-2c" transform="translate(658.056641 0)"/>
       <use xlink:href="#DejaVuSans-20" transform="translate(689.84375 0)"/>
       <use xlink:href="#DejaVuSans-43" transform="translate(721.630859 0)"/>
       <use xlink:href="#DejaVuSans-6f" transform="translate(791.455078 0)"/>
       <use xlink:href="#DejaVuSans-6c" transform="translate(852.636719 0)"/>
       <use xlink:href="#DejaVuSans-6f" transform="translate(880.419922 0)"/>
       <use xlink:href="#DejaVuSans-72" transform="translate(941.601562 0)"/>
       <use xlink:href="#DejaVuSans-61" transform="translate(982.714844 0)"/>
       <use xlink:href="#DejaVuSans-64" transform="translate(1043.994141 0)"/>
       <use xlink:href="#DejaVuSans-6f" transform="translate(1107.470703 0)"/>
      </g>
     </g>
    </g>
    <g id="ytick_20">
     <g id="line2d_21">
      <g>
       <use xlink:href="#med21af9502" x="278.9175" y="419.25308" style="fill: #333333; stroke: #333333; stroke-width: 0.8"/>
      </g>
     </g>
     <g id="text_31">
      <!-- Boston Mills, Ohio -->
      <g style="fill: #333333" transform="translate(128.9125 425.33183) scale(0.16 -0.16)">
       <use xlink:href="#DejaVuSans-42"/>
       <use xlink:href="#DejaVuSans-6f" transform="translate(68.603516 0)"/>
       <use xlink:href="#DejaVuSans-73" transform="translate(129.785156 0)"/>
       <use xlink:href="#DejaVuSans-74" transform="translate(181.884766 0)"/>
       <use xlink:href="#DejaVuSans-6f" transform="translate(221.09375 0)"/>
       <use xlink:href="#DejaVuSans-6e" transform="translate(282.275391 0)"/>
       <use xlink:href="#DejaVuSans-20" transform="translate(345.654297 0)"/>
       <use xlink:href="#DejaVuSans-4d" transform="translate(377.441406 0)"/>
       <use xlink:href="#DejaVuSans-69" transform="translate(463.720703 0)"/>
       <use xlink:href="#DejaVuSans-6c" transform="translate(491.503906 0)"/>
       <use xlink:href="#DejaVuSans-6c" transform="translate(519.287109 0)"/>
       <use xlink:href="#DejaVuSans-73" transform="translate(547.070312 0)"/>
       <use xlink:href="#DejaVuSans-2c" transform="translate(599.169922 0)"/>
       <use xlink:href="#DejaVuSans-20" transform="translate(630.957031 0)"/>
       <use xlink:href="#DejaVuSans-4f" transform="translate(662.744141 0)"/>
       <use xlink:href="#DejaVuSans-68" transform="translate(741.455078 0)"/>
       <use xlink:href="#DejaVuSans-69" transform="translate(804.833984 0)"/>
       <use xlink:href="#DejaVuSans-6f" transform="translate(832.617188 0)"/>
      </g>
     </g>
    </g>
   </g>
   <g id="line2d_22">
    <path d="M 278.9175 703.248375 
L 278.9175 393.696375 
" clip-path="url(#p337e4e432b)" style="fill: none; stroke: #000000; stroke-width: 0.8; stroke-linecap: square"/>
   </g>
   <g id="text_32">
    <!-- 1.2 -->
    <g style="fill: #333333" transform="translate(299.11215 682.10667) scale(0.16 -0.16)">
     <use xlink:href="#DejaVuSans-31"/>
     <use xlink:href="#DejaVuSans-2e" transform="translate(63.623047 0)"/>
     <use xlink:href="#DejaVuSans-32" transform="translate(95.410156 0)"/>
    </g>
   </g>
   <g id="text_33">
    <!-- 1.5 -->
    <g style="fill: #333333" transform="translate(302.331315 653.391271) scale(0.16 -0.16)">
     <use xlink:href="#DejaVuSans-31"/>
     <use xlink:href="#DejaVuSans-2e" transform="translate(63.623047 0)"/>
     <use xlink:href="#DejaVuSans-35" transform="translate(95.410156 0)"/>
    </g>
   </g>
   <g id="text_34">
    <!-- 1.8 -->
    <g style="fill: #333333" transform="translate(305.393947 624.675872) scale(0.16 -0.16)">
     <use xlink:href="#DejaVuSans-31"/>
     <use xlink:href="#DejaVuSans-2e" transform="translate(63.623047 0)"/>
     <use xlink:href="#DejaVuSans-38" transform="translate(95.410156 0)"/>
    </g>
   </g>
   <g id="text_35">
    <!-- 2.0 -->
    <g style="fill: #333333" transform="translate(307.223644 595.960473) scale(0.16 -0.16)">
     <use xlink:href="#DejaVuSans-32"/>
     <use xlink:href="#DejaVuSans-2e" transform="translate(63.623047 0)"/>
     <use xlink:href="#DejaVuSans-30" transform="translate(95.410156 0)"/>
    </g>
   </g>
   <g id="text_36">
    <!-- 2.0 -->
    <g style="fill: #333333" transform="translate(307.932102 567.245074) scale(0.16 -0.16)">
     <use xlink:href="#DejaVuSans-32"/>
     <use xlink:href="#DejaVuSans-2e" transform="translate(63.623047 0)"/>
     <use xlink:href="#DejaVuSans-30" transform="translate(95.410156 0)"/>
    </g>
   </g>
   <g id="text_37">
    <!-- 2.1 -->
    <g style="fill: #333333" transform="translate(307.937632 538.529676) scale(0.16 -0.16)">
     <use xlink:href="#DejaVuSans-32"/>
     <use xlink:href="#DejaVuSans-2e" transform="translate(63.623047 0)"/>
     <use xlink:href="#DejaVuSans-31" transform="translate(95.410156 0)"/>
    </g>
   </g>
   <g id="text_38">
    <!-- 2.2 -->
    <g style="fill: #333333" transform="translate(309.574438 509.814277) scale(0.16 -0.16)">
     <use xlink:href="#DejaVuSans-32"/>
     <use xlink:href="#DejaVuSans-2e" transform="translate(63.623047 0)"/>
     <use xlink:href="#DejaVuSans-32" transform="translate(95.410156 0)"/>
    </g>
   </g>
   <g id="text_39">
    <!-- 2.5 -->
    <g style="fill: #333333" transform="translate(312.448526 481.098878) scale(0.16 -0.16)">
     <use xlink:href="#DejaVuSans-32"/>
     <use xlink:href="#DejaVuSans-2e" transform="translate(63.623047 0)"/>
     <use xlink:href="#DejaVuSans-35" transform="translate(95.410156 0)"/>
    </g>
   </g>
   <g id="text_40">
    <!-- 2.6 -->
    <g style="fill: #333333" transform="translate(313.610506 452.383479) scale(0.16 -0.16)">
     <use xlink:href="#DejaVuSans-32"/>
     <use xlink:href="#DejaVuSans-2e" transform="translate(63.623047 0)"/>
     <use xlink:href="#DejaVuSans-36" transform="translate(95.410156 0)"/>
    </g>
   </g>
   <g id="text_41">
    <!-- 2.6 -->
    <g style="fill: #333333" transform="translate(314.103304 423.66808) scale(0.16 -0.16)">
     <use xlink:href="#DejaVuSans-32"/>
     <use xlink:href="#DejaVuSans-2e" transform="translate(63.623047 0)"/>
     <use xlink:href="#DejaVuSans-36" transform="translate(95.410156 0)"/>
    </g>
   </g>
  </g>
  <g id="text_42">
   <!-- Montana and Idaho dominate the top 10 -->
   <g style="fill: #666666" transform="translate(278.9175 48.580215) scale(0.16 -0.16)">
    <use xlink:href="#DejaVuSans-4d"/>
    <use xlink:href="#DejaVuSans-6f" transform="translate(86.279297 0)"/>
    <use xlink:href="#DejaVuSans-6e" transform="translate(147.460938 0)"/>
    <use xlink:href="#DejaVuSans-74" transform="translate(210.839844 0)"/>
    <use xlink:href="#DejaVuSans-61" transform="translate(250.048828 0)"/>
    <use xlink:href="#DejaVuSans-6e" transform="translate(311.328125 0)"/>
    <use xlink:href="#DejaVuSans-61" transform="translate(374.707031 0)"/>
    <use xlink:href="#DejaVuSans-20" transform="translate(435.986328 0)"/>
    <use xlink:href="#DejaVuSans-61" transform="translate(467.773438 0)"/>
    <use xlink:href="#DejaVuSans-6e" transform="translate(529.052734 0)"/>
    <use xlink:href="#DejaVuSans-64" transform="translate(592.431641 0)"/>
    <use xlink:href="#DejaVuSans-20" transform="translate(655.908203 0)"/>
    <use xlink:href="#DejaVuSans-49" transform="translate(687.695312 0)"/>
    <use xlink:href="#DejaVuSans-64" transform="translate(717.1875 0)"/>
    <use xlink:href="#DejaVuSans-61" transform="translate(780.664062 0)"/>
    <use xlink:href="#DejaVuSans-68" transform="translate(841.943359 0)"/>
    <use xlink:href="#DejaVuSans-6f" transform="translate(905.322266 0)"/>
    <use xlink:href="#DejaVuSans-20" transform="translate(966.503906 0)"/>
    <use xlink:href="#DejaVuSans-64" transform="translate(998.291016 0)"/>
    <use xlink:href="#DejaVuSans-6f" transform="translate(1061.767578 0)"/>
    <use xlink:href="#DejaVuSans-6d" transform="translate(1122.949219 0)"/>
    <use xlink:href="#DejaVuSans-69" transform="translate(1220.361328 0)"/>
    <use xlink:href="#DejaVuSans-6e" transform="translate(1248.144531 0)"/>
    <use xlink:href="#DejaVuSans-61" transform="translate(1311.523438 0)"/>
    <use xlink:href="#DejaVuSans-74" transform="translate(1372.802734 0)"/>
    <use xlink:href="#DejaVuSans-65" transform="translate(1412.011719 0)"/>
    <use xlink:href="#DejaVuSans-20" transform="translate(1473.535156 0)"/>
    <use xlink:href="#DejaVuSans-74" transform="translate(1505.322266 0)"/>
    <use xlink:href="#DejaVuSans-68" transform="translate(1544.53125 0)"/>
    <use xlink:href="#DejaVuSans-65" transform="translate(1607.910156 0)"/>
    <use xlink:href="#DejaVuSans-20" transform="translate(1669.433594 0)"/>
    <use xlink:href="#DejaVuSans-74" transform="translate(1701.220703 0)"/>
    <use xlink:href="#DejaVuSans-6f" transform="translate(1740.429688 0)"/>
    <use xlink:href="#DejaVuSans-70" transform="translate(1801.611328 0)"/>
    <use xlink:href="#DejaVuSans-20" transform="translate(1865.087891 0)"/>
    <use xlink:href="#DejaVuSans-31" transform="translate(1896.875 0)"/>
    <use xlink:href="#DejaVuSans-30" transform="translate(1960.498047 0)"/>
   </g>
  </g>
 </g>
 <defs>
  <clipPath id="pbe31acfff4">
   <rect x="278.9175" y="73.344375" width="558.722698" height="309.552"/>
  </clipPath>
  <clipPath id="p337e4e432b">
   <rect x="278.9175" y="393.696375" width="558.722698" height="309.552"/>
  </clipPath>
 </defs>
</svg>
